SplineFontDB: 3.0
FontName: merybitch
FullName: Mery Bitch
FamilyName: merybitch
Weight: Regular
Copyright: Copyright (c) 2018, remy Tomasetto
UComments: "2018-10-4: Created with FontForge (http://fontforge.org)"
Version: 001.000
ItalicAngle: 0
UnderlinePosition: -100
UnderlineWidth: 50
Ascent: 800
Descent: 200
InvalidEm: 0
LayerCount: 2
Layer: 0 0 "Back" 1
Layer: 1 0 "Fore" 0
XUID: [1021 738 -347570496 13357900]
FSType: 0
OS2Version: 0
OS2_WeightWidthSlopeOnly: 0
OS2_UseTypoMetrics: 1
CreationTime: 1538655847
ModificationTime: 1538661196
PfmFamily: 17
TTFWeight: 400
TTFWidth: 5
LineGap: 90
VLineGap: 0
OS2TypoAscent: 0
OS2TypoAOffset: 1
OS2TypoDescent: 0
OS2TypoDOffset: 1
OS2TypoLinegap: 90
OS2WinAscent: 0
OS2WinAOffset: 1
OS2WinDescent: 0
OS2WinDOffset: 1
HheadAscent: 0
HheadAOffset: 1
HheadDescent: 0
HheadDOffset: 1
OS2Vendor: 'PfEd'
MarkAttachClasses: 1
DEI: 91125
LangName: 1033
Encoding: UnicodeBmp
UnicodeInterp: none
NameList: AGL For New Fonts
DisplaySize: -48
AntiAlias: 1
FitToEm: 0
WinInfo: 57400 25 9
BeginPrivate: 0
EndPrivate
TeXData: 1 0 0 346030 173015 115343 0 1048576 115343 783286 444596 497025 792723 393216 433062 380633 303038 157286 324010 404750 52429 2506097 1059062 262144
BeginChars: 65536 248

StartChar: uniE06A
Encoding: 57450 57450 0
Width: 933
Flags: HW
LayerCount: 2
Fore
SplineSet
491 76 m 0
 491 51.3333333333 482.333333333 30.1666666667 465 12.5 c 128
 447.666666667 -5.16666666667 426.333333333 -14 401 -14 c 256
 375.666666667 -14 354.166666667 -5.16666666667 336.5 12.5 c 128
 318.833333333 30.1666666667 310 51.3333333333 310 76 c 0
 310 101.333333333 318.833333333 122.833333333 336.5 140.5 c 128
 354.166666667 158.166666667 375.666666667 167 401 167 c 256
 426.333333333 167 447.666666667 158.166666667 465 140.5 c 128
 482.333333333 122.833333333 491 101.333333333 491 76 c 0
793 76 m 0
 793 51.3333333333 784.166666667 30.1666666667 766.5 12.5 c 128
 748.833333333 -5.16666666667 727.333333333 -14 702 -14 c 0
 677.333333333 -14 656.166666667 -5.16666666667 638.5 12.5 c 128
 620.833333333 30.1666666667 612 51.3333333333 612 76 c 0
 612 101.333333333 620.833333333 122.833333333 638.5 140.5 c 128
 656.166666667 158.166666667 677.333333333 167 702 167 c 0
 727.333333333 167 748.833333333 158.166666667 766.5 140.5 c 128
 784.166666667 122.833333333 793 101.333333333 793 76 c 0
417 310 m 1
 417 380 l 1
 487 380 l 1
 487 310 l 1
 417 310 l 1
367 415 m 1
 367 485 l 1
 437 485 l 1
 437 415 l 1
 367 415 l 1
517 310 m 1
 517 380 l 1
 587 380 l 1
 587 310 l 1
 517 310 l 1
317 520 m 1
 317 590 l 1
 387 590 l 1
 387 520 l 1
 317 520 l 1
755 208 m 1
 348 208 l 1
 180 656 l 1
 35 656 l 1
 35 722 l 1
 226 722 l 1
 394 274 l 1
 709 274 l 1
 828 590 l 1
 898 590 l 1
 755 208 l 1
467 415 m 1
 467 485 l 1
 537 485 l 1
 537 415 l 1
 467 415 l 1
617 310 m 1
 617 380 l 1
 686 380 l 1
 686 310 l 1
 617 310 l 1
417 520 m 1
 417 590 l 1
 487 590 l 1
 487 520 l 1
 417 520 l 1
567 415 m 1
 567 485 l 1
 636 485 l 1
 636 415 l 1
 567 415 l 1
517 520 m 1
 517 590 l 1
 587 590 l 1
 587 520 l 1
 517 520 l 1
667 415 m 1
 667 485 l 1
 736 485 l 1
 736 415 l 1
 667 415 l 1
617 520 m 1
 617 590 l 1
 686 590 l 1
 686 520 l 1
 617 520 l 1
717 520 m 1
 717 590 l 1
 786 590 l 1
 786 520 l 1
 717 520 l 1
EndSplineSet
EndChar

StartChar: uniE06B
Encoding: 57451 57451 1
Width: 819
Flags: HW
LayerCount: 2
Fore
SplineSet
346 299 m 1
 346 394 l 1
 450 394 l 1
 450 299 l 1
 346 299 l 1
558 568 m 0
 558 546.666666667 552.333333333 530.5 541 519.5 c 128
 529.666666667 508.5 517.166666667 499.666666667 503.5 493 c 128
 489.833333333 486.333333333 477.333333333 480.333333333 466 475 c 128
 454.666666667 469.666666667 449 462 449 452 c 0
 449 448.666666667 449.166666667 445.333333333 449.5 442 c 128
 449.833333333 438.666666667 450 434.666666667 450 430 c 1
 346 430 l 1
 346 445 l 2
 346 457 348.166666667 470.166666667 352.5 484.5 c 128
 356.833333333 498.833333333 367.666666667 510.666666667 385 520 c 0
 389.666666667 522 395 524.166666667 401 526.5 c 128
 407 528.833333333 412.666666667 531.5 418 534.5 c 128
 423.333333333 537.5 428 541 432 545 c 128
 436 549 438 554 438 560 c 0
 438 577.333333333 427 586 405 586 c 0
 392.333333333 586 383.166666667 582.166666667 377.5 574.5 c 128
 371.833333333 566.833333333 369 558 369 548 c 2
 369 543 l 1
 251 543 l 1
 251.666666667 559 255.166666667 574.833333333 261.5 590.5 c 128
 267.833333333 606.166666667 277.166666667 620 289.5 632 c 128
 301.833333333 644 317.833333333 653.833333333 337.5 661.5 c 128
 357.166666667 669.166666667 380.666666667 673 408 673 c 256
 435.333333333 673 458.5 669.666666667 477.5 663 c 128
 496.5 656.333333333 511.833333333 647.833333333 523.5 637.5 c 128
 535.166666667 627.166666667 543.666666667 615.833333333 549 603.5 c 128
 554.333333333 591.166666667 557.333333333 579.333333333 558 568 c 0
726 642 m 2
 726 660 724.333333333 674.166666667 721 684.5 c 128
 717.666666667 694.833333333 713.833333333 702.833333333 709.5 708.5 c 128
 705.166666667 714.166666667 700.5 717.833333333 695.5 719.5 c 128
 690.5 721.166666667 686.333333333 722 683 722 c 0
 681 722 679.333333333 721.833333333 678 721.5 c 128
 676 721 676 721 676 721 c 1
 178 721 l 2
 156.666666667 721 140 717 128 709 c 128
 116 701 107 692 101 682 c 128
 95 672 91.3333333333 662.166666667 90 652.5 c 128
 88.6666666667 642.833333333 88 636.333333333 88 633 c 2
 88 313 l 2
 88 297 90.6666666667 284.333333333 96 275 c 128
 101.333333333 265.666666667 108 258.5 116 253.5 c 128
 124 248.5 132.5 245.166666667 141.5 243.5 c 128
 150.5 241.833333333 158.666666667 241 166 241 c 0
 172 241 176.833333333 241.166666667 180.5 241.5 c 128
 186 242 186 242 186 242 c 1
 186 123 l 1
 284 226 l 1
 639 226 l 2
 659 226 674.833333333 228 686.5 232 c 128
 698.166666667 236 707 240.833333333 713 246.5 c 128
 719 252.166666667 722.833333333 258 724.5 264 c 128
 726.166666667 270 727 275 727 279 c 0
 727 281 726.833333333 282.666666667 726.5 284 c 128
 726 286 726 286 726 286 c 1
 726 642 l 2
781 298 m 2
 781 291.333333333 780.166666667 281.333333333 778.5 268 c 128
 776.833333333 254.666666667 772.166666667 241.333333333 764.5 228 c 128
 756.833333333 214.666666667 745.5 203 730.5 193 c 128
 715.5 183 695 178 669 178 c 2
 303 178 l 1
 137 0 l 1
 137 191 l 1
 137 191 137 191 121 196 c 128
 110.333333333 199.333333333 98.8333333333 205.666666667 86.5 215 c 128
 74.1666666667 224.333333333 62.6666666667 236.833333333 52 252.5 c 128
 41.3333333333 268.166666667 36 288.666666667 36 314 c 0
 36 328 36 328 36 358 c 0
 36 389 36 389 36 426 c 0
 36 451.333333333 36.1666666667 477.5 36.5 504.5 c 128
 36.8333333333 531.5 37 556 37 578 c 0
 37 612 37 612 37 633 c 0
 37 655 37 655 37 655 c 2
 37.6666666667 658.333333333 39.3333333333 666.166666667 42 678.5 c 128
 44.6666666667 690.833333333 50 703.833333333 58 717.5 c 128
 66 731.166666667 77.3333333333 743.333333333 92 754 c 128
 106.666666667 764.666666667 126 770 150 770 c 2
 681 770 l 2
 687 770 695.5 769.166666667 706.5 767.5 c 128
 717.5 765.833333333 728.5 761.333333333 739.5 754 c 128
 750.5 746.666666667 760.166666667 735.833333333 768.5 721.5 c 128
 776.833333333 707.166666667 781 687.666666667 781 663 c 2
 781 298 l 2
EndSplineSet
EndChar

StartChar: uniE06C
Encoding: 57452 57452 2
Width: 692
Flags: HW
LayerCount: 2
Fore
SplineSet
528 360 m 0
 528 324.666666667 521.666666667 288.666666667 509 252 c 0
 505 242 500 231.333333333 494 220 c 128
 488 208.666666667 481.5 198.166666667 474.5 188.5 c 128
 467.5 178.833333333 460.166666667 170.833333333 452.5 164.5 c 128
 444.833333333 158.166666667 437.333333333 155 430 155 c 256
 422.666666667 155 416.166666667 158.166666667 410.5 164.5 c 128
 404.833333333 170.833333333 402 177.666666667 402 185 c 0
 402 191.666666667 405.5 198.333333333 412.5 205 c 128
 419.5 211.666666667 425.666666667 218 431 224 c 0
 457.666666667 255.333333333 471 300.333333333 471 359 c 256
 471 417.666666667 457.333333333 465.333333333 430 502 c 0
 430 502.666666667 428.666666667 504.333333333 426 507 c 128
 423.333333333 509.666666667 420.166666667 513 416.5 517 c 128
 412.833333333 521 409.666666667 525 407 529 c 128
 404.333333333 533 403 536.666666667 403 540 c 0
 403 547.333333333 406 554.166666667 412 560.5 c 128
 418 566.833333333 424.666666667 570 432 570 c 0
 437.333333333 570 443.333333333 567.333333333 450 562 c 0
 461.333333333 552 471.833333333 539.333333333 481.5 524 c 128
 491.166666667 508.666666667 499.5 492 506.5 474 c 128
 513.5 456 518.833333333 437.166666667 522.5 417.5 c 128
 526.166666667 397.833333333 528 378.666666667 528 360 c 0
657 357 m 0
 657 329 654.166666667 301.166666667 648.5 273.5 c 128
 642.833333333 245.833333333 635 219.666666667 625 195 c 128
 615 170.333333333 602.833333333 147.666666667 588.5 127 c 128
 574.166666667 106.333333333 558.333333333 89 541 75 c 0
 535.666666667 70.3333333333 529.666666667 68 523 68 c 0
 515.666666667 68 509.333333333 71 504 77 c 128
 498.666666667 83 496 90 496 98 c 0
 496 105.333333333 499.333333333 112 506 118 c 128
 512.666666667 124 522 133 534 145 c 0
 578.666666667 197.666666667 601 268.333333333 601 357 c 0
 601 444.333333333 579 517.666666667 535 577 c 0
 534.333333333 577.666666667 531.166666667 581 525.5 587 c 128
 519.833333333 593 513.666666667 600.166666667 507 608.5 c 128
 500.333333333 616.833333333 497 623 497 627 c 0
 497 634.333333333 499.833333333 640.833333333 505.5 646.5 c 128
 511.166666667 652.166666667 517.666666667 655 525 655 c 0
 531 655 537.666666667 652.333333333 545 647 c 0
 561.666666667 631.666666667 576.833333333 613 590.5 591 c 128
 604.166666667 569 616 545.166666667 626 519.5 c 128
 636 493.833333333 643.666666667 467 649 439 c 128
 654.333333333 411 657 383.666666667 657 357 c 0
304 98 m 1
 128 271 l 1
 35 271 l 1
 35 454 l 1
 128 454 l 1
 304 629 l 1
 304 98 l 1
EndSplineSet
EndChar

StartChar: uniE06D
Encoding: 57453 57453 3
Width: 466
Flags: HW
LayerCount: 2
Fore
SplineSet
431 415 m 1
 431 307 l 1
 404 307 l 1
 404 284 l 2
 404 261.333333333 400 240 392 220 c 128
 384 200 373.166666667 182 359.5 166 c 128
 345.833333333 150 329.833333333 137 311.5 127 c 128
 293.166666667 117 273.333333333 110.666666667 252 108 c 1
 252 50 l 1
 263.333333333 50 274 48.3333333333 284 45 c 128
 294 41.6666666667 302.833333333 37.8333333333 310.5 33.5 c 128
 318.166666667 29.1666666667 324.166666667 24.8333333333 328.5 20.5 c 128
 332.833333333 16.1666666667 335 12.6666666667 335 10 c 2
 335 0 l 1
 131 0 l 1
 131 10 l 2
 131 12.6666666667 133.166666667 16.1666666667 137.5 20.5 c 128
 141.833333333 24.8333333333 147.833333333 29.1666666667 155.5 33.5 c 128
 163.166666667 37.8333333333 172 41.6666666667 182 45 c 128
 192 48.3333333333 202.666666667 50 214 50 c 1
 214 108 l 1
 192.666666667 110.666666667 172.833333333 117 154.5 127 c 128
 136.166666667 137 120.166666667 150 106.5 166 c 128
 92.8333333333 182 82 200 74 220 c 128
 66 240 62 261.333333333 62 284 c 2
 62 307 l 1
 35 307 l 1
 35 415 l 1
 100 415 l 1
 100 284 l 2
 100 264.666666667 103.5 246.666666667 110.5 230 c 128
 117.5 213.333333333 127 198.666666667 139 186 c 128
 151 173.333333333 165.166666667 163.5 181.5 156.5 c 128
 197.833333333 149.5 215 146 233 146 c 256
 251 146 268.166666667 149.5 284.5 156.5 c 128
 300.833333333 163.5 315 173.333333333 327 186 c 128
 339 198.666666667 348.5 213.333333333 355.5 230 c 128
 362.5 246.666666667 366 264.666666667 366 284 c 2
 366 415 l 1
 431 415 l 1
328 284 m 2
 328 270 325.5 257 320.5 245 c 128
 315.5 233 308.666666667 222.5 300 213.5 c 128
 291.333333333 204.5 281.166666667 197.333333333 269.5 192 c 128
 257.833333333 186.666666667 245.666666667 184 233 184 c 0
 219.666666667 184 207.333333333 186.666666667 196 192 c 128
 184.666666667 197.333333333 174.666666667 204.5 166 213.5 c 128
 157.333333333 222.5 150.5 233 145.5 245 c 128
 140.5 257 138 270 138 284 c 2
 138 525 l 2
 138 539 140.5 552 145.5 564 c 128
 150.5 576 157.333333333 586.5 166 595.5 c 128
 174.666666667 604.5 184.666666667 611.666666667 196 617 c 128
 207.333333333 622.333333333 219.666666667 625 233 625 c 0
 245.666666667 625 257.833333333 622.333333333 269.5 617 c 128
 281.166666667 611.666666667 291.333333333 604.5 300 595.5 c 128
 308.666666667 586.5 315.5 576 320.5 564 c 128
 325.5 552 328 539 328 525 c 2
 328 284 l 2
EndSplineSet
EndChar

StartChar: uniE06E
Encoding: 57454 57454 4
Width: 730
Flags: HW
LayerCount: 2
Fore
SplineSet
695 333 m 2
 694.333333333 333 693.833333333 333.166666667 693.5 333.5 c 128
 693 334 693 334 693 334 c 1
 695 333 l 2
379 655 m 1
 417 655 454.666666667 645.333333333 492 626 c 128
 529.333333333 606.666666667 562.833333333 581.666666667 592.5 551 c 128
 622.166666667 520.333333333 646.333333333 485.833333333 665 447.5 c 128
 683.666666667 409.166666667 693 371.333333333 693 334 c 1
 661 358.666666667 632.333333333 371 607 371 c 0
 579 371 551.333333333 358.666666667 524 334 c 1
 522 334 l 1
 512.666666667 344 501.333333333 352.666666667 488 360 c 128
 474.666666667 367.333333333 459.333333333 371 442 371 c 0
 434 371 425.5 369.333333333 416.5 366 c 128
 407.5 362.666666667 398.333333333 360 389 358 c 1
 389 82 l 2
 389 55.3333333333 379.666666667 32.6666666667 361 14 c 128
 342.333333333 -4.66666666667 319.666666667 -14 293 -14 c 0
 265 -14 242 -4 224 16 c 128
 206 36 197 60.3333333333 197 89 c 0
 197 104.333333333 204.333333333 112 219 112 c 0
 228.333333333 112 234.5 108 237.5 100 c 128
 240.5 92 243.5 83.1666666667 246.5 73.5 c 128
 249.5 63.8333333333 254 55 260 47 c 128
 266 39 276 35 290 35 c 0
 303.333333333 35 315.166666667 40.6666666667 325.5 52 c 128
 335.833333333 63.3333333333 341 75.6666666667 341 89 c 2
 341 357 l 1
 331 358.333333333 321.666666667 361 313 365 c 128
 304.333333333 369 296.333333333 371 289 371 c 0
 279 371 270.166666667 369.666666667 262.5 367 c 128
 254.833333333 364.333333333 248 361 242 357 c 128
 236 353 230.333333333 348.833333333 225 344.5 c 128
 219.666666667 340.166666667 214 336.333333333 208 333 c 1
 176.666666667 358.333333333 147.666666667 371 121 371 c 256
 94.3333333333 371 66.3333333333 358.333333333 37 333 c 1
 35 334 l 1
 35 372 44.3333333333 410 63 448 c 128
 81.6666666667 486 106 520.5 136 551.5 c 128
 166 582.5 199.833333333 607.666666667 237.5 627 c 128
 275.166666667 646.333333333 313 656 351 656 c 1
 351 686 l 1
 379 686 l 1
 379 655 l 1
EndSplineSet
EndChar

StartChar: uniE06F
Encoding: 57455 57455 5
Width: 991
Flags: HW
LayerCount: 2
Fore
SplineSet
274 134 m 1
 274 218 l 1
 365 218 l 1
 365 134 l 1
 274 134 l 1
625 132 m 1
 625 216 l 1
 716 216 l 1
 716 132 l 1
 625 132 l 1
450 352 m 1
 450 436 l 1
 541 436 l 1
 541 352 l 1
 450 352 l 1
761 274 m 1
 495 540 l 1
 230 274 l 1
 230 44 l 1
 450 44 l 1
 450 220 l 1
 541 220 l 1
 541 44 l 1
 761 44 l 1
 761 274 l 1
317 655 m 1
 276 655 l 1
 276 517 l 1
 317 557 l 1
 317 655 l 1
495 674 m 1
 97 276 l 1
 133 240 l 1
 495 602 l 1
 858 240 l 1
 894 276 l 1
 495 674 l 1
858 178 m 1
 805 230 l 1
 805 0 l 1
 186 0 l 1
 186 231 l 1
 133 178 l 1
 35 276 l 1
 232 473 l 1
 232 699 l 1
 361 699 l 1
 361 601 l 1
 495 736 l 1
 956 276 l 1
 858 178 l 1
EndSplineSet
EndChar

StartChar: uniE070
Encoding: 57456 57456 6
Width: 824
Flags: HW
LayerCount: 2
Fore
SplineSet
662 360 m 1
 600 422 l 1
 412 235 l 1
 225 422 l 1
 163 360 l 1
 412 110 l 1
 662 360 l 1
715 363 m 256
 715 405 707 444.333333333 691 481 c 128
 675 517.666666667 653.333333333 549.666666667 626 577 c 128
 598.666666667 604.333333333 566.666666667 626 530 642 c 128
 493.333333333 658 454 666 412 666 c 256
 370 666 330.666666667 658 294 642 c 128
 257.333333333 626 225.333333333 604.333333333 198 577 c 128
 170.666666667 549.666666667 149 517.666666667 133 481 c 128
 117 444.333333333 109 405 109 363 c 256
 109 321 117 281.666666667 133 245 c 128
 149 208.333333333 170.666666667 176.333333333 198 149 c 128
 225.333333333 121.666666667 257.333333333 100 294 84 c 128
 330.666666667 68 370 60 412 60 c 256
 454 60 493.333333333 68 530 84 c 128
 566.666666667 100 598.666666667 121.666666667 626 149 c 128
 653.333333333 176.333333333 675 208.333333333 691 245 c 128
 707 281.666666667 715 321 715 363 c 256
789 363 m 256
 789 311 779.166666667 262.166666667 759.5 216.5 c 128
 739.833333333 170.833333333 712.833333333 130.833333333 678.5 96.5 c 128
 644.166666667 62.1666666667 604.166666667 35.1666666667 558.5 15.5 c 128
 512.833333333 -4.16666666667 464 -14 412 -14 c 256
 360 -14 311.166666667 -4.16666666667 265.5 15.5 c 128
 219.833333333 35.1666666667 179.833333333 62.1666666667 145.5 96.5 c 128
 111.166666667 130.833333333 84.1666666667 170.833333333 64.5 216.5 c 128
 44.8333333333 262.166666667 35 311 35 363 c 256
 35 415 44.8333333333 463.833333333 64.5 509.5 c 128
 84.1666666667 555.166666667 111.166666667 595.166666667 145.5 629.5 c 128
 179.833333333 663.833333333 219.833333333 690.833333333 265.5 710.5 c 128
 311.166666667 730.166666667 360 740 412 740 c 256
 464 740 512.833333333 730.166666667 558.5 710.5 c 128
 604.166666667 690.833333333 644.166666667 663.833333333 678.5 629.5 c 128
 712.833333333 595.166666667 739.833333333 555.166666667 759.5 509.5 c 128
 779.166666667 463.833333333 789 415 789 363 c 256
EndSplineSet
EndChar

StartChar: uniE071
Encoding: 57457 57457 7
Width: 788
Flags: HW
LayerCount: 2
Fore
SplineSet
753 335 m 256
 753 286.333333333 743.5 240.333333333 724.5 197 c 128
 705.5 153.666666667 679.666666667 115.666666667 647 83 c 128
 614.333333333 50.3333333333 576.166666667 24.5 532.5 5.5 c 128
 488.833333333 -13.5 442.666666667 -23 394 -23 c 0
 344.666666667 -23 298.333333333 -13.6666666667 255 5 c 128
 211.666666667 23.6666666667 173.666666667 49.3333333333 141 82 c 128
 108.333333333 114.666666667 82.5 152.666666667 63.5 196 c 128
 44.5 239.333333333 35 285.666666667 35 335 c 256
 35 384.333333333 44.5 430.833333333 63.5 474.5 c 128
 82.5 518.166666667 108.166666667 556.166666667 140.5 588.5 c 128
 172.833333333 620.833333333 210.833333333 646.5 254.5 665.5 c 128
 298.166666667 684.5 344.666666667 694 394 694 c 2
 396 694 l 2
 444.666666667 694 490.666666667 684.5 534 665.5 c 128
 577.333333333 646.5 615.333333333 620.666666667 648 588 c 128
 680.666666667 555.333333333 706.333333333 517.166666667 725 473.5 c 128
 743.666666667 429.833333333 753 383.666666667 753 335 c 256
728 342 m 0
 728 387.333333333 719 429.833333333 701 469.5 c 128
 683 509.166666667 658.666666667 543.833333333 628 573.5 c 128
 597.333333333 603.166666667 561.833333333 626.666666667 521.5 644 c 128
 481.166666667 661.333333333 438.666666667 670 394 670 c 0
 346.666666667 670 303 661.5 263 644.5 c 128
 223 627.5 188.5 604 159.5 574 c 128
 130.5 544 107.333333333 508.666666667 90 468 c 128
 72.6666666667 427.333333333 62.6666666667 383 60 335 c 1
 72 446.333333333 127.666666667 502 227 502 c 0
 249 502 270 497.833333333 290 489.5 c 128
 310 481.166666667 327.666666667 469.833333333 343 455.5 c 128
 358.333333333 441.166666667 370.666666667 424.166666667 380 404.5 c 128
 389.333333333 384.833333333 394 364 394 342 c 2
 394 329 l 2
 394 309.666666667 398 290.5 406 271.5 c 128
 414 252.5 425.333333333 235.333333333 440 220 c 128
 454.666666667 204.666666667 472.333333333 192.333333333 493 183 c 128
 513.666666667 173.666666667 536.666666667 169 562 169 c 0
 586 169 608.166666667 173.5 628.5 182.5 c 128
 648.833333333 191.5 666.333333333 203.833333333 681 219.5 c 128
 695.666666667 235.166666667 707.166666667 253.5 715.5 274.5 c 128
 723.833333333 295.5 728 318 728 342 c 0
274 335 m 0
 274 367 257.333333333 383 224 383 c 0
 212 383 201.5 378.166666667 192.5 368.5 c 128
 183.5 358.833333333 179 347.666666667 179 335 c 256
 179 322.333333333 183.833333333 311.333333333 193.5 302 c 128
 203.166666667 292.666666667 214.333333333 288 227 288 c 0
 240.333333333 288 251.5 292.5 260.5 301.5 c 128
 269.5 310.5 274 321.666666667 274 335 c 0
610 335 m 256
 610 323 605 312.166666667 595 302.5 c 128
 585 292.833333333 574 288 562 288 c 0
 548 288 536.5 292.666666667 527.5 302 c 128
 518.5 311.333333333 514 323 514 337 c 256
 514 351 518.833333333 362.166666667 528.5 370.5 c 128
 538.166666667 378.833333333 550 383 564 383 c 0
 576 383 586.666666667 378 596 368 c 128
 605.333333333 358 610 347 610 335 c 256
EndSplineSet
EndChar

StartChar: uniE072
Encoding: 57458 57458 8
Width: 790
Flags: HW
LayerCount: 2
Fore
SplineSet
70 346 m 1
 70 255.333333333 101.333333333 178.666666667 164 116 c 0
 227.333333333 52.6666666667 304 21 394 21 c 1
 394 346 l 1
 70 346 l 1
720 346 m 1
 720 435.333333333 688 511.666666667 624 575 c 0
 560.666666667 638.333333333 484 670 394 670 c 1
 394 346 l 1
 720 346 l 1
755 346 m 0
 755 246 719.666666667 161 649 91 c 0
 579 21 494 -14 394 -14 c 0
 294.666666667 -14 210 21 140 91 c 0
 70 161.666666667 35 246.666666667 35 346 c 0
 35 444 70 528.666666667 140 600 c 0
 210.666666667 670.666666667 295.333333333 706 394 706 c 0
 493.333333333 706 578.333333333 670.666666667 649 600 c 0
 719.666666667 530 755 445.333333333 755 346 c 0
EndSplineSet
EndChar

StartChar: uniE073
Encoding: 57459 57459 9
Width: 872
Flags: HW
LayerCount: 2
Fore
SplineSet
722 659 m 1
 643 485 l 1
 450 503 l 1
 503 534 l 1
 436 650 l 2
 422.666666667 672.666666667 404.5 691.666666667 381.5 707 c 128
 358.5 722.333333333 334.333333333 730.333333333 309 731 c 1
 325 733 345.666666667 734 371 734 c 2
 504 734 l 2
 545.333333333 734 573 731.666666667 587 727 c 0
 602.333333333 723 615 713 625 697 c 0
 635 679 635 679 645 661 c 128
 651.666666667 649 658.333333333 637.333333333 665 626 c 1
 722 659 l 1
837 306 m 0
 837 277.333333333 822 251.666666667 792 229 c 0
 765.333333333 207.666666667 737 196.333333333 707 195 c 1
 578 397 l 1
 743 495 l 1
 805.666666667 386.333333333 837 323.333333333 837 306 c 0
438 627 m 0
 438 624.333333333 395.333333333 561.666666667 310 439 c 1
 148 530 l 1
 161.333333333 552.666666667 174 574 186 594 c 128
 198 614 209.666666667 632.666666667 221 650 c 0
 226 658 226 658 233.5 670 c 128
 238.5 678 244.666666667 687.333333333 252 698 c 0
 264 713.333333333 280.333333333 721 301 721 c 0
 350.333333333 721 392.666666667 695 428 643 c 0
 434.666666667 633.666666667 438 628.333333333 438 627 c 0
836 260 m 1
 832 246.666666667 825 231.666666667 815 215 c 0
 807.666666667 201.666666667 802 191.5 798 184.5 c 128
 794 177.5 791.666666667 173.333333333 791 172 c 0
 782.333333333 154.666666667 774 137.666666667 766 121 c 128
 758 104.333333333 749.666666667 87.6666666667 741 71 c 0
 713.666666667 24.3333333333 688.666666667 0.666666666667 666 0 c 2
 571 0 l 1
 571 -66 l 1
 473 92 l 1
 571 248 l 1
 571 185 l 1
 712 185 l 2
 736 185 759.5 192.166666667 782.5 206.5 c 128
 805.5 220.833333333 823.333333333 238.666666667 836 260 c 1
306 276 m 1
 253 307 l 1
 221.666666667 275.666666667 206 253.666666667 206 241 c 0
 206 227.666666667 213.666666667 218.333333333 229 213 c 1
 173 213 l 2
 141 213 113.666666667 220.666666667 91 236 c 0
 66.3333333333 252.666666667 54 277.333333333 54 310 c 0
 54 348.666666667 66.6666666667 379 92 401 c 1
 35 435 l 1
 223 440 l 1
 306 276 l 1
423 0 m 1
 215 0 l 2
 201 0 184.333333333 16.6666666667 165 50 c 0
 162.333333333 53.3333333333 158 61 152 73 c 128
 146 85 138.333333333 100.666666667 129 120 c 0
 125 128 117 142.666666667 105 164 c 128
 93 185.333333333 77.3333333333 214 58 250 c 1
 74 217.333333333 111 201 169 201 c 2
 423 201 l 1
 423 0 l 1
EndSplineSet
EndChar

StartChar: uniE074
Encoding: 57460 57460 10
Width: 558
Flags: HW
LayerCount: 2
Fore
SplineSet
235 135 m 1
 235 0 l 1
 285 0 l 1
 285 135 l 1
 460 135 l 1
 460 175 l 1
 290 175 l 1
 290 280 l 2
 290 281.333333333 295.166666667 284.166666667 305.5 288.5 c 128
 315.833333333 292.833333333 328.833333333 299 344.5 307 c 128
 360.166666667 315 377.166666667 325.166666667 395.5 337.5 c 128
 413.833333333 349.833333333 430.833333333 365.166666667 446.5 383.5 c 128
 462.166666667 401.833333333 475.166666667 423.5 485.5 448.5 c 128
 495.833333333 473.5 501 502.333333333 501 535 c 0
 501 571 495.166666667 604.666666667 483.5 636 c 128
 471.833333333 667.333333333 455.166666667 694.5 433.5 717.5 c 128
 411.833333333 740.5 385.666666667 758.5 355 771.5 c 128
 324.333333333 784.5 290.333333333 791 253 791 c 0
 218.333333333 791 186.166666667 784.666666667 156.5 772 c 128
 126.833333333 759.333333333 101 741.833333333 79 719.5 c 128
 57 697.166666667 39.8333333333 670.833333333 27.5 640.5 c 128
 15.1666666667 610.166666667 9 577.666666667 9 543 c 0
 9 509.666666667 13.8333333333 480 23.5 454 c 128
 33.1666666667 428 46.8333333333 404.833333333 64.5 384.5 c 128
 82.1666666667 364.166666667 103.333333333 346.333333333 128 331 c 128
 152.666666667 315.666666667 180 302 210 290 c 0
 213.333333333 288.666666667 217.5 286.833333333 222.5 284.5 c 128
 227.5 282.166666667 230 280.666666667 230 280 c 2
 230 175 l 1
 70 175 l 1
 70 135 l 1
 235 135 l 1
39 545 m 0
 39 575 44.5 602.666666667 55.5 628 c 128
 66.5 653.333333333 81.6666666667 675 101 693 c 128
 120.333333333 711 142.666666667 725.166666667 168 735.5 c 128
 193.333333333 745.833333333 220.666666667 751 250 751 c 0
 280.666666667 751 308.833333333 745.666666667 334.5 735 c 128
 360.166666667 724.333333333 382.333333333 709.666666667 401 691 c 128
 419.666666667 672.333333333 434.333333333 650.166666667 445 624.5 c 128
 455.666666667 598.833333333 461 570.666666667 461 540 c 0
 461 510 455.833333333 482.166666667 445.5 456.5 c 128
 435.166666667 430.833333333 420.833333333 408.5 402.5 389.5 c 128
 384.166666667 370.5 362.166666667 355.666666667 336.5 345 c 128
 310.833333333 334.333333333 282.666666667 329 252 329 c 0
 222 329 194 334.5 168 345.5 c 128
 142 356.5 119.5 371.666666667 100.5 391 c 128
 81.5 410.333333333 66.5 433.166666667 55.5 459.5 c 128
 44.5 485.833333333 39 514.333333333 39 545 c 0
EndSplineSet
EndChar

StartChar: uniE075
Encoding: 57461 57461 11
Width: 875
Flags: HW
LayerCount: 2
Fore
SplineSet
392 670 m 1
 790 271 l 1
 707 173 l 1
 687 193 l 1
 697.666666667 222.333333333 703 246.666666667 703 266 c 0
 703 298 688 329 658 359 c 2
 599 418 l 1
 325 145 l 2
 299 119 286 96.3333333333 286 77 c 0
 286 58.3333333333 294.666666667 41.6666666667 312 27 c 2
 319 21 l 1
 298 0 l 1
 120 179 l 1
 140 199 l 1
 150 190 l 2
 168.666666667 173.333333333 185 165 199 165 c 0
 218.333333333 165 240.666666667 177.666666667 266 203 c 2
 540 477 l 1
 479 537 l 2
 455.666666667 559.666666667 436.666666667 573 422 577 c 0
 394.666666667 584.333333333 361 581.333333333 321 568 c 2
 315 566 l 1
 296 585 l 1
 392 670 l 1
EndSplineSet
EndChar

StartChar: uniE076
Encoding: 57462 57462 12
Width: 502
Flags: HW
LayerCount: 2
Fore
SplineSet
-1 0 m 1
 499 0 l 1
 499 500 l 1
 -1 500 l 1
 -1 0 l 1
9 10 m 1
 9 490 l 1
 489 490 l 1
 489 10 l 1
 9 10 l 1
EndSplineSet
EndChar

StartChar: uniE077
Encoding: 57463 57463 13
Width: 1000
Flags: HW
LayerCount: 2
Fore
SplineSet
675 669 m 1
 689 669 705.333333333 667.666666667 724 665 c 0
 734 664.333333333 742.5 661 749.5 655 c 128
 756.5 649 760 642.666666667 760 636 c 0
 760 626.666666667 754 620.666666667 742 618 c 0
 723.333333333 613.333333333 714 606.333333333 714 597 c 0
 714 591 718.166666667 585.5 726.5 580.5 c 128
 734.833333333 575.5 745 572.333333333 757 571 c 0
 760.333333333 571 762.666666667 566.833333333 764 558.5 c 128
 765.333333333 550.166666667 766 539.666666667 766 527 c 0
 766 520.333333333 765.666666667 512.666666667 765 504 c 0
 765 499 765 499 765 497 c 2
 798 497 l 2
 798 500 798 500 798 510 c 0
 798.666666667 518.666666667 799 525.666666667 799 531 c 0
 799 547 797.5 560.333333333 794.5 571 c 128
 791.5 581.666666667 786 588 778 590 c 0
 776.666666667 590.666666667 773.333333333 591 768 591 c 0
 761.333333333 591 756.166666667 591.5 752.5 592.5 c 128
 748.833333333 593.5 747 595.666666667 747 599 c 0
 747 600.333333333 750 602.333333333 756 605 c 0
 763.333333333 608.333333333 769.333333333 612 774 616 c 128
 778.666666667 620 781 625.333333333 781 632 c 0
 781 644.666666667 775.5 655 764.5 663 c 128
 753.5 671 740 675 724 675 c 0
 714.666666667 675 701.333333333 673.666666667 684 671 c 0
 679.333333333 669.666666667 676.333333333 669 675 669 c 1
730 497 m 1
 730 541 l 2
 730 555 723.166666667 564.833333333 709.5 570.5 c 128
 695.833333333 576.166666667 679.333333333 579 660 579 c 0
 646.666666667 579 637.833333333 579.833333333 633.5 581.5 c 128
 629.166666667 583.166666667 627 586 627 590 c 0
 627.666666667 594.666666667 629.666666667 598.166666667 633 600.5 c 128
 636.333333333 602.833333333 641 605 647 607 c 0
 653 609.666666667 657.666666667 612.166666667 661 614.5 c 128
 664.333333333 616.833333333 666 620.666666667 666 626 c 0
 666 633.333333333 662.5 638.333333333 655.5 641 c 128
 648.5 643.666666667 638 645.666666667 624 647 c 0
 614 647.666666667 606.5 648.666666667 601.5 650 c 128
 596.5 651.333333333 594 654 594 658 c 256
 594 662 598.833333333 667 608.5 673 c 128
 618.166666667 679 625.333333333 682.666666667 630 684 c 1
 616.666666667 683.333333333 604.333333333 680.5 593 675.5 c 128
 581.666666667 670.5 576 662.666666667 576 652 c 0
 576 645.333333333 580.333333333 640.5 589 637.5 c 128
 597.666666667 634.5 609.333333333 632.333333333 624 631 c 0
 639.333333333 629 647 626.666666667 647 624 c 0
 647 622 641 617.333333333 629 610 c 0
 619 603.333333333 611.333333333 597.833333333 606 593.5 c 128
 600.666666667 589.166666667 598 585 598 581 c 0
 598 571.666666667 605.166666667 565.166666667 619.5 561.5 c 128
 633.833333333 557.833333333 651 556 671 556 c 0
 681 556 687.833333333 553.166666667 691.5 547.5 c 128
 695.166666667 541.833333333 697 534 697 524 c 0
 697 518 697 518 697 510 c 0
 696.333333333 502 696 497.666666667 696 497 c 2
 730 497 l 1
739 472 m 1
 739 394 l 1
 757 394 l 1
 757 472 l 1
 739 472 l 1
781 472 m 1
 781 394 l 1
 798 394 l 1
 798 472 l 1
 781 472 l 1
714 472 m 1
 696 472 l 1
 696 394 l 1
 714 394 l 1
 714 472 l 1
950 475 m 256
 950 538.333333333 937.833333333 598.833333333 913.5 656.5 c 128
 889.166666667 714.166666667 855 765 811 809 c 128
 767 853 716.166666667 887.5 658.5 912.5 c 128
 600.833333333 937.5 539.666666667 950 475 950 c 256
 410.333333333 950 349 938 291 914 c 128
 233 890 182.166666667 856.166666667 138.5 812.5 c 128
 94.8333333333 768.833333333 60.8333333333 718 36.5 660 c 128
 12.1666666667 602 0 540.333333333 0 475 c 0
 0 409 11.8333333333 347.166666667 35.5 289.5 c 128
 59.1666666667 231.833333333 92.6666666667 181.166666667 136 137.5 c 128
 179.333333333 93.8333333333 230 60 288 36 c 128
 346 12 408.333333333 0 475 0 c 0
 541 0 603 12.5 661 37.5 c 128
 719 62.5 769.666666667 97 813 141 c 128
 856.333333333 185 890 235.833333333 914 293.5 c 128
 938 351.166666667 950 411.666666667 950 475 c 256
496 472 m 1
 200 769 l 1
 239.333333333 803.666666667 283 830.5 331 849.5 c 128
 379 868.5 427 878 475 878 c 256
 523 878 570.833333333 868.333333333 618.5 849 c 128
 666.166666667 829.666666667 709.666666667 802.166666667 749 766.5 c 128
 788.333333333 730.833333333 819.666666667 688 843 638 c 128
 866.333333333 588 878 533.666666667 878 475 c 0
 878 424.333333333 868.666666667 375.166666667 850 327.5 c 128
 831.333333333 279.833333333 804.666666667 237.333333333 770 200 c 1
 574 394 l 1
 670 394 l 1
 670 472 l 1
 496 472 l 1
72 475 m 0
 72 514.333333333 77.8333333333 551.833333333 89.5 587.5 c 128
 101.166666667 623.166666667 118 659.666666667 140 697 c 1
 362 472 l 1
 163 472 l 1
 163 394 l 1
 440 394 l 1
 700 141 l 1
 672 119.666666667 637.666666667 102.833333333 597 90.5 c 128
 556.333333333 78.1666666667 515.666666667 72 475 72 c 0
 417.666666667 72 364 83.1666666667 314 105.5 c 128
 264 127.833333333 221 158.166666667 185 196.5 c 128
 149 234.833333333 121.166666667 278.166666667 101.5 326.5 c 128
 81.8333333333 374.833333333 72 424.333333333 72 475 c 0
EndSplineSet
EndChar

StartChar: uniE078
Encoding: 57464 57464 14
Width: 1000
Flags: HW
LayerCount: 2
Fore
SplineSet
950 475 m 0
 950 539.666666667 937.5 601.166666667 912.5 659.5 c 128
 887.5 717.833333333 853.166666667 768.666666667 809.5 812 c 128
 765.833333333 855.333333333 715.166666667 889.166666667 657.5 913.5 c 128
 599.833333333 937.833333333 539 950 475 950 c 256
 411 950 350.166666667 938 292.5 914 c 128
 234.833333333 890 184 856.333333333 140 813 c 128
 96 769.666666667 61.6666666667 719 37 661 c 128
 12.3333333333 603 0 541 0 475 c 0
 0 409.666666667 12.1666666667 347.833333333 36.5 289.5 c 128
 60.8333333333 231.166666667 95 180.333333333 139 137 c 128
 183 93.6666666667 233.833333333 60 291.5 36 c 128
 349.166666667 12 410.333333333 0 475 0 c 0
 539 0 600 12.1666666667 658 36.5 c 128
 716 60.8333333333 766.833333333 94.6666666667 810.5 138 c 128
 854.166666667 181.333333333 888.333333333 232 913 290 c 128
 937.666666667 348 950 409.666666667 950 475 c 0
378 455 m 1
 158 455 l 1
 158 412 l 1
 422 412 l 1
 693 141 l 1
 660.333333333 119 625.166666667 102 587.5 90 c 128
 549.833333333 78 512.333333333 72 475 72 c 0
 417 72 363.166666667 83 313.5 105 c 128
 263.833333333 127 221 157.166666667 185 195.5 c 128
 149 233.833333333 121.166666667 277.166666667 101.5 325.5 c 128
 81.8333333333 373.833333333 72 423.666666667 72 475 c 0
 72.6666666667 515 78.8333333333 552.5 90.5 587.5 c 128
 102.166666667 622.5 118.666666667 658.333333333 140 695 c 1
 378 455 l 1
513 455 m 1
 202 767 l 1
 239.333333333 803 281.833333333 830.5 329.5 849.5 c 128
 377.166666667 868.5 425.666666667 878 475 878 c 0
 535.666666667 878 591.166666667 866 641.5 842 c 128
 691.833333333 818 734.666666667 786 770 746 c 128
 805.333333333 706 832.166666667 662.166666667 850.5 614.5 c 128
 868.833333333 566.833333333 878 520.333333333 878 475 c 0
 878 425.666666667 868.333333333 377.166666667 849 329.5 c 128
 829.666666667 281.833333333 802 238.666666667 766 200 c 1
 557 412 l 1
 702 412 l 1
 718.666666667 402.666666667 735.666666667 398 753 398 c 0
 766.333333333 398 777 401.166666667 785 407.5 c 128
 793 413.833333333 797 423.333333333 797 436 c 0
 795 460 782.666666667 472 760 472 c 0
 744 472 724.666666667 466.333333333 702 455 c 1
 513 455 l 1
783 667 m 1
 762.333333333 650.333333333 749 632.166666667 743 612.5 c 128
 737 592.833333333 734 568.333333333 734 539 c 0
 734 526.333333333 736 516.333333333 740 509 c 128
 744 501.666666667 750.666666667 498 760 498 c 0
 770 498 777 501.666666667 781 509 c 128
 785 516.333333333 787 526.333333333 787 539 c 0
 787 550.333333333 785 568.666666667 781 594 c 0
 777 616.666666667 775 632.666666667 775 642 c 0
 775 654 777.666666667 662.333333333 783 667 c 1
761 614 m 1
 761 612 762.333333333 606.333333333 765 597 c 256
 767.666666667 587.666666667 769.833333333 579.166666667 771.5 571.5 c 128
 773.166666667 563.833333333 774 556.666666667 774 550 c 0
 774 536 769.666666667 529 761 529 c 0
 751.666666667 529 747 536 747 550 c 0
 747 558 748.166666667 567.166666667 750.5 577.5 c 128
 752.833333333 587.833333333 756 598.333333333 760 609 c 0
 760 611 760.333333333 612.666666667 761 614 c 1
EndSplineSet
EndChar

StartChar: uniE079
Encoding: 57465 57465 15
Width: 883
Flags: HW
LayerCount: 2
Fore
SplineSet
535 545 m 1
 536.333333333 527.666666667 537 508 537 486 c 0
 537 472.666666667 536.666666667 459.333333333 536 446 c 0
 536 420 536 420 536 407 c 1
 500 384.333333333 460 361 416 337 c 1
 370.666666667 360.333333333 330.333333333 384 295 408 c 1
 295 546 l 1
 337 572 377.666666667 595 417 615 c 0
 419.666666667 613.666666667 426.833333333 609.666666667 438.5 603 c 128
 450.166666667 596.333333333 459 591.166666667 465 587.5 c 128
 471 583.833333333 492.666666667 570.666666667 530 548 c 2
 535 545 l 1
534 377 m 1
 533.333333333 371 533 365.333333333 533 360 c 0
 529.666666667 325.333333333 527 300.666666667 525 286 c 1
 499.666666667 296 472 308.666666667 442 324 c 1
 470.666666667 339.333333333 501.333333333 357 534 377 c 1
560 425 m 1
 560 451 560 451 560 481 c 0
 559.333333333 509 559 525.333333333 559 530 c 1
 585.666666667 512 611 494 635 476 c 1
 601.666666667 452 576.666666667 435 560 425 c 1
440 628 m 1
 464 639.333333333 492.333333333 652.333333333 525 667 c 1
 529 636.333333333 532 605.333333333 534 574 c 1
 494.666666667 598 463.333333333 616 440 628 c 1
390 628 m 1
 369.333333333 616.666666667 351.333333333 606.666666667 336 598 c 128
 320.666666667 589.333333333 307.333333333 581.333333333 296 574 c 1
 297.333333333 589.333333333 299.333333333 612 302 642 c 0
 303.333333333 654 304.333333333 662 305 666 c 1
 318.333333333 660 337.666666667 651.333333333 363 640 c 0
 379.666666667 632.666666667 388.666666667 628.666666667 390 628 c 1
297 377 m 1
 317 364.333333333 343.666666667 349 377 331 c 2
 389 324 l 1
 351.666666667 306 323.666666667 293.333333333 305 286 c 1
 301 322.666666667 298.333333333 353 297 377 c 1
270 423 m 1
 245.333333333 440.333333333 228.333333333 452.333333333 219 459 c 128
 209.666666667 465.666666667 202 471.666666667 196 477 c 1
 219.333333333 494.333333333 244.333333333 512.333333333 271 531 c 1
 270.333333333 507 270 471 270 423 c 1
415 521 m 0
 401.666666667 521 390.833333333 516 382.5 506 c 128
 374.166666667 496 370 486 370 476 c 0
 370 463.333333333 374.5 452.666666667 383.5 444 c 128
 392.5 435.333333333 403 431 415 431 c 0
 427.666666667 431 438.333333333 435.333333333 447 444 c 128
 455.666666667 452.666666667 460 463.333333333 460 476 c 256
 460 488.666666667 455.666666667 499.333333333 447 508 c 128
 438.333333333 516.666666667 427.666666667 521 415 521 c 0
678 477 m 1
 737.333333333 527.666666667 778.833333333 568.666666667 802.5 600 c 128
 826.166666667 631.333333333 838 659.666666667 838 685 c 0
 838 707.666666667 830.333333333 724 815 734 c 128
 799.666666667 744 778.666666667 749 752 749 c 0
 735.333333333 749 717 747.333333333 697 744 c 128
 677 740.666666667 658.166666667 736.5 640.5 731.5 c 128
 622.833333333 726.5 606 721.333333333 590 716 c 128
 574 710.666666667 560.333333333 706 549 702 c 1
 544.333333333 727.333333333 539 752.833333333 533 778.5 c 128
 527 804.166666667 518.833333333 830.166666667 508.5 856.5 c 128
 498.166666667 882.833333333 485.333333333 905 470 923 c 128
 454.666666667 941 437.333333333 950 418 950 c 0
 398 950 380.333333333 940.833333333 365 922.5 c 128
 349.666666667 904.166666667 337 881.333333333 327 854 c 128
 317 826.666666667 309.333333333 800.333333333 304 775 c 128
 298.666666667 749.666666667 294 725 290 701 c 1
 288.666666667 701.666666667 287 702.333333333 285 703 c 0
 267.666666667 709 252.166666667 714.166666667 238.5 718.5 c 128
 224.833333333 722.833333333 209.166666667 727.5 191.5 732.5 c 128
 173.833333333 737.5 155.666666667 741.5 137 744.5 c 128
 118.333333333 747.5 101.333333333 749 86 749 c 0
 60.6666666667 749 40 744.333333333 24 735 c 128
 8 725.666666667 0 710.666666667 0 690 c 0
 0 670.666666667 5.5 650.833333333 16.5 630.5 c 128
 27.5 610.166666667 41.5 590.5 58.5 571.5 c 128
 75.5 552.5 92 535.833333333 108 521.5 c 128
 124 507.166666667 141.333333333 492.666666667 160 478 c 1
 148 468 l 2
 130 451.333333333 113.666666667 436.166666667 99 422.5 c 128
 84.3333333333 408.833333333 69.3333333333 393.166666667 54 375.5 c 128
 38.6666666667 357.833333333 25.8333333333 339.833333333 15.5 321.5 c 128
 5.16666666667 303.166666667 0 286 0 270 c 0
 0 247.333333333 7.66666666667 231 23 221 c 128
 38.3333333333 211 59.3333333333 206 86 206 c 0
 103.333333333 206 121.833333333 207.666666667 141.5 211 c 128
 161.166666667 214.333333333 180.5 218.666666667 199.5 224 c 128
 218.5 229.333333333 235.666666667 234.666666667 251 240 c 128
 266.333333333 245.333333333 279.333333333 250 290 254 c 1
 293.333333333 230.666666667 297.833333333 205.833333333 303.5 179.5 c 128
 309.166666667 153.166666667 316.833333333 126.333333333 326.5 99 c 128
 336.166666667 71.6666666667 348.666666667 48.5 364 29.5 c 128
 379.333333333 10.5 397.333333333 1 418 1 c 256
 438.666666667 1 457 10.3333333333 473 29 c 128
 489 47.6666666667 502 70.6666666667 512 98 c 128
 522 125.333333333 529.833333333 151.833333333 535.5 177.5 c 128
 541.166666667 203.166666667 545.666666667 228.333333333 549 253 c 1
 559.666666667 249 572.5 244.5 587.5 239.5 c 128
 602.5 234.5 619.333333333 229.5 638 224.5 c 128
 656.666666667 219.5 676.166666667 215.166666667 696.5 211.5 c 128
 716.833333333 207.833333333 735.333333333 206 752 206 c 0
 777.333333333 206 797.666666667 210.5 813 219.5 c 128
 828.333333333 228.5 836.333333333 243.333333333 837 264 c 0
 837 283.333333333 831.666666667 303.166666667 821 323.5 c 128
 810.333333333 343.833333333 796.833333333 363.333333333 780.5 382 c 128
 764.166666667 400.666666667 747.5 417.5 730.5 432.5 c 128
 713.5 447.5 696 462.333333333 678 477 c 1
311 692 m 1
 324.333333333 768 340 826.166666667 358 866.5 c 128
 376 906.833333333 395.666666667 927 417 927 c 0
 439.666666667 927 460.5 905.666666667 479.5 863 c 128
 498.5 820.333333333 513.333333333 763.333333333 524 692 c 1
 520 690 l 1
 474 670.666666667 439.666666667 654.666666667 417 642 c 1
 377 662.666666667 341.666666667 679.333333333 311 692 c 1
656 490 m 1
 636 505.333333333 619 517.833333333 605 527.5 c 128
 591 537.166666667 575.666666667 547.333333333 559 558 c 1
 558.333333333 590.666666667 555 629.666666667 549 675 c 1
 589 691 626 703.166666667 660 711.5 c 128
 694 719.833333333 723 724 747 724 c 0
 791 724 813 710 813 682 c 0
 813 660 799.166666667 632.166666667 771.5 598.5 c 128
 743.833333333 564.833333333 705.333333333 528.666666667 656 490 c 1
656 461 m 1
 712.666666667 411 753 371.166666667 777 341.5 c 128
 801 311.833333333 813 287.666666667 813 269 c 0
 813 241 791 227 747 227 c 0
 723.666666667 227 695 231.333333333 661 240 c 128
 627 248.666666667 589.666666667 261 549 277 c 1
 555 321 558.333333333 359.666666667 559 393 c 1
 563 395 l 1
 606.333333333 423 637.333333333 445 656 461 c 1
524 262 m 1
 496.666666667 104 461 25 417 25 c 0
 394.333333333 25 373.5 46.6666666667 354.5 90 c 128
 335.5 133.333333333 321 190.666666667 311 262 c 1
 341.666666667 274.666666667 377 291.333333333 417 312 c 1
 463.666666667 288 499.333333333 271.333333333 524 262 c 1
177 492 m 1
 129 530 91.3333333333 566 64 600 c 128
 36.6666666667 634 23 661.666666667 23 683 c 0
 23 711 45 725 89 725 c 0
 112.333333333 725 140.5 720.833333333 173.5 712.5 c 128
 206.5 704.166666667 243 692 283 676 c 1
 277.666666667 624 274.333333333 585 273 559 c 1
 246.333333333 542.333333333 214.333333333 520 177 492 c 1
273 392 m 1
 276 362 l 2
 278.666666667 325.333333333 281 296.333333333 283 275 c 1
 243 259.666666667 206.5 247.833333333 173.5 239.5 c 128
 140.5 231.166666667 112.333333333 227 89 227 c 0
 45 227 23 240.666666667 23 268 c 0
 23 289.333333333 36.8333333333 317.166666667 64.5 351.5 c 128
 92.1666666667 385.833333333 129.666666667 422 177 460 c 1
 196.333333333 446 212 434.833333333 224 426.5 c 128
 236 418.166666667 252.333333333 406.666666667 273 392 c 1
EndSplineSet
EndChar

StartChar: uniE07A
Encoding: 57466 57466 16
Width: 1143
Flags: HW
LayerCount: 2
Fore
SplineSet
0 284 m 1
 0 238 l 1
 177 238 l 1
 177 106 l 1
 224 106 l 1
 224 284 l 1
 0 284 l 1
912 1088 m 0
 881.333333333 1088 856.166666667 1077.5 836.5 1056.5 c 128
 816.833333333 1035.5 807 1011 807 983 c 0
 807 954.333333333 817.333333333 929.666666667 838 909 c 128
 858.666666667 888.333333333 883.333333333 878 912 878 c 256
 940.666666667 878 965.333333333 888.333333333 986 909 c 128
 1006.66666667 929.666666667 1017 954.333333333 1017 983 c 256
 1017 1011.66666667 1006.66666667 1036.33333333 986 1057 c 128
 965.333333333 1077.66666667 940.666666667 1088 912 1088 c 0
524 891 m 1
 449 834 l 1
 455.666666667 824.666666667 462.666666667 814.333333333 470 803 c 0
 496 763.666666667 518.333333333 732.833333333 537 710.5 c 128
 555.666666667 688.166666667 574 675.333333333 592 672 c 0
 598 670.666666667 604.333333333 670 611 670 c 0
 626.333333333 670 641.333333333 673.333333333 656 680 c 128
 670.666666667 686.666666667 688.333333333 696.333333333 709 709 c 1
 654 540 l 1
 644.666666667 540.666666667 628.666666667 542 606 544 c 0
 568.666666667 547.333333333 541.333333333 549 524 549 c 0
 499.333333333 549 476.833333333 546.666666667 456.5 542 c 128
 436.166666667 537.333333333 418 529 402 517 c 2
 224 366 l 1
 289 297 l 1
 465 444 l 2
 478.333333333 455.333333333 502.666666667 461 538 461 c 0
 561.333333333 461 586.666666667 458.833333333 614 454.5 c 128
 641.333333333 450.166666667 664.333333333 445.333333333 683 440 c 1
 673 430 654.333333333 414 627 392 c 0
 587.666666667 360.666666667 557.833333333 333.166666667 537.5 309.5 c 128
 517.166666667 285.833333333 507 259.333333333 507 230 c 0
 507 227.333333333 507.333333333 225 508 223 c 0
 508 219 508 219 508 217 c 2
 549 0 l 1
 658 0 l 1
 619 214 l 2
 619 216 619 216 619 219 c 0
 618.333333333 221.666666667 618 223.333333333 618 224 c 0
 618 236.666666667 622.166666667 249.833333333 630.5 263.5 c 128
 638.833333333 277.166666667 649.833333333 290.333333333 663.5 303 c 128
 677.166666667 315.666666667 690.833333333 327.166666667 704.5 337.5 c 128
 718.166666667 347.833333333 736.333333333 361 759 377 c 0
 791 399.666666667 810.666666667 414.666666667 818 422 c 0
 826.666666667 431.333333333 836.666666667 447.666666667 848 471 c 128
 859.333333333 494.333333333 870.666666667 521 882 551 c 128
 893.333333333 581 902.833333333 607 910.5 629 c 128
 918.166666667 651 927.333333333 678 938 710 c 2
 938 710 938 710 941 718 c 1
 950.333333333 703.333333333 958.833333333 686.333333333 966.5 667 c 128
 974.166666667 647.666666667 978 631 978 617 c 0
 978 591.666666667 974.666666667 568.5 968 547.5 c 128
 961.333333333 526.5 951 501 937 471 c 0
 931 457.666666667 926 446 922 436 c 1
 1002 399 l 1
 1008 412.333333333 1017.33333333 432 1030 458 c 0
 1047.33333333 492 1060.5 521.166666667 1069.5 545.5 c 128
 1078.5 569.833333333 1083 596.666666667 1083 626 c 1
 1082 634 l 2
 1082 638 1082 638 1082 643 c 0
 1080 670.333333333 1072 698.333333333 1058 727 c 128
 1044 755.666666667 1024.33333333 790 999 830 c 0
 998.333333333 830.666666667 994.666666667 836.333333333 988 847 c 1
 962.666666667 835.666666667 937.666666667 830 913 830 c 256
 888.333333333 830 865.166666667 836.166666667 843.5 848.5 c 128
 821.833333333 860.833333333 803.333333333 880 788 906 c 1
 776 896.666666667 757.666666667 878.333333333 733 851 c 0
 711 826.333333333 692.5 807.833333333 677.5 795.5 c 128
 662.5 783.166666667 647 777 631 777 c 1
 631 777 631 777 627 778 c 0
 623 778 623 778 622 778 c 0
 604.666666667 781.333333333 589.666666667 790.666666667 577 806 c 128
 564.333333333 821.333333333 551.333333333 841.333333333 538 866 c 0
 532 878 527.333333333 886.333333333 524 891 c 1
EndSplineSet
EndChar

StartChar: uniE07B
Encoding: 57467 57467 17
Width: 1152
Flags: HW
LayerCount: 2
Fore
SplineSet
491 103 m 1
 491 46 l 1
 336 46 l 1
 336 0 l 1
 826 0 l 1
 826 46 l 1
 674 46 l 1
 674 103 l 1
 491 103 l 1
1098 772 m 256
 1098 801.333333333 1087.66666667 826.166666667 1067 846.5 c 128
 1046.33333333 866.833333333 1021.33333333 877 992 877 c 0
 963.333333333 877 938.666666667 866.666666667 918 846 c 128
 897.333333333 825.333333333 887 800.666666667 887 772 c 0
 887 742.666666667 897.333333333 717.666666667 918 697 c 128
 938.666666667 676.333333333 963.333333333 666 992 666 c 0
 1021.33333333 666 1046.33333333 676.333333333 1067 697 c 128
 1087.66666667 717.666666667 1098 742.666666667 1098 772 c 256
900 380 m 1
 885.333333333 388 873.333333333 394.666666667 864 400 c 0
 830 418 809.333333333 431 802 439 c 0
 796 445 791.666666667 451.666666667 789 459 c 128
 786.333333333 466.333333333 784.666666667 476 784 488 c 0
 784 504 790.333333333 519.5 803 534.5 c 128
 815.666666667 549.5 834.333333333 568.333333333 859 591 c 0
 887 615.666666667 905.666666667 634 915 646 c 1
 889 662 869.666666667 680.833333333 857 702.5 c 128
 844.333333333 724.166666667 838 747.333333333 838 772 c 256
 838 796.666666667 844 822 856 848 c 1
 856 848 856 848 852 851 c 0
 805.333333333 879.666666667 764.666666667 902.333333333 730 919 c 128
 695.333333333 935.666666667 662.666666667 944 632 944 c 0
 602.666666667 944 575.5 939.5 550.5 930.5 c 128
 525.5 921.5 495.666666667 908.333333333 461 891 c 0
 435 877.666666667 415.666666667 868.333333333 403 863 c 1
 440 782 l 1
 449.333333333 786 461.666666667 791.333333333 477 798 c 0
 507.666666667 811.333333333 533.166666667 821.333333333 553.5 828 c 128
 573.833333333 834.666666667 597 838.333333333 623 839 c 0
 636.333333333 839 653 835 673 827 c 128
 693 819 710.333333333 810.333333333 725 801 c 1
 703.666666667 794.333333333 678.666666667 786 650 776 c 128
 621.333333333 766 591.833333333 755.333333333 561.5 744 c 128
 531.166666667 732.666666667 503.333333333 721 478 709 c 128
 452.666666667 697 435.333333333 686.333333333 426 677 c 0
 410 659 392 638.333333333 372 615 c 0
 330 566.333333333 297.5 530.833333333 274.5 508.5 c 128
 251.5 486.166666667 232 475 216 475 c 1
 0 516 l 1
 0 405 l 1
 219 363 l 2
 221 363 221 363 225 363 c 0
 227.666666667 362.333333333 229.666666667 362 231 362 c 0
 241 362 250.833333333 364.333333333 260.5 369 c 128
 270.166666667 373.666666667 282.333333333 382.166666667 297 394.5 c 128
 311.666666667 406.833333333 329.833333333 423.833333333 351.5 445.5 c 128
 373.166666667 467.166666667 404 498.666666667 444 540 c 1
 449.333333333 520 454.166666667 496.5 458.5 469.5 c 128
 462.833333333 442.5 465 417.333333333 465 394 c 0
 465 359.333333333 459.333333333 335 448 321 c 2
 300 142 l 1
 370 77 l 1
 522 257 l 2
 534 273 542.5 291.333333333 547.5 312 c 128
 552.5 332.666666667 555 355.333333333 555 380 c 0
 555 400.666666667 553 430.666666667 549 470 c 0
 547 487.333333333 545.666666667 501 545 511 c 1
 716 566 l 1
 702.666666667 545.333333333 692.666666667 527.833333333 686 513.5 c 128
 679.333333333 499.166666667 676 484 676 468 c 0
 676 442 685 420.166666667 703 402.5 c 128
 721 384.833333333 749.666666667 363.666666667 789 339 c 0
 813 323.666666667 830.666666667 312 842 304 c 1
 900 380 l 1
EndSplineSet
EndChar

StartChar: uniE07C
Encoding: 57468 57468 18
Width: 1066
Flags: HW
LayerCount: 2
Fore
SplineSet
488 947 m 1
 488 941.666666667 488.333333333 933.666666667 489 923 c 0
 490.333333333 909 491 898.666666667 491 892 c 0
 491 878.666666667 490 865.833333333 488 853.5 c 128
 486 841.166666667 482.333333333 830 477 820 c 128
 471.666666667 810 464.166666667 801.833333333 454.5 795.5 c 128
 444.833333333 789.166666667 433 786 419 786 c 0
 406.333333333 786 392.833333333 787.833333333 378.5 791.5 c 128
 364.166666667 795.166666667 346.333333333 800.666666667 325 808 c 0
 290.333333333 819.333333333 265.666666667 826 251 828 c 1
 251 781.333333333 237.166666667 745.333333333 209.5 720 c 128
 181.833333333 694.666666667 147.666666667 680 107 676 c 1
 107 667.333333333 106.666666667 653.333333333 106 634 c 0
 104.666666667 613.333333333 104 597.666666667 104 587 c 0
 104 560.333333333 105.833333333 535.333333333 109.5 512 c 128
 113.166666667 488.666666667 119 468.333333333 127 451 c 0
 141.666666667 421.666666667 159.5 397.5 180.5 378.5 c 128
 201.5 359.5 229.666666667 338.333333333 265 315 c 0
 289 299.666666667 307 287.333333333 319 278 c 1
 370 351 l 1
 362 357 351 365 337 375 c 0
 310.333333333 395 289.166666667 412.166666667 273.5 426.5 c 128
 257.833333333 440.833333333 243.333333333 459 230 481 c 0
 224 491 219.5 505.666666667 216.5 525 c 128
 213.5 544.333333333 212 565 212 587 c 1
 216 584 l 2
 233.333333333 568 253.166666667 550.333333333 275.5 531 c 128
 297.833333333 511.666666667 321.5 491.833333333 346.5 471.5 c 128
 371.5 451.166666667 395 433.5 417 418.5 c 128
 439 403.5 456 394.333333333 468 391 c 0
 478.666666667 387.666666667 504 384.333333333 544 381 c 0
 570 379 592.833333333 376.666666667 612.5 374 c 128
 632.166666667 371.333333333 651.333333333 367.666666667 670 363 c 128
 688.666666667 358.333333333 704.833333333 351.666666667 718.5 343 c 128
 732.166666667 334.333333333 741.333333333 323.666666667 746 311 c 2
 819 104 l 1
 914 159 l 1
 841 369 l 2
 833.666666667 385 823.5 398.333333333 810.5 409 c 128
 797.5 419.666666667 782.666666667 428.166666667 766 434.5 c 128
 749.333333333 440.833333333 732.666666667 445.666666667 716 449 c 128
 699.333333333 452.333333333 677.666666667 456 651 460 c 0
 617 465.333333333 592.333333333 470 577 474 c 1
 601.666666667 498.666666667 623 518.5 641 533.5 c 128
 659 548.5 674.333333333 560.166666667 687 568.5 c 128
 699.666666667 576.833333333 710.333333333 582.333333333 719 585 c 128
 727.666666667 587.666666667 735.666666667 589 743 589 c 0
 745.666666667 589 749.666666667 588.666666667 755 588 c 0
 759.666666667 587.333333333 762.666666667 587 764 587 c 2
 991 548 l 1
 1013 641 l 1
 782 682 l 2
 779.333333333 682 775.666666667 682.333333333 771 683 c 0
 766.333333333 684.333333333 762.333333333 685 759 685 c 0
 752.333333333 685 744.333333333 683.5 735 680.5 c 128
 725.666666667 677.5 713.5 672.333333333 698.5 665 c 128
 683.5 657.666666667 664 646.666666667 640 632 c 128
 616 617.333333333 586.666666667 598.666666667 552 576 c 1
 419 696 l 1
 429.666666667 696 443 697.5 459 700.5 c 128
 475 703.5 492.833333333 711.166666667 512.5 723.5 c 128
 532.166666667 735.833333333 549.166666667 755.333333333 563.5 782 c 128
 577.833333333 808.666666667 585 844 585 888 c 0
 585 902 584 917.666666667 582 935 c 1
 488 947 l 1
0 831 m 0
 0 799.666666667 10.5 774.5 31.5 755.5 c 128
 52.5 736.5 76.6666666667 727 104 727 c 0
 134.666666667 727 160 737.666666667 180 759 c 128
 200 780.333333333 210 804.666666667 210 832 c 0
 210 862 199.333333333 887 178 907 c 128
 156.666666667 927 132.333333333 937 105 937 c 0
 73.6666666667 937 48.3333333333 926.333333333 29 905 c 128
 9.66666666667 883.666666667 0 859 0 831 c 0
603 153 m 0
 603 155 605 156.5 609 157.5 c 128
 613 158.5 617.666666667 159 623 159 c 0
 627 159 633 158.666666667 641 158 c 256
 649 157.333333333 655 157 659 157 c 0
 667 157 672.666666667 158.833333333 676 162.5 c 128
 679.333333333 166.166666667 681 174.333333333 681 187 c 0
 681 197 677.666666667 203.833333333 671 207.5 c 128
 664.333333333 211.166666667 654.666666667 214.333333333 642 217 c 0
 632 219 632 219 627 220 c 0
 619.666666667 222 607.5 224 590.5 226 c 128
 573.5 228 551.833333333 230.166666667 525.5 232.5 c 128
 499.166666667 234.833333333 478.333333333 236.666666667 463 238 c 128
 447.666666667 239.333333333 439.333333333 240 438 240 c 0
 429.333333333 240 422.166666667 239 416.5 237 c 128
 410.833333333 235 408 231 408 225 c 0
 408 217.666666667 409.5 212.5 412.5 209.5 c 128
 415.5 206.5 419.666666667 204 425 202 c 0
 430.333333333 199.333333333 433 196.666666667 433 194 c 0
 432.333333333 190.666666667 426.666666667 188.666666667 416 188 c 0
 409.333333333 187.333333333 404.333333333 186.5 401 185.5 c 128
 397.666666667 184.5 396 182 396 178 c 0
 396 164 403.333333333 157 418 157 c 0
 421.333333333 157 426 157.666666667 432 159 c 0
 436.666666667 159.666666667 440 160 442 160 c 0
 446.666666667 160 449 158 449 154 c 256
 449 150 445.333333333 145.333333333 438 140 c 0
 433.333333333 136 429.666666667 132.333333333 427 129 c 128
 424.333333333 125.666666667 423 121 423 115 c 0
 423 103.666666667 430 96.3333333333 444 93 c 128
 458 89.6666666667 476.333333333 88 499 88 c 0
 525.666666667 88 545.5 86.6666666667 558.5 84 c 128
 571.5 81.3333333333 586.666666667 76 604 68 c 0
 609.333333333 66 612.666666667 63 614 59 c 128
 615.333333333 55 616 48.6666666667 616 40 c 0
 616 32.6666666667 619.333333333 26.8333333333 626 22.5 c 128
 632.666666667 18.1666666667 641.666666667 15 653 13 c 128
 664.333333333 11 675.833333333 9.83333333333 687.5 9.5 c 128
 699.166666667 9.16666666667 714 9 732 9 c 0
 747.333333333 9 760.833333333 9.33333333333 772.5 10 c 128
 784.166666667 10.6666666667 792.333333333 11.6666666667 797 13 c 0
 799.666666667 13.6666666667 801 15.6666666667 801 19 c 0
 801 24.3333333333 798.666666667 29.3333333333 794 34 c 128
 789.333333333 38.6666666667 783.666666667 41 777 41 c 0
 773.666666667 41 768.333333333 40.3333333333 761 39 c 256
 753.666666667 37.6666666667 748.333333333 37 745 37 c 0
 736.333333333 37 729.833333333 39 725.5 43 c 128
 721.166666667 47 716.666666667 52.6666666667 712 60 c 0
 708.666666667 66.6666666667 705.333333333 71.6666666667 702 75 c 128
 698.666666667 78.3333333333 694.333333333 80.3333333333 689 81 c 0
 680.333333333 81.6666666667 664.666666667 83.5 642 86.5 c 128
 619.333333333 89.5 596 93 572 97 c 128
 548 101 527.833333333 105.5 511.5 110.5 c 128
 495.166666667 115.5 487 120.333333333 487 125 c 0
 487 126.333333333 488 128.333333333 490 131 c 0
 492.666666667 135 494 137.666666667 494 139 c 0
 493.333333333 149 490.833333333 156.166666667 486.5 160.5 c 128
 482.166666667 164.833333333 476 169 468 173 c 0
 456.666666667 178.333333333 450 184 448 190 c 0
 448 197.333333333 458 201 478 201 c 0
 494 201 510.5 198.833333333 527.5 194.5 c 128
 544.5 190.166666667 553 185.333333333 553 180 c 1
 553 180 553 180 552 179 c 0
 552 178 552 178 552 178 c 2
 550 175.333333333 545.333333333 173 538 171 c 0
 532 169 527.666666667 167.166666667 525 165.5 c 128
 522.333333333 163.833333333 521 161 521 157 c 0
 521 147 528.166666667 137.666666667 542.5 129 c 128
 556.833333333 120.333333333 575.166666667 113 597.5 107 c 128
 619.833333333 101 643.333333333 96.3333333333 668 93 c 128
 692.666666667 89.6666666667 714.666666667 88 734 88 c 0
 764 88 779.666666667 91.3333333333 781 98 c 0
 781 111.333333333 777.166666667 120.166666667 769.5 124.5 c 128
 761.833333333 128.833333333 753 131 743 131 c 0
 737 131 729 130.666666667 719 130 c 0
 708.333333333 128.666666667 700 128 694 128 c 0
 688.666666667 128 680.833333333 128.666666667 670.5 130 c 128
 660.166666667 131.333333333 649.833333333 133.166666667 639.5 135.5 c 128
 629.166666667 137.833333333 620.5 140.5 613.5 143.5 c 128
 606.5 146.5 603 149.666666667 603 153 c 0
EndSplineSet
EndChar

StartChar: uniE07D
Encoding: 57469 57469 19
Width: 1050
Flags: HW
LayerCount: 2
Fore
SplineSet
896 913 m 256
 867.333333333 913 843 903 823 883 c 128
 803 863 793 838.666666667 793 810 c 256
 793 781.333333333 803 756.833333333 823 736.5 c 128
 843 716.166666667 867.333333333 706 896 706 c 256
 924.666666667 706 949.166666667 716.166666667 969.5 736.5 c 128
 989.833333333 756.833333333 1000 781.333333333 1000 810 c 256
 1000 838.666666667 989.833333333 863 969.5 883 c 128
 949.166666667 903 924.666666667 913 896 913 c 256
552 853 m 1
 521 1120 l 1
 479 1047 l 1
 457 1264 l 1
 407 1186 l 1
 362 1370 l 1
 392 1093 l 1
 438 1166 l 1
 468 933 l 1
 502 1002 l 1
 521 844 l 1
 495 834 472.166666667 820.833333333 452.5 804.5 c 128
 432.833333333 788.166666667 409.666666667 765.666666667 383 737 c 0
 365 717.666666667 350.666666667 703 340 693 c 1
 402 631 l 1
 408.666666667 637 419.333333333 647.333333333 434 662 c 0
 463.333333333 692 489.5 714.333333333 512.5 729 c 128
 535.5 743.666666667 564 751 598 751 c 0
 621.333333333 751 641 749 657 745 c 1
 441 539 l 1
 431.666666667 534.333333333 416.333333333 532 395 532 c 0
 385 532 369.333333333 532.666666667 348 534 c 0
 322.666666667 535.333333333 303.333333333 536 290 536 c 0
 264.666666667 536 242.5 534.333333333 223.5 531 c 128
 204.5 527.666666667 188.666666667 521 176 511 c 2
 0 362 l 1
 64 293 l 1
 239 438 l 2
 245.666666667 444 255.333333333 448.333333333 268 451 c 128
 280.666666667 453.666666667 295.333333333 455 312 455 c 0
 335.333333333 455 360.166666667 452.833333333 386.5 448.5 c 128
 412.833333333 444.166666667 435 439.333333333 453 434 c 1
 413.666666667 395.333333333 382.666666667 364.166666667 360 340.5 c 128
 337.333333333 316.833333333 319.833333333 297.833333333 307.5 283.5 c 128
 295.166666667 269.166666667 286.833333333 258.166666667 282.5 250.5 c 128
 278.166666667 242.833333333 276 236.666666667 276 232 c 0
 276 229.333333333 276.666666667 226 278 222 c 256
 279.333333333 218 280 215.333333333 280 214 c 2
 321 0 l 1
 429 0 l 1
 390 212 l 2
 390 214 389.666666667 217 389 221 c 0
 388.333333333 224.333333333 388 227.333333333 388 230 c 0
 388 235.333333333 390.333333333 241.833333333 395 249.5 c 128
 399.666666667 257.166666667 408.666666667 267.5 422 280.5 c 128
 435.333333333 293.5 455.833333333 311.5 483.5 334.5 c 128
 511.166666667 357.5 546 385 588 417 c 2
 728 527 l 1
 722 499.666666667 719 478 719 462 c 0
 719 441.333333333 723 424 731 410 c 128
 739 396 749.833333333 385 763.5 377 c 128
 777.166666667 369 792 362.666666667 808 358 c 128
 824 353.333333333 846 348 874 342 c 0
 900.666666667 336.666666667 920.333333333 332.333333333 933 329 c 1
 959 418 l 1
 950.333333333 422.666666667 933 427.333333333 907 432 c 0
 877 438 854.166666667 445.166666667 838.5 453.5 c 128
 822.833333333 461.833333333 815 476.333333333 815 497 c 0
 815 509.666666667 818.166666667 523.666666667 824.5 539 c 128
 830.833333333 554.333333333 840 573.666666667 852 597 c 0
 868.666666667 628.333333333 879.333333333 651.666666667 884 667 c 1
 841.333333333 674.333333333 810.166666667 692.833333333 790.5 722.5 c 128
 770.833333333 752.166666667 761 789 761 833 c 0
 759 833.666666667 751.666666667 835 739 837 c 0
 709.666666667 843.666666667 684 848.666666667 662 852 c 128
 640 855.333333333 618.666666667 857 598 857 c 0
 580 857 564.666666667 855.666666667 552 853 c 1
EndSplineSet
EndChar

StartChar: uniE07E
Encoding: 57470 57470 20
Width: 1106
Flags: HW
LayerCount: 2
Fore
SplineSet
781 1168 m 0
 754.333333333 1168 731 1158.66666667 711 1140 c 128
 691 1121.33333333 681 1097.66666667 681 1069 c 0
 681 1042.33333333 690.333333333 1019 709 999 c 128
 727.666666667 979 751.333333333 969 780 969 c 0
 807.333333333 969 830.833333333 978.166666667 850.5 996.5 c 128
 870.166666667 1014.83333333 880 1039 880 1069 c 0
 880 1095.66666667 870.666666667 1118.83333333 852 1138.5 c 128
 833.333333333 1158.16666667 809.666666667 1168 781 1168 c 0
402 1078 m 1
 319 1043 l 1
 323.666666667 1031 330 1012 338 986 c 0
 345.333333333 963.333333333 351.833333333 944.666666667 357.5 930 c 128
 363.166666667 915.333333333 370.166666667 902 378.5 890 c 128
 386.833333333 878 397.166666667 868.5 409.5 861.5 c 128
 421.833333333 854.5 437 851 455 851 c 0
 471 851 495.333333333 856 528 866 c 1
 437 724 l 1
 424.333333333 728 412 734.666666667 400 744 c 128
 388 753.333333333 372 766.666666667 352 784 c 0
 328 806 308 822.333333333 292 833 c 128
 276 843.666666667 259.666666667 849 243 849 c 0
 235.666666667 849 228.333333333 847.666666667 221 845 c 2
 0 779 l 1
 26 697 l 1
 232 763 l 2
 235.333333333 764.333333333 239.333333333 765 244 765 c 0
 260.666666667 765 278.833333333 757 298.5 741 c 128
 318.166666667 725 342.666666667 702.333333333 372 673 c 0
 386.666666667 658.333333333 397.666666667 647.5 405 640.5 c 128
 412.333333333 633.5 419 628.333333333 425 625 c 1
 415 619.666666667 397 610.333333333 371 597 c 0
 323.666666667 573.666666667 287.166666667 552.833333333 261.5 534.5 c 128
 235.833333333 516.166666667 223 496.333333333 223 475 c 0
 223 471 223.666666667 467 225 463 c 2
 288 243 l 1
 381 273 l 1
 326 433 l 2
 326 434 326 434 326 435 c 0
 325.333333333 436.333333333 325 437.333333333 325 438 c 0
 325 448 332.833333333 459.166666667 348.5 471.5 c 128
 364.166666667 483.833333333 384.333333333 496.5 409 509.5 c 128
 433.666666667 522.5 458.666666667 534.5 484 545.5 c 128
 509.333333333 556.5 534.333333333 566.666666667 559 576 c 0
 569 580 581.5 590.166666667 596.5 606.5 c 128
 611.5 622.833333333 626.833333333 642 642.5 664 c 128
 658.166666667 686 672.5 707.333333333 685.5 728 c 128
 698.5 748.666666667 713.333333333 772 730 798 c 2
 743 819 l 1
 746.333333333 809 749.333333333 796.666666667 752 782 c 128
 754.666666667 767.333333333 756 754 756 742 c 0
 756 719.333333333 749.166666667 696.333333333 735.5 673 c 128
 721.833333333 649.666666667 701 620 673 584 c 0
 666.333333333 575.333333333 661.333333333 568.666666667 658 564 c 1
 723 510 l 1
 730.333333333 519.333333333 742.333333333 534 759 554 c 0
 791 591.333333333 815.5 624.333333333 832.5 653 c 128
 849.5 681.666666667 858 713 858 747 c 0
 858 769 855.166666667 791.833333333 849.5 815.5 c 128
 843.833333333 839.166666667 835.666666667 868 825 902 c 0
 821 914 821 914 817 926 c 1
 805.666666667 924 794.333333333 923 783 923 c 0
 751.666666667 923 723.833333333 931.666666667 699.5 949 c 128
 675.166666667 966.333333333 658 992.666666667 648 1028 c 1
 634 1022 612.666666667 1009.66666667 584 991 c 0
 560.666666667 975.666666667 541.666666667 964.166666667 527 956.5 c 128
 512.333333333 948.833333333 498.333333333 945 485 945 c 0
 464.333333333 945 449 953.666666667 439 971 c 128
 429 988.333333333 419.666666667 1013.66666667 411 1047 c 0
 407.666666667 1059 404.666666667 1069.33333333 402 1078 c 1
1048 530 m 1
 1025 579 l 1
 831 579 l 1
 831 399 l 1
 640 399 l 1
 640 217 l 1
 450 217 l 1
 450 0 l 1
 510 0 l 1
 510 162 l 1
 695 162 l 1
 695 341 l 1
 892 341 l 1
 892 530 l 1
 1048 530 l 1
EndSplineSet
EndChar

StartChar: uniE07F
Encoding: 57471 57471 21
Width: 1689
Flags: HW
LayerCount: 2
Fore
SplineSet
795 949 m 0
 769 949 746.666666667 939.5 728 920.5 c 128
 709.333333333 901.5 700 879.333333333 700 854 c 0
 700 828 709.5 805.666666667 728.5 787 c 128
 747.5 768.333333333 769.666666667 759 795 759 c 0
 821.666666667 759 844.166666667 768.5 862.5 787.5 c 128
 880.833333333 806.5 890 828.666666667 890 854 c 0
 890 880.666666667 880.5 903.166666667 861.5 921.5 c 128
 842.5 939.833333333 820.333333333 949 795 949 c 0
697 635 m 1
 697 400 l 1
 543 54 l 1
 649 0 l 1
 795 331 l 1
 917 0 l 1
 1029 54 l 1
 896 400 l 1
 895 634 l 1
 925.666666667 608.666666667 944.833333333 584.833333333 952.5 562.5 c 128
 960.166666667 540.166666667 964 514.333333333 964 485 c 0
 964 471.666666667 962.666666667 452 960 426 c 0
 958.666666667 407.333333333 957.666666667 394 957 386 c 1
 1036 377 l 1
 1037.33333333 389.666666667 1040 409.333333333 1044 436 c 0
 1049.33333333 473.333333333 1052 501.666666667 1052 521 c 0
 1052 547.666666667 1048.66666667 571.333333333 1042 592 c 128
 1035.33333333 612.666666667 1026.5 630.833333333 1015.5 646.5 c 128
 1004.5 662.166666667 992.333333333 676.333333333 979 689 c 128
 965.666666667 701.666666667 948 717.333333333 926 736 c 0
 916 744 906.666666667 751.666666667 898 759 c 1
 884.666666667 747 869.166666667 737.333333333 851.5 730 c 128
 833.833333333 722.666666667 815.333333333 719 796 719 c 0
 760 719 726.666666667 732 696 758 c 1
 686.666666667 750.666666667 679.333333333 744.666666667 674 740 c 0
 650.666666667 722 631.833333333 706.5 617.5 693.5 c 128
 603.166666667 680.5 590 665.833333333 578 649.5 c 128
 566 633.166666667 556.5 614.5 549.5 593.5 c 128
 542.5 572.5 539 548.333333333 539 521 c 0
 539 501.666666667 542 473.333333333 548 436 c 0
 552 409.333333333 554.333333333 389.666666667 555 377 c 1
 635 386 l 1
 634.333333333 397.333333333 633.333333333 408.666666667 632 420 c 0
 628.666666667 449.333333333 627 471.333333333 627 486 c 0
 627 516 631 542 639 564 c 128
 647 586 666.333333333 609.666666667 697 635 c 1
1499 661 m 1
 1085 661 l 1
 1085 80 l 1
 1499 80 l 1
 1499 106 l 1
 1295 106 l 1
 1295 630 l 1
 1499 630 l 1
 1499 661 l 1
1216 630 m 1
 1268 578 l 1
 1268 478 l 1
 1117 614 l 1
 1117 630 l 1
 1216 630 l 1
1263 357 m 1
 1263 253 l 1
 1117 384 l 1
 1117 489 l 1
 1263 357 l 1
1117 258 m 1
 1258 122 l 1
 1258 106 l 1
 1164 106 l 1
 1117 143 l 1
 1117 258 l 1
94 661 m 1
 94 630 l 1
 298 630 l 1
 298 106 l 1
 94 106 l 1
 94 80 l 1
 508 80 l 1
 508 661 l 1
 94 661 l 1
377 630 m 1
 476 630 l 1
 476 614 l 1
 325 478 l 1
 325 572 l 1
 377 630 l 1
325 357 m 1
 476 489 l 1
 476 384 l 1
 325 248 l 1
 325 357 l 1
482 253 m 1
 482 143 l 1
 435 106 l 1
 335 106 l 1
 335 122 l 1
 482 253 l 1
1436 446 m 1
 1347 370 l 1
 1436 295 l 1
 1436 331 l 1
 1609 331 l 1
 1609 410 l 1
 1436 410 l 1
 1436 446 l 1
251 370 m 1
 168 446 l 1
 168 410 l 1
 0 410 l 1
 0 331 l 1
 168 331 l 1
 168 295 l 1
 251 370 l 1
EndSplineSet
EndChar

StartChar: uniE080
Encoding: 57472 57472 22
Width: 998
VWidth: 1024
Flags: HW
LayerCount: 2
Fore
SplineSet
296 466 m 1
 302 463 l 1
 304 460 l 1
 300 449 l 1
 293 443 l 1
 281 439 l 1
 280 441 l 1
 279 441 l 1
 276 437 l 1
 269 441 l 1
 259 437 l 1
 244 439 l 1
 235 447 l 1
 235 456 l 1
 244 464 l 1
 261 466 l 1
 276 466 l 1
 281 469 l 1
 296 466 l 1
296 815 m 1
 290 815 l 1
 290 805 l 1
 291 761 l 1
 288 748 l 1
 281 736 l 1
 286 719 l 1
 281 711 l 1
 279 677 l 1
 286 668 l 1
 288 652 l 1
 282 632 l 1
 279 616 l 1
 280 616 l 1
 302 646 l 1
 304 655 l 1
 306 669 l 1
 310 686 l 1
 312 728 l 1
 314 770 l 1
 312 776 l 1
 312 782 l 1
 306 805 l 1
 296 815 l 1
240 849 m 1
 251 845 l 1
 265 844 l 1
 291 839 l 1
 300 834 l 1
 318 833 l 1
 324 829 l 1
 326 831 l 1
 342 821 l 1
 344 821 l 1
 355 808 l 1
 362 786 l 1
 362 757 l 1
 353 722 l 1
 353 688 l 1
 342 671 l 1
 346 668 l 1
 346 654 l 1
 339 646 l 1
 334 641 l 1
 330 641 l 1
 324 635 l 1
 327 627 l 1
 329 624 l 1
 323 608 l 1
 308 596 l 1
 310 593 l 1
 318 599 l 1
 318 598 l 1
 321 596 l 1
 326 597 l 1
 333 593 l 1
 334 593 l 1
 343 588 l 1
 348 570 l 1
 352 567 l 1
 353 559 l 1
 357 552 l 1
 361 540 l 1
 363 523 l 1
 363 516 l 1
 357 500 l 1
 369 487 l 1
 374 478 l 1
 389 484 l 1
 390 484 l 1
 395 473 l 1
 392 462 l 1
 371 443 l 1
 353 450 l 1
 352 455 l 1
 353 461 l 1
 352 464 l 1
 349 462 l 1
 343 464 l 1
 337 472 l 1
 333 484 l 1
 331 498 l 1
 324 507 l 1
 312 543 l 1
 310 545 l 1
 304 559 l 1
 302 583 l 1
 303 585 l 1
 300 588 l 1
 302 589 l 1
 300 590 l 1
 294 585 l 1
 284 582 l 1
 277 585 l 1
 276 585 l 1
 275 562 l 1
 286 543 l 1
 291 503 l 1
 287 488 l 1
 271 481 l 1
 253 484 l 1
 249 487 l 1
 249 489 l 1
 247 539 l 1
 242 578 l 1
 241 684 l 1
 242 734 l 1
 242 774 l 1
 241 801 l 1
 238 803 l 1
 240 810 l 1
 236 819 l 1
 227 822 l 1
 220 828 l 1
 218 844 l 1
 229 849 l 1
 233 849 l 1
 240 849 l 1
451 392 m 1
 457 389 l 1
 459 386 l 1
 455 374 l 1
 447 369 l 1
 436 365 l 1
 434 366 l 1
 433 366 l 1
 430 363 l 1
 424 366 l 1
 413 363 l 1
 398 364 l 1
 389 372 l 1
 389 382 l 1
 399 390 l 1
 415 392 l 1
 430 392 l 1
 436 395 l 1
 451 392 l 1
451 740 m 1
 445 740 l 1
 445 731 l 1
 445 686 l 1
 442 674 l 1
 436 662 l 1
 440 645 l 1
 436 637 l 1
 433 603 l 1
 440 594 l 1
 442 578 l 1
 436 557 l 1
 433 541 l 1
 434 541 l 1
 457 572 l 1
 459 580 l 1
 460 594 l 1
 465 612 l 1
 466 654 l 1
 468 696 l 1
 466 702 l 1
 467 707 l 1
 461 731 l 1
 451 740 l 1
395 775 m 1
 406 771 l 1
 420 770 l 1
 445 765 l 1
 454 760 l 1
 472 758 l 1
 479 755 l 1
 480 756 l 1
 496 747 l 1
 498 747 l 1
 510 734 l 1
 516 712 l 1
 516 683 l 1
 508 647 l 1
 508 613 l 1
 496 597 l 1
 500 594 l 1
 500 580 l 1
 493 571 l 1
 488 567 l 1
 484 567 l 1
 479 561 l 1
 481 553 l 1
 483 550 l 1
 478 534 l 1
 463 522 l 1
 465 519 l 1
 473 525 l 1
 473 524 l 1
 475 522 l 1
 480 522 l 1
 487 518 l 1
 488 518 l 1
 498 514 l 1
 502 496 l 1
 506 493 l 1
 507 485 l 1
 512 477 l 1
 515 466 l 1
 517 448 l 1
 517 442 l 1
 512 425 l 1
 523 413 l 1
 528 403 l 1
 543 409 l 1
 545 409 l 1
 549 399 l 1
 546 387 l 1
 525 369 l 1
 508 376 l 1
 506 381 l 1
 508 387 l 1
 506 390 l 1
 504 387 l 1
 498 390 l 1
 492 398 l 1
 487 409 l 1
 486 424 l 1
 479 432 l 1
 467 469 l 1
 465 471 l 1
 459 485 l 1
 457 509 l 1
 457 510 l 1
 455 514 l 1
 457 515 l 1
 455 516 l 1
 448 511 l 1
 439 508 l 1
 432 510 l 1
 430 510 l 1
 430 488 l 1
 440 469 l 1
 445 428 l 1
 441 414 l 1
 425 407 l 1
 407 409 l 1
 404 413 l 1
 404 415 l 1
 401 465 l 1
 396 504 l 1
 395 610 l 1
 396 660 l 1
 396 700 l 1
 395 727 l 1
 393 729 l 1
 395 736 l 1
 391 745 l 1
 381 748 l 1
 374 754 l 1
 373 770 l 1
 383 775 l 1
 387 775 l 1
 395 775 l 1
616 489 m 1
 624 485 l 1
 627 481 l 1
 621 468 l 1
 611 462 l 1
 594 457 l 1
 592 458 l 1
 590 458 l 1
 586 454 l 1
 577 458 l 1
 562 454 l 1
 540 456 l 1
 528 466 l 1
 528 477 l 1
 541 487 l 1
 565 489 l 1
 586 489 l 1
 594 492 l 1
 616 489 l 1
616 905 m 1
 607 905 l 1
 607 894 l 1
 608 840 l 1
 603 825 l 1
 594 811 l 1
 600 791 l 1
 594 781 l 1
 590 741 l 1
 600 730 l 1
 603 711 l 1
 595 686 l 1
 590 668 l 1
 592 668 l 1
 624 704 l 1
 627 714 l 1
 629 731 l 1
 635 752 l 1
 637 802 l 1
 640 851 l 1
 637 859 l 1
 638 866 l 1
 630 894 l 1
 616 905 l 1
535 946 m 1
 551 941 l 1
 571 940 l 1
 608 934 l 1
 620 928 l 1
 646 926 l 1
 655 922 l 1
 657 924 l 1
 681 913 l 1
 684 913 l 1
 700 897 l 1
 709 871 l 1
 709 836 l 1
 697 794 l 1
 697 754 l 1
 681 734 l 1
 686 730 l 1
 686 713 l 1
 676 703 l 1
 669 697 l 1
 664 697 l 1
 655 690 l 1
 659 681 l 1
 662 678 l 1
 654 658 l 1
 633 644 l 1
 635 641 l 1
 647 648 l 1
 647 646 l 1
 651 644 l 1
 657 645 l 1
 668 640 l 1
 669 640 l 1
 683 634 l 1
 689 613 l 1
 695 609 l 1
 696 600 l 1
 703 591 l 1
 708 578 l 1
 711 556 l 1
 711 548 l 1
 703 529 l 1
 720 514 l 1
 726 503 l 1
 748 510 l 1
 750 510 l 1
 756 497 l 1
 752 484 l 1
 722 462 l 1
 697 470 l 1
 695 476 l 1
 697 483 l 1
 695 487 l 1
 691 484 l 1
 683 487 l 1
 674 496 l 1
 668 510 l 1
 666 527 l 1
 655 537 l 1
 638 581 l 1
 635 583 l 1
 627 600 l 1
 624 629 l 1
 625 630 l 1
 621 634 l 1
 624 636 l 1
 621 637 l 1
 612 631 l 1
 599 627 l 1
 588 630 l 1
 586 630 l 1
 585 604 l 1
 600 581 l 1
 608 532 l 1
 602 515 l 1
 579 507 l 1
 553 510 l 1
 548 514 l 1
 548 516 l 1
 545 577 l 1
 538 623 l 1
 536 749 l 1
 538 809 l 1
 538 856 l 1
 536 889 l 1
 532 891 l 1
 535 900 l 1
 530 910 l 1
 516 914 l 1
 506 921 l 1
 504 940 l 1
 519 946 l 1
 525 946 l 1
 535 946 l 1
816 323 m 1
 824 319 l 1
 827 316 l 1
 821 302 l 1
 811 296 l 1
 794 291 l 1
 792 293 l 1
 790 293 l 1
 786 289 l 1
 777 293 l 1
 762 289 l 1
 740 290 l 1
 728 300 l 1
 728 312 l 1
 741 321 l 1
 765 323 l 1
 786 323 l 1
 794 327 l 1
 816 323 l 1
816 739 m 1
 807 739 l 1
 807 728 l 1
 808 675 l 1
 803 660 l 1
 794 645 l 1
 801 625 l 1
 794 615 l 1
 790 575 l 1
 801 564 l 1
 803 545 l 1
 795 521 l 1
 790 502 l 1
 792 502 l 1
 824 538 l 1
 827 548 l 1
 829 565 l 1
 835 586 l 1
 837 636 l 1
 840 686 l 1
 837 694 l 1
 838 700 l 1
 830 728 l 1
 816 739 l 1
735 780 m 1
 751 776 l 1
 771 774 l 1
 808 769 l 1
 820 762 l 1
 846 761 l 1
 855 757 l 1
 857 758 l 1
 881 747 l 1
 884 747 l 1
 900 731 l 1
 909 705 l 1
 909 671 l 1
 897 628 l 1
 897 588 l 1
 881 568 l 1
 886 564 l 1
 886 548 l 1
 876 537 l 1
 869 532 l 1
 864 532 l 1
 855 525 l 1
 859 515 l 1
 862 512 l 1
 854 492 l 1
 833 478 l 1
 835 475 l 1
 847 482 l 1
 847 481 l 1
 851 478 l 1
 857 479 l 1
 868 474 l 1
 869 474 l 1
 883 469 l 1
 889 447 l 1
 895 443 l 1
 896 434 l 1
 903 425 l 1
 908 412 l 1
 911 391 l 1
 911 383 l 1
 903 363 l 1
 920 348 l 1
 926 337 l 1
 948 344 l 1
 950 344 l 1
 956 331 l 1
 952 318 l 1
 922 296 l 1
 897 304 l 1
 895 310 l 1
 897 317 l 1
 895 321 l 1
 891 318 l 1
 883 321 l 1
 874 331 l 1
 868 344 l 1
 866 361 l 1
 855 372 l 1
 838 415 l 1
 835 417 l 1
 827 434 l 1
 824 463 l 1
 825 465 l 1
 821 469 l 1
 824 470 l 1
 821 471 l 1
 812 466 l 1
 799 462 l 1
 788 465 l 1
 786 465 l 1
 785 438 l 1
 801 415 l 1
 808 367 l 1
 802 349 l 1
 779 341 l 1
 753 344 l 1
 749 348 l 1
 749 350 l 1
 745 411 l 1
 738 457 l 1
 736 584 l 1
 738 643 l 1
 738 691 l 1
 736 723 l 1
 732 725 l 1
 735 734 l 1
 730 744 l 1
 716 748 l 1
 706 755 l 1
 704 774 l 1
 719 780 l 1
 725 780 l 1
 735 780 l 1
997 474 m 1
 999 474 l 1
 1000 477 l 1
 1011 476 l 1
 1021 470 l 1
 1025 460 l 1
 1023 452 l 1
 1014 440 l 1
 987 442 l 1
 984 445 l 1
 979 445 l 1
 974 460 l 1
 976 470 l 1
 982 474 l 1
 988 477 l 1
 995 477 l 1
 997 474 l 1
1005 834 m 1
 1007 823 l 1
 1007 800 l 1
 1003 784 l 1
 1008 778 l 1
 1011 738 l 1
 1020 725 l 1
 1020 719 l 1
 1021 718 l 1
 1023 718 l 1
 1020 714 l 1
 1021 703 l 1
 1015 680 l 1
 1006 665 l 1
 1011 655 l 1
 1011 620 l 1
 1007 604 l 1
 1007 604 l 1
 1007 601 l 1
 1007 580 l 1
 1003 566 l 1
 1003 536 l 1
 1006 534 l 1
 1003 528 l 1
 1003 519 l 1
 997 513 l 1
 985 510 l 1
 981 511 l 1
 981 526 l 1
 980 587 l 1
 982 604 l 1
 982 634 l 1
 981 646 l 1
 976 659 l 1
 978 669 l 1
 972 673 l 1
 972 697 l 1
 973 713 l 1
 972 726 l 1
 968 735 l 1
 967 747 l 1
 966 778 l 1
 970 788 l 1
 964 799 l 1
 964 807 l 1
 960 840 l 1
 964 850 l 1
 975 854 l 1
 989 850 l 1
 1005 834 l 1
138 522 m 1
 141 506 l 1
 141 493 l 1
 141 454 l 1
 141 449 l 1
 143 440 l 1
 161 417 l 1
 173 415 l 1
 178 412 l 1
 180 408 l 1
 178 402 l 1
 170 397 l 1
 149 397 l 1
 135 407 l 1
 120 422 l 1
 106 443 l 1
 104 490 l 1
 102 494 l 1
 102 516 l 1
 105 532 l 1
 114 537 l 1
 124 535 l 1
 138 522 l 1
231 588 m 1
 237 582 l 1
 239 576 l 1
 238 570 l 1
 230 566 l 1
 225 520 l 1
 226 479 l 1
 223 461 l 1
 226 428 l 1
 221 412 l 1
 224 387 l 1
 221 377 l 1
 207 372 l 1
 191 376 l 1
 186 385 l 1
 188 420 l 1
 182 478 l 1
 179 535 l 1
 182 563 l 1
 172 565 l 1
 165 570 l 1
 163 573 l 1
 165 582 l 1
 174 590 l 1
 192 594 l 1
 218 591 l 1
 231 588 l 1
174 784 m 1
 171 771 l 1
 167 775 l 1
 159 779 l 1
 157 779 l 1
 156 771 l 1
 138 760 l 1
 141 746 l 1
 135 688 l 1
 137 650 l 1
 133 619 l 1
 129 610 l 1
 131 596 l 1
 135 585 l 1
 135 563 l 1
 126 545 l 1
 105 543 l 1
 100 547 l 1
 98 570 l 1
 90 588 l 1
 90 604 l 1
 88 616 l 1
 90 711 l 1
 102 763 l 1
 108 771 l 1
 109 775 l 1
 126 788 l 1
 132 791 l 1
 139 790 l 1
 143 790 l 1
 150 799 l 1
 165 797 l 1
 174 784 l 1
192 828 m 1
 196 828 l 1
 200 814 l 1
 200 746 l 1
 202 712 l 1
 200 704 l 1
 179 706 l 1
 177 745 l 1
 182 773 l 1
 178 828 l 1
 186 831 l 1
 190 831 l 1
 192 828 l 1
EndSplineSet
EndChar

StartChar: uniE081
Encoding: 57473 57473 23
Width: 992
VWidth: 1024
Flags: HW
LayerCount: 2
Fore
SplineSet
290 562 m 0
 296.666666667 560.666666667 305.333333333 559 316 557 c 0
 322 553.666666667 326.666666667 551.333333333 330 550 c 0
 330.666666667 548.666666667 331.5 547.666666667 332.5 547 c 128
 333.5 546.333333333 334.666666667 545.666666667 336 545 c 1
 336.666666667 547 337.666666667 549.5 339 552.5 c 128
 340.333333333 555.5 341.666666667 558.666666667 343 562 c 0
 348.333333333 574.666666667 353.666666667 586 359 596 c 0
 359.666666667 597.333333333 360.833333333 599.166666667 362.5 601.5 c 128
 364.166666667 603.833333333 366 606.666666667 368 610 c 0
 372.666666667 617.333333333 378.333333333 625 385 633 c 0
 387.666666667 637 390.666666667 640.833333333 394 644.5 c 128
 397.333333333 648.166666667 401 652 405 656 c 0
 406.333333333 657.333333333 407.666666667 658.333333333 409 659 c 2
 409 659 409 659 413 663 c 0
 421 665 421 665 421 665 c 2
 423.666666667 665.666666667 427 666 431 666 c 0
 432.333333333 666 433.666666667 665.833333333 435 665.5 c 128
 436.333333333 665.166666667 438 665 440 665 c 2
 444 663 l 2
 445.333333333 662.333333333 446.666666667 660.666666667 448 658 c 0
 449.333333333 654 450 650.333333333 450 647 c 2
 439 612 l 1
 437 608 l 2
 429 597.333333333 421 584 413 568 c 256
 405 552 399 538 395 526 c 1
 399 527.333333333 401.333333333 528 402 528 c 0
 404 528.666666667 406.333333333 529.666666667 409 531 c 0
 413 531.666666667 419 533.333333333 427 536 c 0
 431 536.666666667 437 538.333333333 445 541 c 0
 458.333333333 545 469.666666667 549.333333333 479 554 c 0
 481 556 484 558.333333333 488 561 c 1
 488 561 l 1
 499.333333333 584.333333333 509 608.666666667 517 634 c 2
 518 637 l 2
 518.666666667 638.333333333 519.5 639.666666667 520.5 641 c 128
 521.5 642.333333333 522.666666667 644 524 646 c 0
 524.666666667 647.333333333 525.333333333 648.5 526 649.5 c 128
 527 651 527 651 529 654 c 0
 529.666666667 654.666666667 530.666666667 655.5 532 656.5 c 128
 533.333333333 657.5 534.666666667 658.666666667 536 660 c 2
 538 663 l 1
 545 666 l 2
 550.333333333 667.333333333 556 667.666666667 562 667 c 0
 565.333333333 667 568.333333333 666.333333333 571 665 c 0
 573 663.666666667 575 662 577 660 c 0
 582.333333333 653.333333333 585 646.666666667 585 640 c 0
 584.333333333 637.333333333 583.333333333 632.666666667 582 626 c 0
 580 620 576.666666667 613.333333333 572 606 c 0
 564 594 564 594 564 594 c 2
 560 586.666666667 554.333333333 575 547 559 c 0
 546.333333333 557 545.666666667 555.166666667 545 553.5 c 128
 544.333333333 551.833333333 544 550.333333333 544 549 c 0
 542 545.666666667 540.666666667 542 540 538 c 0
 543.333333333 532 544.333333333 524.666666667 543 516 c 0
 539.666666667 507.333333333 534.666666667 499.666666667 528 493 c 0
 526.666666667 489 526 486.333333333 526 485 c 0
 524.666666667 482.333333333 524 479.666666667 524 477 c 0
 520.666666667 469.666666667 519 465 519 463 c 0
 517.666666667 460.333333333 516.333333333 457.833333333 515 455.5 c 128
 513.666666667 453.166666667 512.666666667 451 512 449 c 2
 509 445 l 2
 503 437.666666667 497.666666667 433 493 431 c 0
 489.666666667 429 486.666666667 428 484 428 c 0
 482 427.333333333 479 427 475 427 c 2
 468 428 l 2
 466 428.666666667 464 430 462 432 c 0
 456.666666667 434.666666667 452.666666667 438.666666667 450 444 c 2
 449 447 l 2
 447.666666667 453.666666667 447.666666667 459.333333333 449 464 c 1
 448.333333333 462.666666667 450.666666667 468.666666667 456 482 c 1
 451.333333333 480.666666667 446.666666667 479.5 442 478.5 c 128
 437.333333333 477.5 433 476.666666667 429 476 c 0
 421 474 412.333333333 471.333333333 403 468 c 2
 399 467 l 1
 396 466 l 2
 384.666666667 464 375 457.666666667 367 447 c 0
 366.333333333 445 365.5 443.333333333 364.5 442 c 128
 363.5 440.666666667 363 439.333333333 363 438 c 0
 361.666666667 436 360.666666667 434.333333333 360 433 c 128
 359 431 359 431 358 429 c 0
 356.666666667 427.666666667 355.666666667 426.5 355 425.5 c 128
 354.333333333 424.5 353.666666667 423.666666667 353 423 c 0
 347.666666667 417.666666667 342.666666667 413.666666667 338 411 c 0
 332.666666667 409.666666667 329.666666667 409 329 409 c 0
 327.666666667 408.333333333 325.666666667 408 323 408 c 0
 321 408 321 408 319 408 c 128
 317 408 317 408 316 408 c 2
 315 409 l 1
 312 410 l 2
 306 416 306 416 306 416 c 257
 306 416 306 416 302 422 c 0
 302 424 302 424 302 426 c 128
 302 428 302 428 302 431 c 0
 302.666666667 440.333333333 304.666666667 451 308 463 c 1
 304 460.333333333 301.666666667 458.666666667 301 458 c 0
 293 451.333333333 284.666666667 445 276 439 c 0
 269 435 269 435 262 431 c 128
 257.333333333 428.333333333 253 426 249 424 c 0
 244.333333333 422 238 419 230 415 c 0
 225.333333333 413 219 410.666666667 211 408 c 0
 201 404.666666667 194.333333333 403 191 403 c 0
 186 402 186 402 181 401 c 128
 177.666666667 400.333333333 174.666666667 400 172 400 c 0
 169.333333333 399.333333333 165.333333333 399 160 399 c 0
 157 399 157 399 154.5 399 c 128
 152 399 152 399 150 399 c 0
 145.333333333 399 141 399.333333333 137 400 c 2
 132 401 l 2
 126.666666667 401.666666667 121 403.333333333 115 406 c 0
 109.666666667 408 104.666666667 411 100 415 c 0
 96.6666666667 418.333333333 94.3333333333 421 93 423 c 0
 91.6666666667 423.666666667 90.6666666667 426.333333333 90 431 c 2
 88 440 l 1
 89 447 l 1
 91 455 l 2
 91.6666666667 457 93.3333333333 460 96 464 c 0
 98.6666666667 466.666666667 102 469.333333333 106 472 c 0
 106.666666667 472 107.333333333 472.166666667 108 472.5 c 128
 108.666666667 472.833333333 109.666666667 473 111 473 c 0
 112.333333333 474.333333333 113.666666667 475.333333333 115 476 c 2
 120 476 l 1
 121 477 l 1
 124.333333333 476.333333333 127.5 475.833333333 130.5 475.5 c 128
 133.5 475.166666667 136.666666667 475 140 475 c 0
 143 474 143 474 146 473 c 128
 148 472.333333333 150 472 152 472 c 0
 157.333333333 470.666666667 161.333333333 470 164 470 c 0
 174 468 185 467.666666667 197 469 c 0
 209.666666667 471.666666667 226.333333333 477.666666667 247 487 c 2
 247 487 247 487 257 492 c 0
 261 494.666666667 264 497 266 499 c 1
 266 499 l 1
 266 499 l 1
 256.666666667 499.666666667 247.666666667 499.666666667 239 499 c 0
 234.333333333 498.333333333 229.5 497.666666667 224.5 497 c 128
 219.5 496.333333333 215 496 211 496 c 256
 207 496 203.333333333 495.833333333 200 495.5 c 128
 196.666666667 495.166666667 193.333333333 495 190 495 c 0
 185.333333333 494.333333333 178.333333333 494 169 494 c 0
 160.333333333 494 154 494.333333333 150 495 c 0
 144 495 138 496 132 498 c 2
 127 499 l 2
 119 501.666666667 112.333333333 506 107 512 c 1
 107.666666667 510.666666667 106 513 102 519 c 2
 100 524 l 1
 100 524 100 524 100.5 524.5 c 128
 100.833333333 524.833333333 101 525.333333333 101 526 c 2
 101 526 101 526 101 526.5 c 128
 101 527 101 527 101 528 c 0
 101 530 101.666666667 533 103 537 c 0
 103 539.666666667 104.333333333 542.333333333 107 545 c 2
 107 545 107 545 110 551 c 0
 110.666666667 551.666666667 111.666666667 553.333333333 113 556 c 0
 115 558.666666667 117.333333333 561.666666667 120 565 c 128
 122.666666667 568.333333333 125.666666667 571.666666667 129 575 c 0
 132.333333333 579.666666667 138 586 146 594 c 0
 149.333333333 596.666666667 152.666666667 599.5 156 602.5 c 128
 159.333333333 605.5 163 608.666666667 167 612 c 0
 169.666666667 614.666666667 177 620.333333333 189 629 c 0
 191.666666667 630.333333333 194 632 196 634 c 0
 200.666666667 636.666666667 203.333333333 638.333333333 204 639 c 0
 213.333333333 645 226.666666667 652.333333333 244 661 c 0
 244 661.666666667 244.666666667 662 246 662 c 2
 246 662 246 662 246.5 662.5 c 128
 247 663 247 663 248 664 c 2
 257 667 l 2
 260.333333333 667 263.666666667 667.5 267 668.5 c 128
 270.333333333 669.5 273.666666667 670.333333333 277 671 c 256
 280.333333333 671.666666667 283.666666667 672.166666667 287 672.5 c 128
 290.333333333 672.833333333 293.666666667 673.333333333 297 674 c 0
 298.333333333 674 300 673.833333333 302 673.5 c 128
 304 673.166666667 306.333333333 673 309 673 c 2
 316 672 l 2
 326 667 326 667 326 667 c 1
 332 662 l 1
 336 655 l 1
 339 648 l 1
 340 638 l 2
 340 635 340 635 340 632 c 128
 340 629 340 629 340 626 c 0
 340 622 339 617.666666667 337 613 c 0
 335.666666667 610.333333333 334.666666667 608 334 606 c 2
 334 606 334 606 325 591 c 1
 322 589 l 1
 319 586 l 1
 315 584 l 1
 311 582 l 1
 307 581 l 1
 303 581 l 1
 297 581 l 1
 292 583 l 1
 289 584 l 1
 286 587 l 1
 285 591 l 1
 284 596 l 1
 285 599 l 2
 283.666666667 601.666666667 283 603.333333333 283 604 c 1
 282 604 282 604 281 604 c 128
 280 604 280 604 279 604 c 0
 267.666666667 602.666666667 255.333333333 599.333333333 242 594 c 256
 228.666666667 588.666666667 216.666666667 582.666666667 206 576 c 0
 203.333333333 574.666666667 198.666666667 571.333333333 192 566 c 0
 189 563 189 563 187.5 561.5 c 128
 186 560 186 560 185 559 c 1
 190.333333333 559 195.833333333 559.166666667 201.5 559.5 c 128
 207.166666667 559.833333333 213 560 219 560 c 0
 227 560 238.333333333 560.666666667 253 562 c 0
 257 562 257 562 261.5 562 c 128
 266 562 266 562 272 562 c 0
 276 562 276 562 280.5 562 c 128
 285 562 285 562 290 562 c 0
511 716 m 1
 512 716 l 1
 512 716 512 716 512 717 c 128
 512 718 512 718 512 720 c 2
 512 720 512 720 512 721 c 128
 512 722 512 722 512 723 c 0
 512 728.333333333 512.666666667 737 514 749 c 256
 515.333333333 761 516.666666667 769.333333333 518 774 c 0
 518 777.333333333 518.333333333 779.333333333 519 780 c 2
 519 780 519 780 519 780.5 c 128
 519 781 519 781 519 781 c 2
 520.333333333 787 521.5 793.166666667 522.5 799.5 c 128
 523.5 805.833333333 525 812 527 818 c 0
 529 830.666666667 532 842.666666667 536 854 c 0
 538 859.333333333 540.5 864.5 543.5 869.5 c 128
 546.5 874.5 549.333333333 879.666666667 552 885 c 0
 560 898.333333333 566.666666667 907.666666667 572 913 c 0
 574 914.333333333 577 915 581 915 c 0
 582 915 582 915 584 915 c 128
 586 915 586 915 589 915 c 0
 593.666666667 911.666666667 595.666666667 904.666666667 595 894 c 0
 593.666666667 887.333333333 592 880 590 872 c 0
 582 855.333333333 576 839.666666667 572 825 c 0
 566.666666667 807.666666667 564 791.333333333 564 776 c 0
 566 772 566.666666667 770.333333333 566 771 c 1
 566 769 571.666666667 770 583 774 c 0
 602.333333333 780.666666667 616 785 624 787 c 0
 636 789.666666667 649.333333333 795 664 803 c 0
 664.666666667 805.666666667 666.333333333 807.666666667 669 809 c 0
 671 809.666666667 672.666666667 811.333333333 674 814 c 0
 678 828.666666667 681 842.333333333 683 855 c 0
 685.666666667 867.666666667 687.666666667 880.666666667 689 894 c 0
 692.333333333 901.333333333 695.333333333 907 698 911 c 0
 700 913 701 914.333333333 701 915 c 0
 705 916.333333333 708.333333333 917 711 917 c 0
 712.333333333 916.333333333 713.833333333 915.833333333 715.5 915.5 c 128
 717.166666667 915.166666667 719 915 721 915 c 0
 725.666666667 911.666666667 729.333333333 907.666666667 732 903 c 0
 733.333333333 897.666666667 734 892.333333333 734 887 c 0
 733.333333333 883.666666667 731.666666667 878.666666667 729 872 c 0
 727.666666667 869.333333333 726.5 866.666666667 725.5 864 c 128
 724.5 861.333333333 723.666666667 859 723 857 c 0
 721.666666667 853.666666667 720.5 850.5 719.5 847.5 c 128
 718.5 844.5 717.666666667 841.666666667 717 839 c 0
 716.333333333 835.666666667 715.5 832.5 714.5 829.5 c 128
 713.5 826.5 713 823.333333333 713 820 c 0
 710.333333333 802.666666667 709 795 709 797 c 1
 709 795 709 795 709 793.5 c 128
 709 792 709 792 709 792 c 1
 716.333333333 785.333333333 718.666666667 778.666666667 716 772 c 0
 714 764.666666667 711 758.666666667 707 754 c 0
 707 752 706.833333333 750.166666667 706.5 748.5 c 128
 706.166666667 746.833333333 706 745.666666667 706 745 c 0
 706 741.666666667 705.666666667 738.333333333 705 735 c 0
 703.666666667 726.333333333 701.666666667 717 699 707 c 0
 695 697 686.666666667 693 674 695 c 0
 668 697 662.666666667 701.333333333 658 708 c 0
 658 708.666666667 657.833333333 709.333333333 657.5 710 c 128
 657.166666667 710.666666667 657 711.666666667 657 713 c 1
 657 713 657 713 657 713 c 129
 657 713 657 713 657 714 c 0
 656.333333333 718 656.666666667 724 658 732 c 0
 658.666666667 736.666666667 659.666666667 743 661 751 c 2
 661 751 661 751 661 751.5 c 128
 661 752 661 752 661 752 c 257
 661 752 661 752 660.5 752 c 128
 660 752 660 752 660 752 c 2
 657.333333333 752 654.666666667 752.333333333 652 753 c 0
 640 749 629.666666667 746.333333333 621 745 c 0
 608.333333333 741 598 737.666666667 590 735 c 0
 580.666666667 733.666666667 573.333333333 730.333333333 568 725 c 0
 560.666666667 719.666666667 555.666666667 713.666666667 553 707 c 0
 551 699.666666667 549.333333333 694.333333333 548 691 c 0
 544.666666667 685.666666667 541.666666667 681.666666667 539 679 c 0
 535 676.333333333 530.333333333 675 525 675 c 2
 525 675 525 675 523.5 675.5 c 128
 522.5 675.833333333 521.333333333 676.333333333 520 677 c 0
 516 679 514 680.666666667 514 682 c 0
 512.666666667 690 512 695.666666667 512 699 c 0
 511.333333333 703 511 708.666666667 511 716 c 1
310 730 m 1
 310.666666667 730 311 731.666666667 311 735 c 0
 311 737 311 737 311 738.5 c 128
 311 740 311 740 311 741 c 2
 311 741 311 741 311.5 743 c 128
 311.833333333 744.333333333 312.333333333 746 313 748 c 0
 314.333333333 750.666666667 315 753 315 755 c 0
 320.333333333 764.333333333 324.666666667 771 328 775 c 0
 332 780.333333333 336.666666667 786.666666667 342 794 c 0
 342.666666667 795.333333333 343.5 796.5 344.5 797.5 c 128
 345.5 798.5 346.666666667 800 348 802 c 0
 350 804 351.666666667 806.333333333 353 809 c 0
 365 823 365 823 365 823 c 2
 367.666666667 827 370.666666667 830.666666667 374 834 c 0
 383 846 383 846 383 846 c 2
 387 851.333333333 389.666666667 855 391 857 c 0
 393 859.666666667 395.333333333 862.333333333 398 865 c 128
 400.666666667 867.666666667 403.333333333 870.666666667 406 874 c 0
 408 876.666666667 410.5 879.333333333 413.5 882 c 128
 416.5 884.666666667 419.333333333 887.666666667 422 891 c 0
 429 896 429 896 436 901 c 128
 440.666666667 904.333333333 445.666666667 908 451 912 c 0
 461 918 472 921.666666667 484 923 c 0
 490 921 492.333333333 920.333333333 491 921 c 1
 491.666666667 920.333333333 492.5 919.666666667 493.5 919 c 128
 494.5 918.333333333 495.666666667 918 497 918 c 0
 502.333333333 914.666666667 507.666666667 908.666666667 513 900 c 0
 516.333333333 892.666666667 518.666666667 884.666666667 520 876 c 0
 520 864.666666667 519.666666667 856.333333333 519 851 c 0
 517 839 515.666666667 830.666666667 515 826 c 256
 514.333333333 821.333333333 512.666666667 814.333333333 510 805 c 0
 508.666666667 801 507.5 797.333333333 506.5 794 c 128
 505.5 790.666666667 504.666666667 787.333333333 504 784 c 0
 503.333333333 782 502.5 780.166666667 501.5 778.5 c 128
 500.5 776.833333333 500 775 500 773 c 0
 498.666666667 771 497.666666667 769.166666667 497 767.5 c 128
 496.333333333 765.833333333 495.666666667 764 495 762 c 0
 493.666666667 760 492.5 758.166666667 491.5 756.5 c 128
 490.5 754.833333333 489.333333333 753 488 751 c 0
 484 743.666666667 482 739 482 737 c 0
 480.666666667 735.666666667 479.666666667 734.333333333 479 733 c 0
 478.333333333 732.333333333 477.833333333 731.5 477.5 730.5 c 128
 477 729 477 729 477 729 c 1
 472.333333333 723.666666667 469 719 467 715 c 0
 460.333333333 706.333333333 456.333333333 701.666666667 455 701 c 0
 451 699 445 694.666666667 437 688 c 0
 431 685.333333333 423.666666667 683 415 681 c 0
 410.333333333 679.666666667 403.333333333 678.333333333 394 677 c 0
 383.333333333 677 377.333333333 677.333333333 376 678 c 0
 374 678 374 678 372 678 c 128
 370 678 370 678 368 678 c 0
 366 678 364.333333333 678.166666667 363 678.5 c 128
 361.666666667 678.833333333 360.333333333 679.333333333 359 680 c 0
 357.666666667 681.333333333 355 682.666666667 351 684 c 0
 343.666666667 684.666666667 337.666666667 686.666666667 333 690 c 0
 327.666666667 692 323.333333333 696 320 702 c 0
 319.333333333 702.666666667 318.666666667 703.5 318 704.5 c 128
 317.333333333 705.5 317 706.666666667 317 708 c 0
 316 709 316 709 315 710 c 128
 314.333333333 710.666666667 314 711.666666667 314 713 c 0
 312 717.666666667 310.666666667 723.333333333 310 730 c 1
356 747 m 0
 356 743 356.666666667 739 358 735 c 0
 358.666666667 733.666666667 359.666666667 732.166666667 361 730.5 c 128
 362.333333333 728.833333333 364 727.333333333 366 726 c 0
 366 725.333333333 366.333333333 724.833333333 367 724.5 c 128
 368 724 368 724 368 724 c 2
 368 723.333333333 368.333333333 722.833333333 369 722.5 c 128
 369.666666667 722.166666667 370.333333333 722 371 722 c 0
 377 719.333333333 384.333333333 718 393 718 c 0
 399.666666667 716.666666667 407 717.333333333 415 720 c 0
 417 720.666666667 418.666666667 721.333333333 420 722 c 128
 422 723 422 723 424 724 c 0
 432 728 438.666666667 733.666666667 444 741 c 0
 448.666666667 746.333333333 453.333333333 753.666666667 458 763 c 0
 460 766.333333333 461.833333333 770 463.5 774 c 128
 465.166666667 778 467 782 469 786 c 0
 473 796.666666667 475.666666667 804.666666667 477 810 c 0
 479 816.666666667 480.333333333 820 481 820 c 0
 483.666666667 832 486.333333333 840.333333333 489 845 c 0
 489.666666667 849 490 856.666666667 490 868 c 1
 486 872 483 874 481 874 c 0
 477.666666667 872.666666667 473.333333333 871.666666667 468 871 c 0
 462.666666667 868.333333333 458.333333333 866 455 864 c 0
 449.666666667 860 445.666666667 857.333333333 443 856 c 0
 434.333333333 848.666666667 429.666666667 845 429 845 c 0
 423.666666667 839.666666667 419.333333333 835.666666667 416 833 c 0
 415.333333333 831 413 828 409 824 c 0
 406.333333333 822 403.333333333 819.333333333 400 816 c 1
 400 816 400 816 400 816 c 129
 400 816 400 816 400 816 c 1
 398.666666667 816 397.666666667 815 397 813 c 0
 396 812 396 812 394.5 810.5 c 128
 393 809 393 809 393 809 c 1
 393 809 l 1
 393 809 393 809 391.5 807.5 c 128
 390.5 806.5 389.666666667 805.333333333 389 804 c 0
 387 802 385.333333333 800.166666667 384 798.5 c 128
 382.666666667 796.833333333 381 795 379 793 c 0
 376.333333333 789 374.666666667 786.666666667 374 786 c 0
 370.666666667 781.333333333 369 778.666666667 369 778 c 0
 364.333333333 770 361.666666667 765 361 763 c 0
 358.333333333 758.333333333 356.666666667 753 356 747 c 0
872 430 m 0
 872.666666667 435.333333333 874.666666667 441.666666667 878 449 c 0
 880.666666667 456.333333333 884.666666667 462 890 466 c 0
 890.666666667 466 891.5 466.166666667 892.5 466.5 c 128
 893.5 466.833333333 894.666666667 467 896 467 c 0
 896.666666667 467 897.5 467.333333333 898.5 468 c 128
 899.5 468.666666667 900.666666667 469.333333333 902 470 c 0
 905.333333333 470 908.666666667 468 912 464 c 0
 916 460 918.333333333 457 919 455 c 256
 919.666666667 453 920 451 920 449 c 2
 920 449 920 449 920 448.5 c 128
 920 448.166666667 920.333333333 448 921 448 c 1
 921 446 920.833333333 443.5 920.5 440.5 c 128
 920.166666667 437.5 920 434.666666667 920 432 c 0
 920 426.666666667 918.666666667 421.333333333 916 416 c 0
 912 413.333333333 909.666666667 411.666666667 909 411 c 0
 903.666666667 408.333333333 897 407 889 407 c 0
 888.333333333 407 886.666666667 407.666666667 884 409 c 0
 883.333333333 409 882.5 409.166666667 881.5 409.5 c 128
 880.5 409.833333333 880 410.333333333 880 411 c 0
 876 412.333333333 873.666666667 415 873 419 c 0
 872.333333333 421 872 424.666666667 872 430 c 0
1019 657 m 0
 1017.66666667 655.666666667 1017.66666667 654.666666667 1019 654 c 0
 1019 652 1019 652 1019 651.5 c 128
 1019 651 1019 651 1019 651 c 2
 1019 640.333333333 1016 629.666666667 1010 619 c 0
 1006.66666667 613 1003.66666667 607.5 1001 602.5 c 128
 998.333333333 597.5 996 593 994 589 c 0
 992.666666667 587 989 580.333333333 983 569 c 0
 980 563 980 563 977.5 558 c 128
 975.833333333 554.666666667 974.333333333 551.333333333 973 548 c 0
 967 538 960 527.666666667 952 517 c 0
 943.333333333 507 935.666666667 500 929 496 c 0
 921.666666667 491.333333333 917 492 915 498 c 0
 912.333333333 502 914.666666667 514 922 534 c 1
 935.333333333 557.333333333 946 578.666666667 954 598 c 0
 964.666666667 620 975.666666667 640.666666667 987 660 c 0
 993 666.666666667 999 669.666666667 1005 669 c 0
 1011 667.666666667 1015.66666667 663.666666667 1019 657 c 0
760 665 m 0
 760.666666667 665.666666667 762 666 764 666 c 0
 764.666666667 666 765.333333333 666.166666667 766 666.5 c 128
 767 667 767 667 769 668 c 0
 773 668 776.833333333 668.333333333 780.5 669 c 128
 784.166666667 669.666666667 788 670.333333333 792 671 c 256
 798 672 798 672 804 673 c 128
 808 673.666666667 812.333333333 674.666666667 817 676 c 0
 825 677.333333333 833.166666667 678.666666667 841.5 680 c 128
 849.833333333 681.333333333 858 683 866 685 c 0
 876.666666667 685 884.666666667 685.333333333 890 686 c 0
 900.666666667 686 908.666666667 685.666666667 914 685 c 0
 916.666666667 685 919 684.666666667 921 684 c 2
 927 680 l 1
 931 675 l 1
 933 669 l 2
 933 667.666666667 932.833333333 666.333333333 932.5 665 c 128
 932.166666667 663.666666667 932 662.333333333 932 661 c 0
 932 657.666666667 931 654.666666667 929 652 c 0
 928.333333333 650.666666667 927.333333333 648 926 644 c 2
 923 640 l 2
 915 632 904.333333333 626.666666667 891 624 c 0
 890.333333333 624 889.333333333 623.833333333 888 623.5 c 128
 886.666666667 623.166666667 885.666666667 623 885 623 c 0
 877 621.666666667 871.333333333 620.666666667 868 620 c 0
 864.666666667 618.666666667 859 617.333333333 851 616 c 0
 849 615.333333333 847.333333333 614.666666667 846 614 c 128
 844.666666667 613.333333333 843.333333333 613 842 613 c 0
 836 611 836 611 833 610 c 0
 829.666666667 608.666666667 826.5 607.666666667 823.5 607 c 128
 820.5 606.333333333 818 605.666666667 816 605 c 0
 812.666666667 603.666666667 809.666666667 602.5 807 601.5 c 128
 804.333333333 600.5 801.666666667 599.666666667 799 599 c 2
 776 565 l 1
 740 501 l 1
 734 485 l 1
 729 469 l 2
 728.333333333 465.666666667 727.5 462.666666667 726.5 460 c 128
 725.5 457.333333333 725 454.666666667 725 452 c 0
 722.333333333 444 720 438.333333333 718 435 c 2
 708 425 l 1
 704 423 l 1
 694 420 l 1
 687 421 l 1
 671 429 l 2
 668.333333333 431.666666667 666.666666667 434 666 436 c 0
 666 440 666.166666667 443.666666667 666.5 447 c 128
 666.833333333 450.333333333 667 453.666666667 667 457 c 0
 668.333333333 466.333333333 669.666666667 473.333333333 671 478 c 0
 673 484 674 488.666666667 674 492 c 0
 676 496 677.833333333 500.166666667 679.5 504.5 c 128
 681.166666667 508.833333333 683 513.333333333 685 518 c 0
 688.333333333 526.666666667 692.666666667 535.333333333 698 544 c 0
 700 549.333333333 702.666666667 554.666666667 706 560 c 0
 708 565.333333333 710.666666667 570.666666667 714 576 c 0
 715.333333333 580 716.666666667 583.666666667 718 587 c 2
 719 589 l 2
 719.666666667 589.666666667 720 590.333333333 720 591 c 2
 720 591 720 591 720.5 591.5 c 128
 721 592 721 592 721 592 c 2
 717 591.333333333 710.333333333 589.666666667 701 587 c 0
 697.666666667 586.333333333 691 584.666666667 681 582 c 0
 679.666666667 582 677.666666667 581.333333333 675 580 c 0
 673.666666667 579.333333333 672.5 578.833333333 671.5 578.5 c 128
 670.5 578.166666667 669.666666667 578 669 578 c 0
 665 576.666666667 659.666666667 575.333333333 653 574 c 0
 652 574 652 574 651 574 c 128
 650 574 650 574 650 574 c 1
 648 568 646.166666667 562.333333333 644.5 557 c 128
 642.833333333 551.666666667 641 546.666666667 639 542 c 0
 635.666666667 532 632.333333333 520.333333333 629 507 c 0
 626.333333333 500.333333333 622.333333333 489.666666667 617 475 c 0
 615.666666667 470.333333333 612 459.666666667 606 443 c 0
 606 441.666666667 605.666666667 440.333333333 605 439 c 256
 604 437 604 437 603.5 436 c 128
 603.166666667 435.333333333 603 434.666666667 603 434 c 0
 602.333333333 433.333333333 601.833333333 432.5 601.5 431.5 c 128
 601 430 601 430 601 430 c 2
 598.333333333 424 594 418 588 412 c 2
 581 408 l 2
 571.666666667 404.666666667 565 404.666666667 561 408 c 0
 557 410 553.666666667 415.666666667 551 425 c 2
 550 430 l 2
 550.666666667 434 551.666666667 439.333333333 553 446 c 0
 554.333333333 450.666666667 555.666666667 456.333333333 557 463 c 2
 600 617 l 1
 604 630 l 2
 608 636.666666667 611 641.333333333 613 644 c 0
 616.333333333 647.333333333 620.666666667 650.666666667 626 654 c 2
 631 657 l 1
 638 658 l 2
 644.666666667 658.666666667 651 658 657 656 c 2
 660 654 l 2
 664.666666667 649.333333333 667 644.333333333 667 639 c 1
 667.666666667 639.666666667 668.333333333 640 669 640 c 0
 673 641.333333333 682.333333333 644.666666667 697 650 c 2
 697 650 697 650 698 650.5 c 128
 698.666666667 650.833333333 699.666666667 651 701 651 c 0
 705 652.333333333 708.333333333 653 711 653 c 0
 715 654.333333333 718.333333333 655.333333333 721 656 c 2
 722 656 l 1
 727 657 l 2
 735 658.333333333 740.333333333 659.666666667 743 661 c 0
 745.666666667 661 748.333333333 661.5 751 662.5 c 128
 753.666666667 663.5 756.666666667 664.333333333 760 665 c 0
EndSplineSet
EndChar

StartChar: uniE082
Encoding: 57474 57474 24
Width: 840
VWidth: 1024
Flags: HW
LayerCount: 2
Fore
SplineSet
582 268 m 1
 580 278 l 1
 577 287 l 1
 569 306 l 1
 567 311 l 1
 564 315 l 1
 559 319 l 1
 558 324 l 1
 557 328 l 1
 559 331 l 1
 563 333 l 1
 579 339 l 1
 596 346 l 1
 629 361 l 1
 636 363 l 1
 642 361 l 1
 648 362 l 1
 652 363 l 1
 656 360 l 1
 659 357 l 1
 663 351 l 1
 664 344 l 1
 664 337 l 1
 664 330 l 1
 662 315 l 1
 656 285 l 1
 656 281 l 1
 655 277 l 1
 651 276 l 1
 637 273 l 1
 623 270 l 1
 596 262 l 1
 591 261 l 1
 585 263 l 1
 582 268 l 1
601 376 m 1
 595 379 l 1
 590 380 l 1
 585 384 l 1
 581 390 l 1
 577 399 l 1
 575 406 l 1
 582 452 l 1
 591 498 l 1
 604 544 l 1
 621 590 l 1
 626 599 l 1
 632 609 l 1
 645 628 l 1
 672 665 l 1
 677 671 l 1
 682 676 l 1
 690 681 l 1
 708 683 731.666666667 684.666666667 761 686 c 0
 792.333333333 687.333333333 810.333333333 674 815 646 c 1
 813 643 l 1
 810 641 l 1
 805 639 l 1
 798 633 l 1
 780 612 l 1
 763 591 l 1
 726 534 l 1
 712 506 l 1
 706 491 l 1
 701 476 l 1
 692 444 l 1
 685 412 l 1
 685 406 l 1
 683 403 l 1
 680 399 l 1
 674 396 l 1
 646 385 l 1
 633 382 l 1
 626 381 l 1
 618 379 l 1
 611 377 l 1
 605 375 l 1
 601 376 l 1
359 161 m 1
 355 182 l 1
 350 200 l 1
 338 240 l 1
 334 250 l 1
 329 258 l 1
 322 266 l 1
 319 276 l 1
 318 285 l 1
 321 291 l 1
 327 295 l 1
 354 307 l 1
 380 321 l 1
 434 352 l 1
 444 356 l 1
 455 352 l 1
 463 354 l 1
 470 355 l 1
 476 350 l 1
 482 344 l 1
 488 331 l 1
 490 317 l 1
 490 302 l 1
 490 287 l 1
 486 257 l 1
 477 196 l 1
 477 188 l 1
 474 180 l 1
 468 177 l 1
 446 172 l 1
 424 165 l 1
 381 149 l 1
 373 147 l 1
 363 151 l 1
 359 161 l 1
388 383 m 1
 379 388 l 1
 371 390 l 1
 363 399 l 1
 357 410 l 1
 350 430 l 1
 348 443 l 1
 357 538 l 1
 372 632 l 1
 394 726 l 1
 421 819 l 1
 429 839 l 1
 438 859 l 1
 459 897 l 1
 502 973 l 1
 510 986 l 1
 518 996 l 1
 531 1005 l 1
 555 1009.66666667 592.666666667 1013.66666667 644 1017 c 0
 694.666666667 1019.66666667 723.333333333 992 730 934 c 1
 727 927 l 1
 722 924 l 1
 714 920 l 1
 703 908 l 1
 674 866 l 1
 648 822 l 1
 589 706 l 1
 565 647 l 1
 556 617 l 1
 548 587 l 1
 534 522 l 1
 523 456 l 1
 523 444 l 1
 520 437 l 1
 515 430 l 1
 505 423 l 1
 461 401 l 1
 439 394 l 1
 428 391 l 1
 416 389 l 1
 405 385 l 1
 396 380 l 1
 388 383 l 1
182 350 m 1
 179 364 l 1
 176 377 l 1
 169 404 l 1
 166 411 l 1
 163 418 l 1
 159 423 l 1
 157 430 l 1
 157 436 l 1
 158 440 l 1
 162 443 l 1
 179 451 l 1
 195 461 l 1
 229 483 l 1
 235 485 l 1
 242 483 l 1
 247 484 l 1
 252 484 l 1
 255 481 l 1
 259 477 l 1
 263 468 l 1
 264 458 l 1
 264 448 l 1
 264 437 l 1
 262 417 l 1
 256 374 l 1
 256 369 l 1
 254 364 l 1
 250 361 l 1
 236 357 l 1
 223 353 l 1
 196 342 l 1
 191 340 l 1
 185 343 l 1
 182 350 l 1
200 504 m 1
 195 507 l 1
 190 509 l 1
 185 515 l 1
 180 523 l 1
 176 536 l 1
 175 545 l 1
 181 611 l 1
 190 677 l 1
 204 742 l 1
 221 806 l 1
 226 820 l 1
 231 834 l 1
 244 860 l 1
 271 912 l 1
 277 922 l 1
 282 929 l 1
 290 935 l 1
 305.333333333 938.333333333 328.666666667 941 360 943 c 0
 392.666666667 945 410.666666667 925.666666667 414 885 c 1
 412 881 l 1
 409 878 l 1
 404 876 l 1
 397 868 l 1
 379 838 l 1
 363 808 l 1
 326 728 l 1
 311 687 l 1
 305 666 l 1
 300 645 l 1
 292 600 l 1
 285 555 l 1
 285 546 l 1
 283 541 l 1
 280 536 l 1
 273 531 l 1
 246 516 l 1
 232 511 l 1
 225 510 l 1
 218 508 l 1
 211 505 l 1
 205 502 l 1
 200 504 l 1
EndSplineSet
EndChar

StartChar: uniE083
Encoding: 57475 57475 25
Width: 858
Flags: HW
LayerCount: 2
Fore
SplineSet
410 700 m 0
 406.666666667 695.333333333 401.833333333 688.5 395.5 679.5 c 128
 389.166666667 670.5 382 660 374 648 c 128
 362 630 362 630 349 610.5 c 128
 340.333333333 597.5 332.166666667 585.166666667 324.5 573.5 c 128
 316.833333333 561.833333333 309.833333333 551.166666667 303.5 541.5 c 128
 297.166666667 531.833333333 292.666666667 524.666666667 290 520 c 0
 286 514 278.5 501.333333333 267.5 482 c 128
 256.5 462.666666667 243.166666667 439.5 227.5 412.5 c 128
 211.833333333 385.5 194.833333333 356.5 176.5 325.5 c 128
 158.166666667 294.5 140.5 264 123.5 234 c 128
 106.5 204 90.5 176.333333333 75.5 151 c 128
 60.5 125.666666667 48.6666666667 105.333333333 40 90 c 0
 32 76 24.1666666667 61.6666666667 16.5 47 c 128
 8.83333333333 32.3333333333 5 16.6666666667 5 0 c 1
 800 0 l 1
 800 40 l 2
 800 40.6666666667 795.333333333 50.1666666667 786 68.5 c 128
 776.666666667 86.8333333333 764.666666667 110.166666667 750 138.5 c 128
 735.333333333 166.833333333 718.5 198.833333333 699.5 234.5 c 128
 680.5 270.166666667 661.333333333 306 642 342 c 128
 622.666666667 378 604 412.5 586 445.5 c 128
 568 478.5 552.666666667 506.666666667 540 530 c 0
 538.666666667 532.666666667 533.833333333 540.833333333 525.5 554.5 c 128
 517.166666667 568.166666667 507.666666667 583.5 497 600.5 c 128
 486.333333333 617.5 475.666666667 634.333333333 465 651 c 128
 454.333333333 667.666666667 446 680.666666667 440 690 c 0
 436.666666667 695.333333333 433.833333333 698.5 431.5 699.5 c 128
 429.166666667 700.5 425.333333333 701 420 701 c 0
 418.666666667 701 416.833333333 700.833333333 414.5 700.5 c 128
 412.166666667 700.166666667 410.666666667 700 410 700 c 0
120 150 m 2
 410 630 l 1
 420 640 l 2
 421.333333333 639.333333333 423.166666667 637.833333333 425.5 635.5 c 128
 427.833333333 633.166666667 429.333333333 631.333333333 430 630 c 0
 434.666666667 623.333333333 441.166666667 613.333333333 449.5 600 c 128
 457.833333333 586.666666667 466.166666667 573.166666667 474.5 559.5 c 128
 482.833333333 545.833333333 490.5 533.166666667 497.5 521.5 c 128
 504.5 509.833333333 508.666666667 502.666666667 510 500 c 0
 522 478 536.333333333 451.833333333 553 421.5 c 128
 569.666666667 391.166666667 586.833333333 359.5 604.5 326.5 c 128
 622.166666667 293.5 639.666666667 260.666666667 657 228 c 128
 674.333333333 195.333333333 689.833333333 165.833333333 703.5 139.5 c 128
 717.166666667 113.166666667 728.333333333 91.8333333333 737 75.5 c 128
 745.666666667 59.1666666667 750 50.6666666667 750 50 c 2
 750 40 l 1
 60 40 l 1
 68.6666666667 59.3333333333 78.6666666667 77.6666666667 90 95 c 128
 101.333333333 112.333333333 111.333333333 130.666666667 120 150 c 2
340 112 m 1
 328 118.666666667 316 126.666666667 304 136 c 1
 293.333333333 133.333333333 289.833333333 129.833333333 293.5 125.5 c 128
 297.166666667 121.166666667 299 118.666666667 299 118 c 0
 299 111.333333333 303 105 311 99 c 128
 319 93 328.166666667 87.8333333333 338.5 83.5 c 128
 348.833333333 79.1666666667 359.333333333 75.5 370 72.5 c 128
 380.666666667 69.5 389 68 395 68 c 0
 405 68 416.166666667 69.3333333333 428.5 72 c 128
 440.833333333 74.6666666667 452.5 78.6666666667 463.5 84 c 128
 474.5 89.3333333333 483.666666667 96.1666666667 491 104.5 c 128
 498.333333333 112.833333333 502 123 502 135 c 1
 492.666666667 135 484 133.333333333 476 130 c 128
 468 126.666666667 460 123 452 119 c 128
 444 115 435.833333333 111.333333333 427.5 108 c 128
 419.166666667 104.666666667 410 103 400 103 c 0
 392 103 384.833333333 103.333333333 378.5 104 c 128
 372.166666667 104.666666667 359.333333333 107.333333333 340 112 c 1
379 264 m 0
 379 254.666666667 381.666666667 246.5 387 239.5 c 128
 392.333333333 232.5 400 229 410 229 c 0
 416.666666667 229 422.166666667 231.166666667 426.5 235.5 c 128
 430.833333333 239.833333333 434.5 245.333333333 437.5 252 c 128
 440.5 258.666666667 443 265.333333333 445 272 c 128
 447 278.666666667 440.666666667 289.333333333 426 304 c 1
 412.666666667 301.333333333 403.833333333 299.333333333 399.5 298 c 128
 395.166666667 296.666666667 390.666666667 292.166666667 386 284.5 c 128
 381.333333333 276.833333333 379 270 379 264 c 0
239 285 m 0
 239 281 239 281 239 273 c 0
 239 268.333333333 239.333333333 263.5 240 258.5 c 128
 240.666666667 253.5 242.166666667 249 244.5 245 c 128
 246.833333333 241 250.333333333 239 255 239 c 0
 255.666666667 239 256.5 239.166666667 257.5 239.5 c 128
 258.5 239.833333333 259.333333333 240 260 240 c 0
 261.333333333 258.666666667 263.166666667 275 265.5 289 c 128
 267.833333333 303 271.5 316 276.5 328 c 128
 281.5 340 288.166666667 351.666666667 296.5 363 c 128
 304.833333333 374.333333333 316 386.666666667 330 400 c 1
 330 410 l 1
 310 410 l 2
 309.333333333 410 307 408.166666667 303 404.5 c 128
 299 400.833333333 294.333333333 396.333333333 289 391 c 128
 283.666666667 385.666666667 278.333333333 380.166666667 273 374.5 c 128
 267.666666667 368.833333333 263.333333333 364 260 360 c 0
 251.333333333 350 245.666666667 338 243 324 c 128
 240.333333333 310 239 297 239 285 c 0
340 380 m 1
 333.333333333 366.666666667 325.333333333 355.333333333 316 346 c 128
 306.666666667 336.666666667 299.666666667 326.666666667 295 316 c 128
 290.333333333 305.333333333 287.833333333 293.333333333 287.5 280 c 128
 287.166666667 266.666666667 287 252 287 236 c 1
 289 236 293.333333333 242.333333333 300 255 c 128
 306.666666667 267.666666667 313.833333333 281.666666667 321.5 297 c 128
 329.166666667 312.333333333 336 327 342 341 c 128
 348 355 351 363 351 365 c 0
 351 365.666666667 350.833333333 366.666666667 350.5 368 c 128
 350 370 350 370 350 370 c 2
 349.333333333 371.333333333 347.833333333 373.166666667 345.5 375.5 c 128
 343.166666667 377.833333333 341.333333333 379.333333333 340 380 c 1
370 340 m 0
 362 337.333333333 356 330.666666667 352 320 c 128
 348 309.333333333 344 299.333333333 340 290 c 128
 336 280.666666667 332.666666667 271.333333333 330 262 c 128
 327.333333333 252.666666667 326 245.333333333 326 240 c 1
 350 240 l 1
 350 248 351.666666667 255.833333333 355 263.5 c 128
 358.333333333 271.166666667 362 278.5 366 285.5 c 128
 370 292.5 373.5 299.333333333 376.5 306 c 128
 379.5 312.666666667 381 319 381 325 c 0
 381 325.666666667 380.833333333 326.666666667 380.5 328 c 128
 380 330 380 330 380 330 c 2
 378.666666667 331.333333333 377 333.333333333 375 336 c 128
 373 338.666666667 371.333333333 340 370 340 c 0
459 355 m 0
 459 354.333333333 459.166666667 353.333333333 459.5 352 c 128
 460 350 460 350 460 350 c 2
 460.666666667 348.666666667 463 346.166666667 467 342.5 c 128
 471 338.833333333 475.333333333 334.833333333 480 330.5 c 128
 484.666666667 326.166666667 489 322 493 318 c 128
 497 314 499.333333333 311.333333333 500 310 c 0
 501.333333333 308 503 304.166666667 505 298.5 c 128
 507 292.833333333 509.166666667 286.833333333 511.5 280.5 c 128
 513.833333333 274.166666667 515.833333333 268.166666667 517.5 262.5 c 128
 519.166666667 256.833333333 520 252.666666667 520 250 c 1
 520.666666667 250 521.5 249.833333333 522.5 249.5 c 128
 523.5 249.166666667 524.333333333 249 525 249 c 0
 534.333333333 249 539.333333333 252.833333333 540 260.5 c 128
 540.666666667 268.166666667 541 274.666666667 541 280 c 0
 536.333333333 297.333333333 530.833333333 313.333333333 524.5 328 c 128
 518.166666667 342.666666667 505.333333333 354 486 362 c 1
 476 370 469 372.5 465 369.5 c 128
 461 366.5 459 361.666666667 459 355 c 0
494 386 m 1
 514 376 526.666666667 365.833333333 532 355.5 c 128
 537.333333333 345.166666667 543.666666667 334.333333333 551 323 c 128
 558.333333333 311.666666667 561.333333333 299.166666667 560 285.5 c 128
 558.666666667 271.833333333 562 263.333333333 570 260 c 0
 574 260.666666667 576.833333333 263 578.5 267 c 128
 580.166666667 271 581.166666667 275.333333333 581.5 280 c 128
 581.833333333 284.666666667 581.833333333 289.166666667 581.5 293.5 c 128
 581.166666667 297.833333333 581 300.333333333 581 301 c 0
 581 311.666666667 579.166666667 323.5 575.5 336.5 c 128
 571.833333333 349.5 566.333333333 361.5 559 372.5 c 128
 551.666666667 383.5 542.833333333 392.833333333 532.5 400.5 c 128
 522.166666667 408.166666667 510.333333333 412 497 412 c 1
 497 401.333333333 496 392.666666667 494 386 c 1
438 316 m 1
 462 284 462 284 468 276 c 128
 472 270.666666667 472.666666667 262 470 250 c 1
 470 250 470 250 471.5 249.5 c 128
 472.5 249.166666667 473.333333333 249 474 249 c 0
 482 249 486.833333333 252 488.5 258 c 128
 490.166666667 264 491 269.666666667 491 275 c 0
 491 287.666666667 484.833333333 299 472.5 309 c 128
 460.166666667 319 451 326 445 330 c 1
 438 316 l 1
418 184 m 0
 429.333333333 184.666666667 437.5 187.833333333 442.5 193.5 c 128
 447.5 199.166666667 450.666666667 203 452 205 c 2
 452 205 452 205 452.5 206.5 c 128
 452.833333333 207.5 453 208.333333333 453 209 c 256
 453 209.666666667 452.833333333 210.333333333 452.5 211 c 128
 452 212 452 212 452 212 c 2
 450.666666667 213.333333333 449 214.833333333 447 216.5 c 128
 445 218.166666667 443.333333333 219 442 219 c 256
 440.666666667 219 437.333333333 217.833333333 432 215.5 c 128
 426.666666667 213.166666667 423.333333333 212 422 212 c 256
 420 212 420 212 411 212 c 256
 402 212 402 212 392 212 c 256
 382 212 382 212 373 212 c 256
 364 212 364 212 362 212 c 256
 360.666666667 212 355.666666667 210.666666667 347 208 c 128
 338.333333333 205.333333333 343.333333333 196.666666667 362 182 c 1
 372 182 l 2
 375.333333333 181.333333333 379.833333333 181 385.5 181 c 128
 391.166666667 181 402 182 418 184 c 0
316 164 m 1
 324 153.333333333 342.5 144.666666667 371.5 138 c 128
 400.5 131.333333333 421.666666667 129.833333333 435 133.5 c 128
 448.333333333 137.166666667 460 142.5 470 149.5 c 128
 480 156.5 485 166.666666667 485 180 c 1
 483.666666667 180 481.166666667 179.833333333 477.5 179.5 c 128
 473.833333333 179.166666667 471.333333333 179 470 179 c 0
 467.333333333 178.333333333 462.166666667 177 454.5 175 c 128
 446.833333333 173 436.666666667 167.333333333 424 158 c 1
 420 160 405 161.5 379 162.5 c 128
 353 163.5 332 164 316 164 c 1
EndSplineSet
EndChar

StartChar: uniE084
Encoding: 57476 57476 26
Width: 326
Flags: HW
LayerCount: 2
Fore
SplineSet
69 148 m 0
 69 137.333333333 72.8333333333 123.5 80.5 106.5 c 128
 88.1666666667 89.5 97 73 107 57 c 128
 117 41 126.666666667 27.3333333333 136 16 c 128
 145.333333333 4.66666666667 151.666666667 -1 155 -1 c 0
 159 -1 162.166666667 0.166666666667 164.5 2.5 c 128
 166.833333333 4.83333333333 168.666666667 7.83333333333 170 11.5 c 128
 171.333333333 15.1666666667 172.666666667 18.6666666667 174 22 c 128
 175.333333333 25.3333333333 177.333333333 28 180 30 c 0
 190.666666667 38.6666666667 201.5 46.3333333333 212.5 53 c 128
 223.5 59.6666666667 233.333333333 66.8333333333 242 74.5 c 128
 250.666666667 82.1666666667 257.666666667 91.3333333333 263 102 c 128
 268.333333333 112.666666667 271 126.333333333 271 143 c 0
 271 161 268 178.833333333 262 196.5 c 128
 256 214.166666667 245.333333333 228.666666667 230 240 c 1
 238 248.666666667 244 256.666666667 248 264 c 128
 252 271.333333333 255 278.5 257 285.5 c 128
 259 292.5 260.166666667 299.666666667 260.5 307 c 128
 260.833333333 314.333333333 261 322.666666667 261 332 c 0
 261 342 259.333333333 351.333333333 256 360 c 128
 252.666666667 368.666666667 249.166666667 376.5 245.5 383.5 c 128
 241.833333333 390.5 238.333333333 397 235 403 c 128
 231.666666667 409 230 414.666666667 230 420 c 0
 230 420.666666667 231 423 233 427 c 128
 236 433 236 433 239.5 440 c 128
 241.833333333 444.666666667 244 448.833333333 246 452.5 c 128
 248 456.166666667 249.333333333 458.666666667 250 460 c 0
 250 460.666666667 250.5 462.666666667 251.5 466 c 128
 252.5 469.333333333 253.5 473.166666667 254.5 477.5 c 128
 256 484 256 484 257.5 490.5 c 128
 258.5 494.833333333 259.333333333 498 260 500 c 2
 260 505 l 1
 260 510 l 2
 258.666666667 516.666666667 255.333333333 525 250 535 c 128
 244.666666667 545 239 554.833333333 233 564.5 c 128
 227 574.166666667 221.5 582.833333333 216.5 590.5 c 128
 211.5 598.166666667 209 603 209 605 c 0
 209 607.666666667 212.666666667 612.166666667 220 618.5 c 128
 227.333333333 624.833333333 235.5 632.833333333 244.5 642.5 c 128
 253.5 652.166666667 261.833333333 663.166666667 269.5 675.5 c 128
 277.166666667 687.833333333 281 701.666666667 281 717 c 0
 281 725 280.166666667 733.5 278.5 742.5 c 128
 276.833333333 751.5 274 759.5 270 766.5 c 128
 266 773.5 260.666666667 779.333333333 254 784 c 128
 247.333333333 788.666666667 239 791 229 791 c 0
 222.333333333 791 216.333333333 789.833333333 211 787.5 c 128
 205.666666667 785.166666667 202 779.333333333 200 770 c 0
 198 763.333333333 199.166666667 757.833333333 203.5 753.5 c 128
 207.833333333 749.166666667 212.833333333 745.166666667 218.5 741.5 c 128
 224.166666667 737.833333333 229.5 733.666666667 234.5 729 c 128
 239.5 724.333333333 242 718 242 710 c 0
 242 695.333333333 239.666666667 684.5 235 677.5 c 128
 230.333333333 670.5 224.333333333 665.666666667 217 663 c 128
 209.666666667 660.333333333 201.333333333 659 192 659 c 0
 179 659 179 659 165 659 c 1
 165 750 l 2
 165 750.666666667 163 752.166666667 159 754.5 c 128
 155 756.833333333 152 758.666666667 150 760 c 2
 150 760 150 760 148 760.5 c 128
 146.666666667 760.833333333 145.666666667 761 145 761 c 256
 144.333333333 761 143.333333333 760.833333333 142 760.5 c 128
 140 760 140 760 140 760 c 2
 138.666666667 758.666666667 136.666666667 757 134 755 c 128
 131.333333333 753 130 751.333333333 130 750 c 2
 130 642 l 1
 126 642 119.5 641.833333333 110.5 641.5 c 128
 101.5 641.166666667 92.5 641.833333333 83.5 643.5 c 128
 74.5 645.166666667 66.6666666667 648 60 652 c 128
 53.3333333333 656 50 662 50 670 c 2
 50 740 l 1
 54.6666666667 741.333333333 61 744.166666667 69 748.5 c 128
 77 752.833333333 81 758.333333333 81 765 c 0
 81 765.666666667 80.8333333333 766.666666667 80.5 768 c 128
 80 770 80 770 80 770 c 2
 78.6666666667 772 75.5 775.5 70.5 780.5 c 128
 65.5 785.5 62 788.666666667 60 790 c 2
 60 790 60 790 58.5 790.5 c 128
 57.5 790.833333333 56.3333333333 791 55 791 c 0
 45 791 36.8333333333 788 30.5 782 c 128
 24.1666666667 776 19.5 768.666666667 16.5 760 c 128
 13.5 751.333333333 11.5 742.166666667 10.5 732.5 c 128
 9.5 722.833333333 9 714.333333333 9 707 c 0
 9 652.333333333 36 616.666666667 90 600 c 1
 79.3333333333 586 69.8333333333 571.333333333 61.5 556 c 128
 53.1666666667 540.666666667 49 524.333333333 49 507 c 0
 49 498.333333333 50.6666666667 490 54 482 c 128
 57.3333333333 474 60.8333333333 466.166666667 64.5 458.5 c 128
 68.1666666667 450.833333333 71.6666666667 443.333333333 75 436 c 128
 78.3333333333 428.666666667 80 421.666666667 80 415 c 0
 80 407.666666667 78.8333333333 400.5 76.5 393.5 c 128
 74.1666666667 386.5 71.8333333333 379.666666667 69.5 373 c 128
 67.1666666667 366.333333333 64.8333333333 359.5 62.5 352.5 c 128
 60.1666666667 345.5 59 338 59 330 c 0
 59 312.666666667 62 295.833333333 68 279.5 c 128
 74 263.166666667 84.6666666667 250 100 240 c 1
 92 230.666666667 86 222.5 82 215.5 c 128
 78 208.5 75 201.5 73 194.5 c 128
 71 187.5 69.8333333333 180.333333333 69.5 173 c 128
 69.1666666667 165.666666667 69 157.333333333 69 148 c 0
180 220 m 1
 199.333333333 214.666666667 214.333333333 203.833333333 225 187.5 c 128
 235.666666667 171.166666667 241 153.666666667 241 135 c 0
 241 117.666666667 235.166666667 103.833333333 223.5 93.5 c 128
 211.833333333 83.1666666667 197.333333333 78 180 78 c 1
 180 220 l 1
89 146 m 0
 89 152 89.8333333333 158.5 91.5 165.5 c 128
 93.1666666667 172.5 95.6666666667 179.333333333 99 186 c 128
 102.333333333 192.666666667 106.5 198.333333333 111.5 203 c 128
 116.5 207.666666667 122.666666667 210 130 210 c 1
 130 87 l 1
 123.333333333 87 117.5 89.1666666667 112.5 93.5 c 128
 107.5 97.8333333333 103.166666667 103 99.5 109 c 128
 95.8333333333 115 93.1666666667 121.333333333 91.5 128 c 128
 89.8333333333 134.666666667 89 140.666666667 89 146 c 0
89 330 m 256
 89 337.333333333 89.3333333333 344.833333333 90 352.5 c 128
 90.6666666667 360.166666667 92.5 367 95.5 373 c 128
 98.5 379 102.666666667 383.833333333 108 387.5 c 128
 113.333333333 391.166666667 120.666666667 393 130 393 c 1
 130 268 l 1
 120.666666667 268 113.333333333 269.833333333 108 273.5 c 128
 102.666666667 277.166666667 98.5 282 95.5 288 c 128
 92.5 294 90.6666666667 300.666666667 90 308 c 128
 89.3333333333 315.333333333 89 322.666666667 89 330 c 256
170 390 m 2
 170.666666667 390 172.166666667 390.166666667 174.5 390.5 c 128
 176.833333333 390.833333333 178.666666667 391 180 391 c 0
 197.333333333 391 210.166666667 384 218.5 370 c 128
 226.833333333 356 231 341.333333333 231 326 c 0
 231 320 230 313.666666667 228 307 c 128
 226 300.333333333 223.333333333 294.166666667 220 288.5 c 128
 216.666666667 282.833333333 212.5 278.166666667 207.5 274.5 c 128
 202.5 270.833333333 196.666666667 269 190 269 c 0
 188.666666667 269 186.833333333 269.166666667 184.5 269.5 c 128
 182.166666667 269.833333333 180.666666667 270 180 270 c 2
 170 390 l 2
79 505 m 256
 79 512.333333333 80 520 82 528 c 128
 84 536 87 543.166666667 91 549.5 c 128
 95 555.833333333 100.166666667 561.166666667 106.5 565.5 c 128
 112.833333333 569.833333333 120.666666667 572 130 572 c 1
 130 438 l 1
 120.666666667 438 112.833333333 440 106.5 444 c 128
 100.166666667 448 95 453.333333333 91 460 c 128
 87 466.666666667 84 474 82 482 c 128
 80 490 79 497.666666667 79 505 c 256
170 570 m 1
 185.333333333 566 197.666666667 558.5 207 547.5 c 128
 216.333333333 536.5 221 523.333333333 221 508 c 0
 221 502 220.333333333 495.166666667 219 487.5 c 128
 217.666666667 479.833333333 215.5 472.5 212.5 465.5 c 128
 209.5 458.5 205.333333333 452.5 200 447.5 c 128
 194.666666667 442.5 188 440 180 440 c 0
 178.666666667 440 176.666666667 441.333333333 174 444 c 128
 171.333333333 446.666666667 170 448.666666667 170 450 c 2
 170 570 l 1
EndSplineSet
EndChar

StartChar: uniE085
Encoding: 57477 57477 27
Width: 854
Flags: HW
LayerCount: 2
Fore
SplineSet
9 305 m 0
 9 261.666666667 16.6666666667 221.333333333 32 184 c 128
 47.3333333333 146.666666667 68.6666666667 114.333333333 96 87 c 128
 123.333333333 59.6666666667 155.666666667 38.1666666667 193 22.5 c 128
 230.333333333 6.83333333333 271 -1 315 -1 c 0
 357.666666667 -1 398.5 6.83333333333 437.5 22.5 c 128
 476.5 38.1666666667 511 59.8333333333 541 87.5 c 128
 571 115.166666667 595 148 613 186 c 128
 631 224 640 265.333333333 640 310 c 0
 640 329.333333333 638.333333333 346.833333333 635 362.5 c 128
 631.666666667 378.166666667 627.166666667 393.333333333 621.5 408 c 128
 615.833333333 422.666666667 609.5 437.333333333 602.5 452 c 128
 595.5 466.666666667 588 482.666666667 580 500 c 1
 580 500 580 500 579.5 502 c 128
 579.166666667 503.333333333 579 504.333333333 579 505 c 0
 579 506.333333333 579.166666667 507.5 579.5 508.5 c 128
 580 510 580 510 580 510 c 1
 730 660 l 1
 730 650 l 2
 730 636.666666667 728.333333333 623.166666667 725 609.5 c 128
 721.666666667 595.833333333 720 582.333333333 720 569 c 256
 720 555.666666667 726.666666667 549 740 549 c 0
 744 549 747.833333333 549.5 751.5 550.5 c 128
 755.166666667 551.5 758 554.666666667 760 560 c 0
 762 566.666666667 764.833333333 578.5 768.5 595.5 c 128
 772.166666667 612.5 776.166666667 630.666666667 780.5 650 c 128
 784.833333333 669.333333333 788.833333333 687.5 792.5 704.5 c 128
 796.166666667 721.5 798.666666667 733.333333333 800 740 c 0
 800.666666667 742 801.333333333 747.166666667 802 755.5 c 128
 802.666666667 763.833333333 803 769.333333333 803 772 c 1
 761.666666667 772 720.666666667 767.5 680 758.5 c 128
 639.333333333 749.5 599.333333333 740 560 730 c 0
 554.666666667 728 551.5 725.166666667 550.5 721.5 c 128
 549.5 717.833333333 549 714 549 710 c 0
 549 696 555.666666667 689 569 689 c 0
 570.333333333 689 572.333333333 689.166666667 575 689.5 c 128
 577.666666667 689.833333333 579.333333333 690 580 690 c 2
 680 710 l 1
 690 710 l 1
 700 710 l 1
 540 550 l 1
 520 560 l 2
 503.333333333 569.333333333 487.833333333 577.833333333 473.5 585.5 c 128
 459.166666667 593.166666667 444.5 599.666666667 429.5 605 c 128
 414.5 610.333333333 399 614.333333333 383 617 c 128
 367 619.666666667 349 621 329 621 c 0
 283.666666667 621 241.5 613.166666667 202.5 597.5 c 128
 163.5 581.833333333 129.666666667 560 101 532 c 128
 72.3333333333 504 49.8333333333 470.666666667 33.5 432 c 128
 17.1666666667 393.333333333 9 351 9 305 c 0
49 305 m 0
 49 343 56 378.333333333 70 411 c 128
 84 443.666666667 103.333333333 471.833333333 128 495.5 c 128
 152.666666667 519.166666667 181.333333333 537.666666667 214 551 c 128
 246.666666667 564.333333333 282 571 320 571 c 0
 356.666666667 571 391.5 564.333333333 424.5 551 c 128
 457.5 537.666666667 486.333333333 519.333333333 511 496 c 128
 535.666666667 472.666666667 555.166666667 444.666666667 569.5 412 c 128
 583.833333333 379.333333333 591 343.666666667 591 305 c 0
 591 265 583.666666667 228.666666667 569 196 c 128
 554.333333333 163.333333333 534.333333333 135.333333333 509 112 c 128
 483.666666667 88.6666666667 454.166666667 70.6666666667 420.5 58 c 128
 386.833333333 45.3333333333 350.666666667 39 312 39 c 0
 276 39 242 46.1666666667 210 60.5 c 128
 178 74.8333333333 150 94 126 118 c 128
 102 142 83.1666666667 170.166666667 69.5 202.5 c 128
 55.8333333333 234.833333333 49 269 49 305 c 0
EndSplineSet
EndChar

StartChar: uniE086
Encoding: 57478 57478 28
Width: 844
Flags: HW
LayerCount: 2
Fore
SplineSet
9 395 m 256
 9 341 18.8333333333 290 38.5 242 c 128
 58.1666666667 194 85.3333333333 152 120 116 c 128
 154.666666667 80 195.666666667 51.5 243 30.5 c 128
 290.333333333 9.5 341.666666667 -1 397 -1 c 0
 450.333333333 -1 500.833333333 9 548.5 29 c 128
 596.166666667 49 638 76.5 674 111.5 c 128
 710 146.5 738.5 187.5 759.5 234.5 c 128
 780.5 281.5 791 332.333333333 791 387 c 0
 791 442.333333333 781 494.5 761 543.5 c 128
 741 592.5 713.5 635.333333333 678.5 672 c 128
 643.5 708.666666667 602.166666667 737.666666667 554.5 759 c 128
 506.833333333 780.333333333 455.333333333 791 400 791 c 0
 345.333333333 791 294.333333333 780.5 247 759.5 c 128
 199.666666667 738.5 158.333333333 710 123 674 c 128
 87.6666666667 638 59.8333333333 596 39.5 548 c 128
 19.1666666667 500 9 449 9 395 c 256
55 360 m 1
 360 360 l 1
 360 43 l 1
 319.333333333 47.6666666667 280.666666667 59 244 77 c 128
 207.333333333 95 175.166666667 118 147.5 146 c 128
 119.833333333 174 97.5 206.166666667 80.5 242.5 c 128
 63.5 278.833333333 55 318 55 360 c 1
430 360 m 1
 752 360 l 1
 752 319.333333333 742.666666667 279.666666667 724 241 c 128
 705.333333333 202.333333333 681 168 651 138 c 128
 621 108 586.666666667 83.8333333333 548 65.5 c 128
 509.333333333 47.1666666667 470 38 430 38 c 1
 430 360 l 1
360 733 m 1
 360 430 l 1
 51 430 l 1
 51 466.666666667 60 503 78 539 c 128
 96 575 119.5 607.333333333 148.5 636 c 128
 177.5 664.666666667 210.5 688 247.5 706 c 128
 284.5 724 322 733 360 733 c 1
430 737 m 2
 431.333333333 737 435.833333333 737.166666667 443.5 737.5 c 128
 451.166666667 737.833333333 456 738 458 738 c 0
 493.333333333 738 527.833333333 728.5 561.5 709.5 c 128
 595.166666667 690.5 625.166666667 666.166666667 651.5 636.5 c 128
 677.833333333 606.833333333 699.166666667 574 715.5 538 c 128
 731.833333333 502 740 466 740 430 c 1
 430 430 l 1
 430 737 l 2
EndSplineSet
EndChar

StartChar: uniE087
Encoding: 57479 57479 29
Width: 854
Flags: HW
LayerCount: 2
Fore
SplineSet
9 237 m 0
 9 205 14.8333333333 174.5 26.5 145.5 c 128
 38.1666666667 116.5 54.3333333333 91.1666666667 75 69.5 c 128
 95.6666666667 47.8333333333 120 30.6666666667 148 18 c 128
 176 5.33333333333 206.666666667 -1 240 -1 c 0
 255.333333333 -1 270.5 1.66666666667 285.5 7 c 128
 300.5 12.3333333333 315 18.1666666667 329 24.5 c 128
 343 30.8333333333 356.333333333 36.6666666667 369 42 c 128
 381.666666667 47.3333333333 393.666666667 50 405 50 c 0
 414.333333333 50 424.833333333 47.8333333333 436.5 43.5 c 128
 448.166666667 39.1666666667 460.666666667 34.5 474 29.5 c 128
 487.333333333 24.5 501.333333333 19.8333333333 516 15.5 c 128
 530.666666667 11.1666666667 546 9 562 9 c 0
 594.666666667 9 625.5 14.8333333333 654.5 26.5 c 128
 683.5 38.1666666667 708.833333333 54.5 730.5 75.5 c 128
 752.166666667 96.5 769.333333333 121.5 782 150.5 c 128
 794.666666667 179.5 801 211 801 245 c 0
 801 277.666666667 794.833333333 308.333333333 782.5 337 c 128
 770.166666667 365.666666667 753.5 390.666666667 732.5 412 c 128
 711.5 433.333333333 686.833333333 450.166666667 658.5 462.5 c 128
 630.166666667 474.833333333 600 481 568 481 c 0
 550.666666667 481 535.166666667 480 521.5 478 c 128
 507.833333333 476 494.5 473 481.5 469 c 128
 468.5 465 455.5 459.666666667 442.5 453 c 128
 429.5 446.333333333 415.333333333 438.666666667 400 430 c 1
 384.666666667 438.666666667 371.166666667 445.666666667 359.5 451 c 128
 347.833333333 456.333333333 336.5 460.5 325.5 463.5 c 128
 314.5 466.5 302.833333333 468.5 290.5 469.5 c 128
 278.166666667 470.5 263 471 245 471 c 0
 210.333333333 471 178.5 465.5 149.5 454.5 c 128
 120.5 443.5 95.6666666667 427.666666667 75 407 c 128
 54.3333333333 386.333333333 38.1666666667 361.666666667 26.5 333 c 128
 14.8333333333 304.333333333 9 272.333333333 9 237 c 0
49 235 m 0
 49 264.333333333 53.5 291.5 62.5 316.5 c 128
 71.5 341.5 84.5 363.333333333 101.5 382 c 128
 118.5 400.666666667 139.166666667 415.166666667 163.5 425.5 c 128
 187.833333333 435.833333333 215 441 245 441 c 0
 254.333333333 441 265 440.5 277 439.5 c 128
 289 438.5 301 436.666666667 313 434 c 128
 325 431.333333333 336.166666667 427.166666667 346.5 421.5 c 128
 356.833333333 415.833333333 364.666666667 408.666666667 370 400 c 1
 362.666666667 384 356.5 370.166666667 351.5 358.5 c 128
 346.5 346.833333333 342.333333333 335.333333333 339 324 c 128
 335.666666667 312.666666667 333.166666667 300.833333333 331.5 288.5 c 128
 329.833333333 276.166666667 329 261.666666667 329 245 c 0
 329 229 331.166666667 213.833333333 335.5 199.5 c 128
 339.833333333 185.166666667 344.5 171.5 349.5 158.5 c 128
 354.5 145.5 359.166666667 133 363.5 121 c 128
 367.833333333 109 370 97 370 85 c 0
 370 75 364.333333333 66.6666666667 353 60 c 128
 341.666666667 53.3333333333 328.5 47.6666666667 313.5 43 c 128
 298.5 38.3333333333 283.833333333 35 269.5 33 c 128
 255.166666667 31 245.333333333 30 240 30 c 0
 209.333333333 30 182.166666667 35.5 158.5 46.5 c 128
 134.833333333 57.5 114.833333333 72.3333333333 98.5 91 c 128
 82.1666666667 109.666666667 69.8333333333 131.5 61.5 156.5 c 128
 53.1666666667 181.5 49 207.666666667 49 235 c 0
439 90 m 0
 439 102 441.166666667 114 445.5 126 c 128
 449.833333333 138 454.666666667 150 460 162 c 128
 465.333333333 174 470.166666667 186.333333333 474.5 199 c 128
 478.833333333 211.666666667 481 224.666666667 481 238 c 0
 481 252.666666667 478.833333333 266.833333333 474.5 280.5 c 128
 470.166666667 294.166666667 465.333333333 307.333333333 460 320 c 128
 454.666666667 332.666666667 449.833333333 344.666666667 445.5 356 c 128
 441.166666667 367.333333333 439 378.666666667 439 390 c 0
 439 402 444.166666667 411.833333333 454.5 419.5 c 128
 464.833333333 427.166666667 476.833333333 433.166666667 490.5 437.5 c 128
 504.166666667 441.833333333 518 445 532 447 c 128
 546 449 557 450 565 450 c 0
 594.333333333 450 621.166666667 444.5 645.5 433.5 c 128
 669.833333333 422.5 690.5 407.666666667 707.5 389 c 128
 724.5 370.333333333 737.666666667 348.666666667 747 324 c 128
 756.333333333 299.333333333 761 273 761 245 c 0
 761 215 756.333333333 187.5 747 162.5 c 128
 737.666666667 137.5 724.333333333 115.833333333 707 97.5 c 128
 689.666666667 79.1666666667 668.5 64.8333333333 643.5 54.5 c 128
 618.5 44.1666666667 590.666666667 39 560 39 c 0
 552.666666667 39 542.166666667 39.6666666667 528.5 41 c 128
 514.833333333 42.3333333333 501.333333333 44.6666666667 488 48 c 128
 474.666666667 51.3333333333 463.166666667 56.3333333333 453.5 63 c 128
 443.833333333 69.6666666667 439 78.6666666667 439 90 c 0
359 240 m 256
 359 246.666666667 359.666666667 256.666666667 361 270 c 128
 362.333333333 283.333333333 364.666666667 296.666666667 368 310 c 128
 371.333333333 323.333333333 376 335.166666667 382 345.5 c 128
 388 355.833333333 395.666666667 361 405 361 c 0
 405.666666667 361 406.5 360.833333333 407.5 360.5 c 128
 408.5 360.166666667 409.333333333 360 410 360 c 0
 418.666666667 350.666666667 425.333333333 341.333333333 430 332 c 128
 434.666666667 322.666666667 437.833333333 313.166666667 439.5 303.5 c 128
 441.166666667 293.833333333 442 283.666666667 442 273 c 256
 442 257 442 257 442 240 c 256
 442 223 442 223 442 207 c 256
 442 196.333333333 441.166666667 186.166666667 439.5 176.5 c 128
 437.833333333 166.833333333 434.666666667 157.333333333 430 148 c 128
 425.333333333 138.666666667 418.666666667 129.333333333 410 120 c 0
 409.333333333 120 408.5 119.833333333 407.5 119.5 c 128
 406.5 119.166666667 405.666666667 119 405 119 c 0
 395.666666667 119 388 124 382 134 c 128
 376 144 371.333333333 155.833333333 368 169.5 c 128
 364.666666667 183.166666667 362.333333333 196.666666667 361 210 c 128
 359.666666667 223.333333333 359 233.333333333 359 240 c 256
EndSplineSet
EndChar

StartChar: uniE088
Encoding: 57480 57480 30
Width: 846
Flags: HW
LayerCount: 2
Fore
SplineSet
188 24 m 0
 188 12.6666666667 192.5 5.83333333333 201.5 3.5 c 128
 210.5 1.16666666667 220 0 230 0 c 2
 240 0 l 2
 242 0 245.333333333 0.5 250 1.5 c 128
 254.666666667 2.5 259.666666667 3.5 265 4.5 c 128
 270.333333333 5.5 275.333333333 6.5 280 7.5 c 128
 284.666666667 8.5 288 9.33333333333 290 10 c 0
 290.666666667 11.3333333333 291.166666667 13.8333333333 291.5 17.5 c 128
 291.833333333 21.1666666667 292 23.6666666667 292 25 c 0
 292 31 291 37.1666666667 289 43.5 c 128
 287 49.8333333333 280.666666667 52 270 50 c 1
 270.666666667 52 272 55.1666666667 274 59.5 c 128
 276 63.8333333333 278.5 68.3333333333 281.5 73 c 128
 284.5 77.6666666667 287.666666667 81.6666666667 291 85 c 128
 294.333333333 88.3333333333 297.333333333 90 300 90 c 2
 490 90 l 2
 492.666666667 90 495.666666667 87.3333333333 499 82 c 128
 502.333333333 76.6666666667 505 71.8333333333 507 67.5 c 128
 509 63.1666666667 510 60.6666666667 510 60 c 2
 510 55 l 1
 510 50 l 2
 509.333333333 49.3333333333 507.5 47.6666666667 504.5 45 c 128
 501.5 42.3333333333 500 40.6666666667 500 40 c 0
 499.333333333 36.6666666667 498.5 30 497.5 20 c 128
 496.5 10 496 3.33333333333 496 0 c 1
 600 0 l 2
 603.333333333 0 605.833333333 1.16666666667 607.5 3.5 c 128
 609.166666667 5.83333333333 610.166666667 8.5 610.5 11.5 c 128
 610.833333333 14.5 611 17.3333333333 611 20 c 0
 611 25 611 25 611 27 c 0
 611 33.6666666667 608 39.1666666667 602 43.5 c 128
 596 47.8333333333 589.166666667 52.3333333333 581.5 57 c 128
 573.833333333 61.6666666667 567 67.1666666667 561 73.5 c 128
 555 79.8333333333 552 88.6666666667 552 100 c 1
 620 100 l 2
 620.666666667 100 623.5 96.1666666667 628.5 88.5 c 128
 633.5 80.8333333333 637.333333333 74.6666666667 640 70 c 0
 641.333333333 67.3333333333 643.333333333 63.5 646 58.5 c 128
 648.666666667 53.5 650 50.6666666667 650 50 c 0
 650 48.6666666667 648.333333333 45.3333333333 645 40 c 128
 641.666666667 34.6666666667 640 31.3333333333 640 30 c 0
 639.333333333 27.3333333333 638.666666667 21.5 638 12.5 c 128
 637.333333333 3.5 637 -2 637 -4 c 1
 641 -4 647.833333333 -3.83333333333 657.5 -3.5 c 128
 667.166666667 -3.16666666667 677.5 -2.83333333333 688.5 -2.5 c 128
 699.5 -2.16666666667 709.833333333 -1.66666666667 719.5 -1 c 128
 729.166666667 -0.333333333333 736 0 740 0 c 0
 742.666666667 0 746.5 1.33333333333 751.5 4 c 128
 756.5 6.66666666667 759.333333333 8.66666666667 760 10 c 0
 762.666666667 22 760.333333333 30.1666666667 753 34.5 c 128
 745.666666667 38.8333333333 736.666666667 43.1666666667 726 47.5 c 128
 715.333333333 51.8333333333 705.5 57.8333333333 696.5 65.5 c 128
 687.5 73.1666666667 683 86.3333333333 683 105 c 1
 790 105 l 2
 795.333333333 105 798.5 108.333333333 799.5 115 c 128
 800.5 121.666666667 801 126.666666667 801 130 c 256
 801 133.333333333 800.5 137.5 799.5 142.5 c 128
 798.5 147.5 795.333333333 150 790 150 c 2
 650 150 l 2
 645.333333333 150 641.833333333 151.833333333 639.5 155.5 c 128
 637.166666667 159.166666667 635.5 163.5 634.5 168.5 c 128
 633.5 173.5 632.833333333 178.5 632.5 183.5 c 128
 632.166666667 188.5 632 192.333333333 632 195 c 1
 740 195 l 1
 740 235 l 1
 600 235 l 2
 599.333333333 235 597.833333333 236.833333333 595.5 240.5 c 128
 593.166666667 244.166666667 591.333333333 247.333333333 590 250 c 2
 570 290 l 1
 574 290 581.333333333 290.333333333 592 291 c 128
 602.666666667 291.666666667 613.833333333 292.5 625.5 293.5 c 128
 637.166666667 294.5 648.166666667 295.666666667 658.5 297 c 128
 668.833333333 298.333333333 676 299.333333333 680 300 c 0
 684.666666667 300.666666667 691 303.5 699 308.5 c 128
 707 313.5 711 319 711 325 c 0
 711 325.666666667 710.833333333 326.666666667 710.5 328 c 128
 710 330 710 330 710 330 c 2
 709.333333333 331.333333333 707.833333333 333.166666667 705.5 335.5 c 128
 703.166666667 337.833333333 701.333333333 339.333333333 700 340 c 0
 673.333333333 338.666666667 646.5 338.5 619.5 339.5 c 128
 592.5 340.5 566 344 540 350 c 1
 520 390 l 1
 520 395 l 1
 520 400 l 1
 542.666666667 406 573 409.166666667 611 409.5 c 128
 649 409.833333333 668.666666667 413.333333333 670 420 c 0
 670 420.666666667 670.166666667 422.166666667 670.5 424.5 c 128
 670.833333333 426.833333333 671 428.666666667 671 430 c 0
 671 433.333333333 670.5 437.5 669.5 442.5 c 128
 668.5 447.5 665.333333333 450 660 450 c 2
 500 450 l 2
 490 450 482.166666667 455.333333333 476.5 466 c 128
 470.833333333 476.666666667 465.5 488.166666667 460.5 500.5 c 128
 455.5 512.833333333 449.5 524.333333333 442.5 535 c 128
 435.5 545.666666667 425.666666667 551 413 551 c 0
 411 551 408.333333333 550.833333333 405 550.5 c 128
 400 550 400 550 400 550 c 1
 340 455 l 1
 140 455 l 2
 138.666666667 455 136.666666667 453.166666667 134 449.5 c 128
 131.333333333 445.833333333 130 442.666666667 130 440 c 0
 130 428.666666667 134.666666667 421.166666667 144 417.5 c 128
 153.333333333 413.833333333 162 411.333333333 170 410 c 0
 174.666666667 409.333333333 183.166666667 408.5 195.5 407.5 c 128
 207.833333333 406.5 220.833333333 405.5 234.5 404.5 c 128
 248.166666667 403.5 261.166666667 402.5 273.5 401.5 c 128
 285.833333333 400.5 294.666666667 400 300 400 c 1
 298.666666667 396.666666667 296.5 391.666666667 293.5 385 c 128
 290.5 378.333333333 287.166666667 371.666666667 283.5 365 c 128
 279.833333333 358.333333333 276 352.5 272 347.5 c 128
 268 342.5 264 340 260 340 c 2
 97 340 l 1
 97 337.333333333 97.3333333333 332.333333333 98 325 c 128
 98.6666666667 317.666666667 99.3333333333 312.666666667 100 310 c 128
 100.666666667 307.333333333 102.166666667 304.166666667 104.5 300.5 c 128
 106.833333333 296.833333333 108.666666667 295 110 295 c 2
 230 295 l 2
 229.333333333 293 227.833333333 289 225.5 283 c 128
 223.166666667 277 220.5 270.833333333 217.5 264.5 c 128
 214.5 258.166666667 211.333333333 252.5 208 247.5 c 128
 204.666666667 242.5 202 240 200 240 c 2
 60 240 l 2
 54.6666666667 240 51.5 237.5 50.5 232.5 c 128
 49.5 227.5 49 223.333333333 49 220 c 256
 49 216.666666667 49.5 211.666666667 50.5 205 c 128
 51.5 198.333333333 54.6666666667 195 60 195 c 2
 160 195 l 1
 159.333333333 191 157.5 185.666666667 154.5 179 c 128
 151.5 172.333333333 148 165.833333333 144 159.5 c 128
 140 153.166666667 135.833333333 147.5 131.5 142.5 c 128
 127.166666667 137.5 123.333333333 135 120 135 c 2
 6 135 l 1
 6 123 8.16666666667 114 12.5 108 c 128
 16.8333333333 102 22.6666666667 97.6666666667 30 95 c 128
 37.3333333333 92.3333333333 46 91 56 91 c 0
 66.6666666667 91 78 90.6666666667 90 90 c 1
 87.3333333333 82.6666666667 82.6666666667 76.5 76 71.5 c 128
 69.3333333333 66.5 62.5 61.6666666667 55.5 57 c 128
 48.5 52.3333333333 42.3333333333 48 37 44 c 128
 31.6666666667 40 29 35.6666666667 29 31 c 0
 29 27.6666666667 29.5 23.3333333333 30.5 18 c 128
 31.5 12.6666666667 34.6666666667 10 40 10 c 2
 152 10 l 1
 152 14.6666666667 150.833333333 19 148.5 23 c 128
 146.166666667 27 143.5 30.6666666667 140.5 34 c 128
 137.5 37.3333333333 134.833333333 40.6666666667 132.5 44 c 128
 130.166666667 47.3333333333 129 51 129 55 c 0
 129 55.6666666667 129.166666667 56.6666666667 129.5 58 c 128
 130 60 130 60 130 60 c 2
 132 64.6666666667 135.666666667 70.8333333333 141 78.5 c 128
 146.333333333 86.1666666667 149.333333333 90 150 90 c 2
 228 90 l 1
 228 80.6666666667 225.833333333 73.5 221.5 68.5 c 128
 217.166666667 63.5 212.5 58.8333333333 207.5 54.5 c 128
 202.5 50.1666666667 198 45.8333333333 194 41.5 c 128
 190 37.1666666667 188 31.3333333333 188 24 c 0
292 190 m 1
 292 178 286.666666667 162 276 142 c 1
 254 140.666666667 237.333333333 139.666666667 226 139 c 128
 214.666666667 138.333333333 204.666666667 138 196 138 c 1
 196 140.666666667 196.5 144.833333333 197.5 150.5 c 128
 198.5 156.166666667 200 162 202 168 c 128
 204 174 206.5 179.166666667 209.5 183.5 c 128
 212.5 187.833333333 216 190 220 190 c 2
 292 190 l 1
330 150 m 1
 331.333333333 152.666666667 334.666666667 157.833333333 340 165.5 c 128
 345.333333333 173.166666667 348.666666667 178 350 180 c 0
 351.333333333 181.333333333 353.166666667 183.333333333 355.5 186 c 128
 357.833333333 188.666666667 359.333333333 190 360 190 c 2
 440 190 l 2
 444 190 447.333333333 187.833333333 450 183.5 c 128
 452.666666667 179.166666667 455 174.166666667 457 168.5 c 128
 459 162.833333333 460.333333333 157.166666667 461 151.5 c 128
 461.666666667 145.833333333 462 142 462 140 c 2
 450 140 l 2
 445.333333333 140 437.333333333 140.5 426 141.5 c 128
 414.666666667 142.5 402.666666667 143.5 390 144.5 c 128
 377.333333333 145.5 365.333333333 146.5 354 147.5 c 128
 342.666666667 148.5 334.666666667 149.333333333 330 150 c 1
508 204 m 1
 514 204 522 203.333333333 532 202 c 128
 542 200.666666667 551.666666667 198 561 194 c 128
 570.333333333 190 578 184.5 584 177.5 c 128
 590 170.5 592 161.333333333 590 150 c 0
 588 150 583.166666667 149.833333333 575.5 149.5 c 128
 567.833333333 149.166666667 562.666666667 149 560 149 c 2
 531 149 l 1
 515.666666667 165.666666667 508 184 508 204 c 1
360 290 m 1
 357.333333333 258 348.5 241.5 333.5 240.5 c 128
 318.5 239.5 302.333333333 239 285 239 c 0
 283 239 278.833333333 239.166666667 272.5 239.5 c 128
 266.166666667 239.833333333 262 240 260 240 c 1
 260.666666667 241.333333333 262.166666667 244.666666667 264.5 250 c 128
 266.833333333 255.333333333 268.666666667 258.666666667 270 260 c 0
 272.666666667 264.666666667 276.5 270.833333333 281.5 278.5 c 128
 286.5 286.166666667 289.333333333 290 290 290 c 2
 360 290 l 1
450 290 m 1
 452 290 456.833333333 290.166666667 464.5 290.5 c 128
 472.166666667 290.833333333 477.333333333 291 480 291 c 0
 490.666666667 291 499 290.333333333 505 289 c 128
 511 287.666666667 515.833333333 285.166666667 519.5 281.5 c 128
 523.166666667 277.833333333 526.5 272.666666667 529.5 266 c 128
 532.5 259.333333333 536 250.666666667 540 240 c 1
 538 240 533.166666667 239.833333333 525.5 239.5 c 128
 517.833333333 239.166666667 512.666666667 239 510 239 c 0
 499.333333333 239 491 239.666666667 485 241 c 128
 479 242.333333333 474.166666667 244.833333333 470.5 248.5 c 128
 466.833333333 252.166666667 463.5 257.333333333 460.5 264 c 128
 457.5 270.666666667 454 279.333333333 450 290 c 1
404 290 m 1
 424 250 l 1
 388 246 l 1
 404 290 l 1
480 355 m 1
 480 350 l 1
 457.333333333 347.333333333 432.166666667 344.833333333 404.5 342.5 c 128
 376.833333333 340.166666667 350.666666667 339 326 339 c 1
 326 343 327 348.333333333 329 355 c 128
 331 361.666666667 333.5 368.333333333 336.5 375 c 128
 339.5 381.666666667 343 387.5 347 392.5 c 128
 351 397.5 355.333333333 400 360 400 c 2
 460 400 l 1
 460 400 460 400 462.5 395.5 c 128
 464.166666667 392.5 466.166666667 388.833333333 468.5 384.5 c 128
 470.833333333 380.166666667 473 375.666666667 475 371 c 128
 477 366.333333333 478.666666667 362.666666667 480 360 c 2
 480 355 l 1
415 481 m 0
 416.333333333 481 417.5 480.833333333 418.5 480.5 c 128
 420 480 420 480 420 480 c 2
 421.333333333 478.666666667 423 475.666666667 425 471 c 128
 427 466.333333333 428.666666667 462.666666667 430 460 c 0
 430 458.666666667 430.333333333 457 431 455 c 128
 431.666666667 453 432 451.333333333 432 450 c 2
 390 450 l 1
 391.333333333 454.666666667 394.166666667 461 398.5 469 c 128
 402.833333333 477 408.333333333 481 415 481 c 0
EndSplineSet
EndChar

StartChar: uniE089
Encoding: 57481 57481 31
Width: 848
Flags: HW
LayerCount: 2
Fore
SplineSet
9 395 m 0
 9 338.333333333 19.3333333333 285.833333333 40 237.5 c 128
 60.6666666667 189.166666667 89.1666666667 147.333333333 125.5 112 c 128
 161.833333333 76.6666666667 204.5 49 253.5 29 c 128
 302.5 9 355 -1 411 -1 c 0
 464.333333333 -1 514.166666667 9.33333333333 560.5 30 c 128
 606.833333333 50.6666666667 647 78.5 681 113.5 c 128
 715 148.5 741.833333333 189.333333333 761.5 236 c 128
 781.166666667 282.666666667 791 332.333333333 791 385 c 0
 791 441.666666667 781.166666667 494.666666667 761.5 544 c 128
 741.833333333 593.333333333 714.5 636.333333333 679.5 673 c 128
 644.5 709.666666667 602.666666667 738.5 554 759.5 c 128
 505.333333333 780.5 452.333333333 791 395 791 c 0
 339.666666667 791 288.5 780.5 241.5 759.5 c 128
 194.5 738.5 153.833333333 710 119.5 674 c 128
 85.1666666667 638 58.1666666667 596 38.5 548 c 128
 18.8333333333 500 9 449 9 395 c 0
60 395 m 0
 60 400.333333333 61 409.333333333 63 422 c 128
 65 434.666666667 68 449 72 465 c 128
 76 481 80.6666666667 497.666666667 86 515 c 128
 91.3333333333 532.333333333 97.6666666667 548 105 562 c 128
 112.333333333 576 120.166666667 587.666666667 128.5 597 c 128
 136.833333333 606.333333333 145.666666667 611 155 611 c 0
 155.666666667 611 156.666666667 610.833333333 158 610.5 c 128
 160 610 160 610 160 610 c 2
 161.333333333 609.333333333 164.5 606.5 169.5 601.5 c 128
 174.5 596.5 178 592.666666667 180 590 c 2
 580 120 l 1
 580 120 580 120 580.5 118 c 128
 580.833333333 116.666666667 581 115.666666667 581 115 c 0
 581 107 576.833333333 100.166666667 568.5 94.5 c 128
 560.166666667 88.8333333333 549.5 83.8333333333 536.5 79.5 c 128
 523.5 75.1666666667 509.333333333 71.6666666667 494 69 c 128
 478.666666667 66.3333333333 464 64.3333333333 450 63 c 128
 436 61.6666666667 423.5 60.6666666667 412.5 60 c 128
 401.5 59.3333333333 394.333333333 59 391 59 c 0
 345.666666667 59 303 68 263 86 c 128
 223 104 188 128.333333333 158 159 c 128
 128 189.666666667 104.166666667 225.333333333 86.5 266 c 128
 68.8333333333 306.666666667 60 349.666666667 60 395 c 0
230 630 m 0
 228 632 224.5 636.833333333 219.5 644.5 c 128
 214.5 652.166666667 211.333333333 657.333333333 210 660 c 2
 210 660 210 660 209.5 662 c 128
 209.166666667 663.333333333 209 664.333333333 209 665 c 0
 209 676.333333333 217.5 686.166666667 234.5 694.5 c 128
 251.5 702.833333333 270.833333333 709.666666667 292.5 715 c 128
 314.166666667 720.333333333 335.5 724.333333333 356.5 727 c 128
 377.5 729.666666667 392 731 400 731 c 0
 446 731 489.666666667 722 531 704 c 128
 572.333333333 686 608.5 661.5 639.5 630.5 c 128
 670.5 599.5 695.166666667 563.333333333 713.5 522 c 128
 731.833333333 480.666666667 741 436.666666667 741 390 c 0
 741 371.333333333 739.166666667 351.666666667 735.5 331 c 128
 731.833333333 310.333333333 726.166666667 290.166666667 718.5 270.5 c 128
 710.833333333 250.833333333 701.333333333 232.166666667 690 214.5 c 128
 678.666666667 196.833333333 665.333333333 182 650 170 c 1
 646 174 638.666666667 181.166666667 628 191.5 c 128
 617.333333333 201.833333333 606.166666667 212.833333333 594.5 224.5 c 128
 582.833333333 236.166666667 571.833333333 247.333333333 561.5 258 c 128
 551.166666667 268.666666667 544 276 540 280 c 0
 532 288.666666667 520 302.166666667 504 320.5 c 128
 488 338.833333333 469.666666667 359.5 449 382.5 c 128
 428.333333333 405.5 406.833333333 429.666666667 384.5 455 c 128
 362.166666667 480.333333333 340.833333333 504.5 320.5 527.5 c 128
 300.166666667 550.5 282 571.166666667 266 589.5 c 128
 250 607.833333333 238 621.333333333 230 630 c 0
EndSplineSet
EndChar

StartChar: uniE08A
Encoding: 57482 57482 32
Width: 858
Flags: HW
LayerCount: 2
Fore
SplineSet
350 290 m 1
 356 283.333333333 365.5 273.5 378.5 260.5 c 128
 398 241 398 241 422.5 216.5 c 128
 447 192 447 192 474.5 164.5 c 128
 502 137 502 137 526.5 112.5 c 128
 542.833333333 96.1666666667 557.666666667 81.5 571 68.5 c 128
 584.333333333 55.5 594 46 600 40 c 0
 602 38.6666666667 605.333333333 36 610 32 c 128
 614.666666667 28 619.666666667 24 625 20 c 128
 630.333333333 16 635.333333333 12 640 8 c 128
 644.666666667 4 648 1.33333333333 650 0 c 2
 650 0 650 0 652 -0.5 c 128
 653.333333333 -0.833333333333 654.333333333 -1 655 -1 c 256
 655.666666667 -1 656.666666667 -0.833333333333 658 -0.5 c 128
 660 0 660 0 660 0 c 2
 662 1.33333333333 665.5 4.5 670.5 9.5 c 128
 675.5 14.5 678.666666667 18 680 20 c 2
 680 20 680 20 680.5 22 c 128
 680.833333333 23.3333333333 681 24.3333333333 681 25 c 256
 681 25.6666666667 680.833333333 26.5 680.5 27.5 c 128
 680.166666667 28.5 680 29.3333333333 680 30 c 0
 674.666666667 35.3333333333 666.166666667 44 654.5 56 c 128
 642.833333333 68 629.833333333 81.6666666667 615.5 97 c 128
 601.166666667 112.333333333 586 128.333333333 570 145 c 128
 554 161.666666667 538.833333333 177.5 524.5 192.5 c 128
 510.166666667 207.5 497.166666667 221 485.5 233 c 128
 473.833333333 245 465.333333333 254 460 260 c 0
 455.333333333 264.666666667 449.666666667 270.833333333 443 278.5 c 128
 436.333333333 286.166666667 429.833333333 293.833333333 423.5 301.5 c 128
 417.166666667 309.166666667 411.666666667 315.666666667 407 321 c 128
 402.333333333 326.333333333 400 329.333333333 400 330 c 2
 400 340 l 2
 400 340.666666667 403 344.166666667 409 350.5 c 128
 415 356.833333333 422.333333333 364.166666667 431 372.5 c 128
 439.666666667 380.833333333 448.5 389.5 457.5 398.5 c 128
 466.5 407.5 474 414.666666667 480 420 c 0
 481.333333333 421.333333333 484 423.5 488 426.5 c 128
 494 431 494 431 500 435.5 c 128
 504 438.5 508 441.333333333 512 444 c 128
 516 446.666666667 518.666666667 448.666666667 520 450 c 0
 533.333333333 438 546.333333333 426.666666667 559 416 c 128
 571.666666667 405.333333333 584.5 395.666666667 597.5 387 c 128
 610.5 378.333333333 624.333333333 371.5 639 366.5 c 128
 653.666666667 361.5 670 359 688 359 c 0
 702.666666667 359 716.666666667 361 730 365 c 128
 743.333333333 369 755.333333333 375 766 383 c 128
 776.666666667 391 785.166666667 401 791.5 413 c 128
 797.833333333 425 801 439 801 455 c 0
 801 475.666666667 797.333333333 494.5 790 511.5 c 128
 782.666666667 528.5 773.333333333 544.333333333 762 559 c 128
 750.666666667 573.666666667 737.666666667 587.5 723 600.5 c 128
 708.333333333 613.5 694 626.666666667 680 640 c 0
 678.666666667 641.333333333 675.333333333 643.333333333 670 646 c 128
 664.666666667 648.666666667 661.333333333 650 660 650 c 256
 658.666666667 650 655.333333333 648.666666667 650 646 c 128
 644.666666667 643.333333333 641.333333333 641.333333333 640 640 c 2
 355 375 l 1
 70 670 l 2
 69.3333333333 670.666666667 67.8333333333 671.166666667 65.5 671.5 c 128
 63.1666666667 671.833333333 61.3333333333 672 60 672 c 0
 52 672 45.5 669 40.5 663 c 128
 35.5 657 32 649.333333333 30 640 c 0
 29.3333333333 638 30.3333333333 634.5 33 629.5 c 128
 35.6666666667 624.5 38 621.333333333 40 620 c 0
 46 614 55 604.833333333 67 592.5 c 128
 79 580.166666667 92.5 566.166666667 107.5 550.5 c 128
 122.5 534.833333333 138.333333333 518.333333333 155 501 c 128
 171.666666667 483.666666667 187.666666667 467 203 451 c 128
 218.333333333 435 231.833333333 420.666666667 243.5 408 c 128
 255.166666667 395.333333333 264 386 270 380 c 0
 271.333333333 378.666666667 273.5 376.166666667 276.5 372.5 c 128
 279.5 368.833333333 282.5 364.833333333 285.5 360.5 c 128
 288.5 356.166666667 291.333333333 352.166666667 294 348.5 c 128
 296.666666667 344.833333333 298.666666667 342 300 340 c 2
 300 340 300 340 300.5 338 c 128
 300.833333333 336.666666667 301 335.666666667 301 335 c 256
 301 334.333333333 300.833333333 333.333333333 300.5 332 c 128
 300 330 300 330 300 330 c 1
 10 60 l 1
 10 60 10 60 9 56.5 c 128
 8.33333333333 54.1666666667 8 52.3333333333 8 51 c 0
 8 43.6666666667 10.5 36.5 15.5 29.5 c 128
 20.5 22.5 27 19 35 19 c 0
 35.6666666667 19 36.6666666667 19.1666666667 38 19.5 c 128
 40 20 40 20 40 20 c 1
 340 290 l 1
 350 290 l 1
660 580 m 0
 670.666666667 580 681.5 574.833333333 692.5 564.5 c 128
 703.5 554.166666667 713.333333333 542 722 528 c 128
 730.666666667 514 737.666666667 499.5 743 484.5 c 128
 748.333333333 469.5 751 457.666666667 751 449 c 0
 751 435.666666667 745.666666667 425.666666667 735 419 c 128
 724.333333333 412.333333333 713 409 701 409 c 0
 688.333333333 409 677.833333333 410.166666667 669.5 412.5 c 128
 661.166666667 414.833333333 651.333333333 420.666666667 640 430 c 0
 635.333333333 433.333333333 629.666666667 438.166666667 623 444.5 c 128
 616.333333333 450.833333333 609.833333333 457.166666667 603.5 463.5 c 128
 597.166666667 469.833333333 591.666666667 475.5 587 480.5 c 128
 582.333333333 485.5 580 488.666666667 580 490 c 2
 580 510 l 2
 580 510.666666667 581.833333333 513 585.5 517 c 128
 589.166666667 521 593.666666667 525.666666667 599 531 c 128
 604.333333333 536.333333333 609.833333333 541.666666667 615.5 547 c 128
 621.166666667 552.333333333 626 556.666666667 630 560 c 0
 633.333333333 563.333333333 638.833333333 567.5 646.5 572.5 c 128
 654.166666667 577.5 658.666666667 580 660 580 c 0
EndSplineSet
EndChar

StartChar: uniE08B
Encoding: 57483 57483 33
Width: 854
Flags: HW
LayerCount: 2
Fore
SplineSet
325 221 m 0
 329 221 332.5 216.333333333 335.5 207 c 128
 338.5 197.666666667 341.333333333 185.833333333 344 171.5 c 128
 346.666666667 157.166666667 349.5 141.166666667 352.5 123.5 c 128
 355.5 105.833333333 359 88.8333333333 363 72.5 c 128
 367 56.1666666667 372 41.5 378 28.5 c 128
 384 15.5 391.333333333 6 400 0 c 1
 410 10 l 1
 474 224 l 1
 670 90 l 1
 692 90 l 1
 692 102.666666667 686.833333333 119.166666667 676.5 139.5 c 128
 666.166666667 159.833333333 654 181 640 203 c 128
 626 225 612.333333333 246.5 599 267.5 c 128
 585.666666667 288.5 576 306 570 320 c 1
 582 329.333333333 599.666666667 336 623 340 c 128
 646.333333333 344 670 347.666666667 694 351 c 128
 718 354.333333333 740.166666667 358.666666667 760.5 364 c 128
 780.833333333 369.333333333 794 378 800 390 c 1
 790 400 l 1
 610 440 l 2
 602.666666667 442 594.333333333 444.666666667 585 448 c 128
 575.666666667 451.333333333 567.333333333 455.333333333 560 460 c 0
 560.666666667 462 562.5 465.833333333 565.5 471.5 c 128
 568.5 477.166666667 571.5 483.333333333 574.5 490 c 128
 577.5 496.666666667 580.5 502.833333333 583.5 508.5 c 128
 586.5 514.166666667 588.666666667 518 590 520 c 0
 593.333333333 526 599.166666667 536 607.5 550 c 128
 615.833333333 564 624.833333333 579 634.5 595 c 128
 644.166666667 611 653.333333333 626.166666667 662 640.5 c 128
 670.666666667 654.833333333 676.666666667 664.666666667 680 670 c 1
 680 682 l 1
 658.666666667 682 638.5 676.5 619.5 665.5 c 128
 600.5 654.5 582 641.333333333 564 626 c 128
 546 610.666666667 528.5 595 511.5 579 c 128
 494.5 563 477.333333333 550 460 540 c 1
 456.666666667 549.333333333 453.666666667 561.833333333 451 577.5 c 128
 448.333333333 593.166666667 445.5 610 442.5 628 c 128
 438 655 438 655 433.5 682 c 128
 430.5 700 427.5 716.333333333 424.5 731 c 128
 421.5 745.666666667 418.5 757.666666667 415.5 767 c 128
 412.5 776.333333333 409.333333333 781 406 781 c 0
 404.666666667 781 403.333333333 780.833333333 402 780.5 c 128
 400 780 400 780 400 780 c 2
 398.666666667 779.333333333 396.666666667 777.833333333 394 775.5 c 128
 391.333333333 773.166666667 390 771.333333333 390 770 c 2
 340 560 l 1
 320 560 l 1
 315.333333333 562.666666667 307.333333333 567.333333333 296 574 c 128
 284.666666667 580.666666667 272.666666667 587.833333333 260 595.5 c 128
 247.333333333 603.166666667 235.333333333 610.166666667 224 616.5 c 128
 212.666666667 622.833333333 204.666666667 627.333333333 200 630 c 0
 194 633.333333333 186.5 637.333333333 177.5 642 c 128
 168.5 646.666666667 159.833333333 651.166666667 151.5 655.5 c 128
 143.166666667 659.833333333 135.833333333 663.333333333 129.5 666 c 128
 120 670 120 670 120 670 c 1
 110 660 l 1
 210 500 l 1
 230 460 l 1
 219.333333333 452 204.666666667 445.166666667 186 439.5 c 128
 167.333333333 433.833333333 147.833333333 428.666666667 127.5 424 c 128
 107.166666667 419.333333333 87.3333333333 415.166666667 68 411.5 c 128
 48.6666666667 407.833333333 32.6666666667 404 20 400 c 0
 18.6666666667 399.333333333 16.8333333333 397.833333333 14.5 395.5 c 128
 12.1666666667 393.166666667 10.6666666667 391.333333333 10 390 c 2
 10 390 10 390 9.5 388 c 128
 9.16666666667 386.666666667 9 385.666666667 9 385 c 0
 9 379 14.3333333333 373.833333333 25 369.5 c 128
 35.6666666667 365.166666667 48.8333333333 361.166666667 64.5 357.5 c 128
 80.1666666667 353.833333333 97.1666666667 350.5 115.5 347.5 c 128
 133.833333333 344.5 150.833333333 341.166666667 166.5 337.5 c 128
 182.166666667 333.833333333 195.333333333 329.833333333 206 325.5 c 128
 216.666666667 321.166666667 222 316 222 310 c 0
 222 308.666666667 221.833333333 306.833333333 221.5 304.5 c 128
 221.166666667 302.166666667 220.666666667 300.666666667 220 300 c 0
 216 294 208.666666667 282.833333333 198 266.5 c 128
 187.333333333 250.166666667 176.166666667 233 164.5 215 c 128
 152.833333333 197 141.833333333 180 131.5 164 c 128
 121.166666667 148 114 136.666666667 110 130 c 0
 104 120.666666667 100.333333333 112.833333333 99 106.5 c 128
 97.6666666667 100.166666667 97 91.3333333333 97 80 c 1
 120 80 l 1
 320 220 l 1
 320 220 320 220 322 220.5 c 128
 323.333333333 220.833333333 324.333333333 221 325 221 c 0
EndSplineSet
EndChar

StartChar: uniE08C
Encoding: 57484 57484 34
Width: 838
Flags: HW
LayerCount: 2
Fore
SplineSet
360 85 m 1
 360 79.6666666667 360.166666667 72.3333333333 360.5 63 c 128
 360.833333333 53.6666666667 362.333333333 44.1666666667 365 34.5 c 128
 367.666666667 24.8333333333 371.666666667 16.5 377 9.5 c 128
 382.333333333 2.5 390 -1 400 -1 c 0
 408.666666667 -1 415.166666667 2.33333333333 419.5 9 c 128
 423.833333333 15.6666666667 426.666666667 23.5 428 32.5 c 128
 429.333333333 41.5 430 50.3333333333 430 59 c 0
 430 73 430 73 430 80 c 1
 432 80 432 80 445 80 c 256
 453.666666667 80 463.333333333 81 474 83 c 128
 484.666666667 85 494.5 88 503.5 92 c 128
 512.5 96 518 102 520 110 c 0
 521.333333333 114 520.666666667 119.166666667 518 125.5 c 128
 515.333333333 131.833333333 512.666666667 135 510 135 c 2
 430 135 l 1
 430 350 l 1
 448.666666667 351.333333333 465.5 352.666666667 480.5 354 c 128
 495.5 355.333333333 510 356.5 524 357.5 c 128
 538 358.5 551.833333333 359.166666667 565.5 359.5 c 128
 579.166666667 359.833333333 594 360 610 360 c 2
 640 360 l 1
 640.666666667 353.333333333 641.833333333 346 643.5 338 c 128
 645.166666667 330 647.5 322.5 650.5 315.5 c 128
 653.5 308.5 657.833333333 302.5 663.5 297.5 c 128
 669.166666667 292.5 676.333333333 290 685 290 c 2
 690 290 l 2
 691.333333333 290.666666667 693.166666667 292.166666667 695.5 294.5 c 128
 697.833333333 296.833333333 699.333333333 298.666666667 700 300 c 128
 700.666666667 301.333333333 701.333333333 305 702 311 c 128
 702.666666667 317 703.5 323.5 704.5 330.5 c 128
 705.5 337.5 706.333333333 343.833333333 707 349.5 c 128
 707.666666667 355.166666667 708.666666667 358.666666667 710 360 c 0
 714.666666667 364.666666667 721 367 729 367 c 256
 737 367 744.833333333 367.166666667 752.5 367.5 c 128
 760.166666667 367.833333333 766.833333333 369.333333333 772.5 372 c 128
 778.166666667 374.666666667 781 380.666666667 781 390 c 0
 781 400.666666667 778.166666667 408 772.5 412 c 128
 766.833333333 416 760.166666667 418.5 752.5 419.5 c 128
 744.833333333 420.5 737 421.333333333 729 422 c 128
 721 422.666666667 714.666666667 425.333333333 710 430 c 0
 704.666666667 434.666666667 701.833333333 441.166666667 701.5 449.5 c 128
 701.166666667 457.833333333 700.833333333 465.833333333 700.5 473.5 c 128
 700.166666667 481.166666667 698.333333333 487.833333333 695 493.5 c 128
 691.666666667 499.166666667 685 502 675 502 c 256
 665 502 658.5 500.166666667 655.5 496.5 c 128
 652.5 492.833333333 650.833333333 488 650.5 482 c 128
 650.166666667 476 650.166666667 469.666666667 650.5 463 c 128
 650.833333333 456.333333333 649.5 449.833333333 646.5 443.5 c 128
 643.5 437.166666667 637.833333333 431.833333333 629.5 427.5 c 128
 621.166666667 423.166666667 608 420.666666667 590 420 c 0
 584 420 572.833333333 420.166666667 556.5 420.5 c 128
 540.166666667 420.833333333 523 421.166666667 505 421.5 c 128
 487 421.833333333 469.833333333 422.333333333 453.5 423 c 128
 437.166666667 423.666666667 426 424 420 424 c 1
 420 630 l 1
 423.333333333 630.666666667 430 631.333333333 440 632 c 128
 450 632.666666667 460.166666667 634.333333333 470.5 637 c 128
 480.833333333 639.666666667 490.166666667 643.5 498.5 648.5 c 128
 506.833333333 653.5 511 660.666666667 511 670 c 0
 511 676 509.666666667 682.5 507 689.5 c 128
 504.333333333 696.5 498.666666667 700 490 700 c 2
 420 700 l 1
 419.333333333 704 418.666666667 710.833333333 418 720.5 c 128
 417.333333333 730.166666667 416 740.333333333 414 751 c 128
 412 761.666666667 408.833333333 771 404.5 779 c 128
 400.166666667 787 394.333333333 791 387 791 c 0
 375.666666667 791 367.166666667 788 361.5 782 c 128
 355.833333333 776 351.666666667 768.5 349 759.5 c 128
 346.333333333 750.5 344.5 740.666666667 343.5 730 c 128
 342.5 719.333333333 341.333333333 709.333333333 340 700 c 1
 336.666666667 700 331.166666667 699.5 323.5 698.5 c 128
 315.833333333 697.5 308 695.833333333 300 693.5 c 128
 292 691.166666667 284.833333333 687.666666667 278.5 683 c 128
 272.166666667 678.333333333 269 672.333333333 269 665 c 0
 269 657 272.666666667 650.666666667 280 646 c 128
 287.333333333 641.333333333 295.833333333 637.833333333 305.5 635.5 c 128
 315.166666667 633.166666667 324.333333333 631.666666667 333 631 c 128
 341.666666667 630.333333333 347.333333333 630 350 630 c 1
 350 410 l 1
 344.666666667 409.333333333 334.833333333 408.5 320.5 407.5 c 128
 306.166666667 406.5 291 405.5 275 404.5 c 128
 259 403.5 244 402.5 230 401.5 c 128
 216 400.5 206 400 200 400 c 0
 192 400 192 400 178 400 c 0
 169.333333333 400 161.833333333 400.166666667 155.5 400.5 c 128
 149.166666667 400.833333333 145.666666667 401 145 401 c 2
 145 470 l 2
 145 471.333333333 140.5 473.333333333 131.5 476 c 128
 122.5 478.666666667 115.333333333 480 110 480 c 0
 108.666666667 480 106.833333333 478.666666667 104.5 476 c 128
 102.166666667 473.333333333 100.666666667 471.333333333 100 470 c 0
 99.3333333333 467.333333333 98.3333333333 462.833333333 97 456.5 c 128
 95.6666666667 450.166666667 94.5 443.166666667 93.5 435.5 c 128
 92.5 427.833333333 91.6666666667 420.666666667 91 414 c 128
 90.3333333333 407.333333333 90 402.666666667 90 400 c 1
 87.3333333333 400 81.6666666667 399.833333333 73 399.5 c 128
 64.3333333333 399.166666667 55.1666666667 397.833333333 45.5 395.5 c 128
 35.8333333333 393.166666667 27.3333333333 389.666666667 20 385 c 128
 12.6666666667 380.333333333 9 373.666666667 9 365 c 0
 9 358.333333333 13 352.833333333 21 348.5 c 128
 29 344.166666667 35.3333333333 341.333333333 40 340 c 0
 64.6666666667 332 79.8333333333 322.666666667 85.5 312 c 128
 91.1666666667 301.333333333 93.8333333333 291.333333333 93.5 282 c 128
 93.1666666667 272.666666667 93.5 264.833333333 94.5 258.5 c 128
 95.5 252.166666667 104 249 120 249 c 0
 127.333333333 249 132 250.166666667 134 252.5 c 128
 136 254.833333333 138 260.666666667 140 270 c 0
 140.666666667 272.666666667 141.5 277.166666667 142.5 283.5 c 128
 143.5 289.833333333 144.5 296.833333333 145.5 304.5 c 128
 146.5 312.166666667 147.5 319.333333333 148.5 326 c 128
 149.5 332.666666667 150 337.333333333 150 340 c 1
 350 340 l 1
 350.666666667 334.666666667 351.5 325.333333333 352.5 312 c 128
 353.5 298.666666667 354.5 284.666666667 355.5 270 c 128
 356.5 255.333333333 357.5 241.333333333 358.5 228 c 128
 359.5 214.666666667 360 205.333333333 360 200 c 2
 360 177 l 2
 358.666666667 148.333333333 354 133.333333333 346 132 c 128
 338 130.666666667 327.333333333 130 314 130 c 128
 300.666666667 130 290.666666667 129.666666667 284 129 c 128
 277.333333333 128.333333333 272.666666667 122 270 110 c 0
 268.666666667 106.666666667 269.333333333 101.666666667 272 95 c 128
 274.666666667 88.3333333333 277.333333333 85 280 85 c 2
 360 85 l 1
EndSplineSet
EndChar

StartChar: uniE08D
Encoding: 57485 57485 35
Width: 854
Flags: HW
LayerCount: 2
Fore
SplineSet
405 181 m 256
 405.666666667 181 406.666666667 180.833333333 408 180.5 c 128
 410 180 410 180 410 180 c 2
 411.333333333 179.333333333 413.166666667 177.833333333 415.5 175.5 c 128
 417.833333333 173.166666667 419.333333333 171.333333333 420 170 c 2
 510 20 l 2
 512 16.6666666667 515.5 12.5 520.5 7.5 c 128
 525.5 2.5 528.666666667 0 530 0 c 2
 800 0 l 1
 800 20 l 2
 800 20.6666666667 797.666666667 25.6666666667 793 35 c 128
 786 49 786 49 776.5 68 c 128
 767 87 767 87 757 107 c 128
 750.333333333 120.333333333 744.666666667 131.333333333 740 140 c 0
 738.666666667 142 736.166666667 146.333333333 732.5 153 c 128
 728.833333333 159.666666667 724.833333333 166.666666667 720.5 174 c 128
 716.166666667 181.333333333 712.166666667 188.5 708.5 195.5 c 128
 704.833333333 202.5 702 207.333333333 700 210 c 0
 698 213.333333333 695.333333333 217.666666667 692 223 c 128
 688.666666667 228.333333333 685.5 233.333333333 682.5 238 c 128
 679.5 242.666666667 676.666666667 246.666666667 674 250 c 128
 670 255 670 255 670 255 c 1
 460 255 l 1
 460 280 l 1
 559 401 l 1
 450 630 l 2
 449.333333333 631.333333333 447.833333333 633.166666667 445.5 635.5 c 128
 443.166666667 637.833333333 441.333333333 639.333333333 440 640 c 2
 440 640 440 640 438 640.5 c 128
 436.666666667 640.833333333 435.666666667 641 435 641 c 0
 429 641 421 635.833333333 411 625.5 c 128
 401 615.166666667 390.166666667 602.333333333 378.5 587 c 128
 366.833333333 571.666666667 355.166666667 554.833333333 343.5 536.5 c 128
 331.833333333 518.166666667 321.166666667 500.666666667 311.5 484 c 128
 301.833333333 467.333333333 294 453.166666667 288 441.5 c 128
 282 429.833333333 279 422.666666667 279 420 c 0
 279 405.333333333 283.166666667 391.5 291.5 378.5 c 128
 299.833333333 365.5 308.833333333 352.666666667 318.5 340 c 128
 328.166666667 327.333333333 337.166666667 314.5 345.5 301.5 c 128
 353.833333333 288.5 358 274.666666667 358 260 c 1
 150 260 l 2
 149.333333333 260 147.833333333 258.666666667 145.5 256 c 128
 143.166666667 253.333333333 141.333333333 251.333333333 140 250 c 0
 130.666666667 238.666666667 118.666666667 223.166666667 104 203.5 c 128
 89.3333333333 183.833333333 75 163.166666667 61 141.5 c 128
 47 119.833333333 34.8333333333 98.5 24.5 77.5 c 128
 14.1666666667 56.5 9 39 9 25 c 0
 9 24.3333333333 9.16666666667 23.3333333333 9.5 22 c 128
 10 20 10 20 10 20 c 2
 11.3333333333 18.6666666667 13.1666666667 16.6666666667 15.5 14 c 128
 17.8333333333 11.3333333333 19.3333333333 10 20 10 c 2
 280 10 l 2
 280.666666667 10 282.166666667 11.3333333333 284.5 14 c 128
 286.833333333 16.6666666667 288.666666667 18.6666666667 290 20 c 2
 390 170 l 1
 400 180 l 1
 400 180 400 180 402 180.5 c 128
 403.333333333 180.833333333 404.333333333 181 405 181 c 256
460 210 m 1
 640 210 l 2
 640.666666667 210 643 207 647 201 c 128
 651 195 655.666666667 187.666666667 661 179 c 128
 666.333333333 170.333333333 671.666666667 161.5 677 152.5 c 128
 682.333333333 143.5 686.666666667 136 690 130 c 0
 692 126.666666667 694.833333333 121.333333333 698.5 114 c 128
 704 103 704 103 710.5 90 c 128
 714.833333333 81.3333333333 718.833333333 73.1666666667 722.5 65.5 c 128
 726.166666667 57.8333333333 728.666666667 52.6666666667 730 50 c 1
 550 50 l 2
 549.333333333 50 547.333333333 52.3333333333 544 57 c 128
 540.666666667 61.6666666667 537 67.1666666667 533 73.5 c 128
 529 79.8333333333 524.833333333 86.3333333333 520.5 93 c 128
 516.166666667 99.6666666667 512.666666667 105.333333333 510 110 c 0
 507 116 507 116 500 130 c 128
 493 144 493 144 485 160 c 128
 477 176 477 176 470 190 c 128
 463 204 463 204 460 210 c 1
190 211 m 2
 354 210 l 1
 260 60 l 1
 80 60 l 1
 84.6666666667 70.6666666667 90.6666666667 84.6666666667 98 102 c 128
 105.333333333 119.333333333 113.5 136 122.5 152 c 128
 131.5 168 141.666666667 181.833333333 153 193.5 c 128
 164.333333333 205.166666667 176.666666667 211 190 211 c 2
330 420 m 1
 339.333333333 444 353.333333333 469.166666667 372 495.5 c 128
 390.666666667 521.833333333 410 543.333333333 430 560 c 1
 500 410 l 1
 500 410 500 410 492 399.5 c 128
 486.666666667 392.5 480.333333333 384.166666667 473 374.5 c 128
 465.666666667 364.833333333 458 355 450 345 c 128
 438 330 438 330 430 320 c 2
 410 300 l 2
 408.666666667 300.666666667 406.833333333 302.166666667 404.5 304.5 c 128
 402.166666667 306.833333333 400.666666667 308.666666667 400 310 c 0
 397.333333333 314 392.666666667 321.166666667 386 331.5 c 128
 379.333333333 341.833333333 372.166666667 352.833333333 364.5 364.5 c 128
 356.833333333 376.166666667 349.833333333 387.333333333 343.5 398 c 128
 337.166666667 408.666666667 332.666666667 416 330 420 c 1
EndSplineSet
EndChar

StartChar: uniE08E
Encoding: 57486 57486 36
Width: 858
Flags: HW
LayerCount: 2
Fore
SplineSet
9 345 m 0
 9 316.333333333 17.5 291.5 34.5 270.5 c 128
 51.5 249.5 75 239 105 239 c 0
 129 239 149.333333333 246.333333333 166 261 c 128
 182.666666667 275.666666667 191 295.666666667 191 321 c 0
 191 329.666666667 190.333333333 339.166666667 189 349.5 c 128
 187.666666667 359.833333333 185 369.666666667 181 379 c 128
 177 388.333333333 171.333333333 396.166666667 164 402.5 c 128
 156.666666667 408.833333333 147 412 135 412 c 0
 125 412 116.5 408.666666667 109.5 402 c 128
 102.5 395.333333333 99 386.333333333 99 375 c 0
 99 374.333333333 99.1666666667 373.333333333 99.5 372 c 128
 100 370 100 370 100 370 c 1
 130 330 l 1
 130 330 130 330 130.5 328 c 128
 130.833333333 326.666666667 131 325.666666667 131 325 c 0
 131 319 128.666666667 314.833333333 124 312.5 c 128
 119.333333333 310.166666667 114.333333333 309 109 309 c 0
 99 309 89.8333333333 313 81.5 321 c 128
 73.1666666667 329 69 338.333333333 69 349 c 0
 69 376.333333333 77.8333333333 398.5 95.5 415.5 c 128
 113.166666667 432.5 135 441 161 441 c 0
 177.666666667 441 194.833333333 436 212.5 426 c 128
 230.166666667 416 247.5 404.333333333 264.5 391 c 128
 281.5 377.666666667 297.333333333 364.166666667 312 350.5 c 128
 326.666666667 336.833333333 339.333333333 326.666666667 350 320 c 0
 387.333333333 296 427.333333333 276.5 470 261.5 c 128
 512.666666667 246.5 556 239 600 239 c 0
 628 239 654.166666667 243 678.5 251 c 128
 702.833333333 259 724 270.833333333 742 286.5 c 128
 760 302.166666667 774.333333333 321.166666667 785 343.5 c 128
 795.666666667 365.833333333 801 391.333333333 801 420 c 0
 801 438.666666667 798 457 792 475 c 128
 786 493 777.5 509.166666667 766.5 523.5 c 128
 755.5 537.833333333 742 549.333333333 726 558 c 128
 710 566.666666667 692.333333333 571 673 571 c 0
 639 571 613.166666667 562.166666667 595.5 544.5 c 128
 577.833333333 526.833333333 569 501 569 467 c 0
 569 455.666666667 570 444.666666667 572 434 c 128
 574 423.333333333 577.666666667 414 583 406 c 128
 588.333333333 398 595.333333333 391.5 604 386.5 c 128
 612.666666667 381.5 623.666666667 379 637 379 c 0
 647 379 647 379 655 379 c 0
 661 379 665.833333333 379.666666667 669.5 381 c 128
 673.166666667 382.333333333 676 384.833333333 678 388.5 c 128
 680 392.166666667 681 397.666666667 681 405 c 0
 681 415.666666667 678.333333333 423.5 673 428.5 c 128
 667.666666667 433.5 661.833333333 437.5 655.5 440.5 c 128
 649.166666667 443.5 643.333333333 446.5 638 449.5 c 128
 632.666666667 452.5 630 457.666666667 630 465 c 0
 630 474.333333333 633.5 482.5 640.5 489.5 c 128
 647.5 496.5 655.666666667 500 665 500 c 0
 677.666666667 500 688.166666667 496.666666667 696.5 490 c 128
 704.833333333 483.333333333 711.5 475.166666667 716.5 465.5 c 128
 721.5 455.833333333 725.166666667 445.333333333 727.5 434 c 128
 729.833333333 422.666666667 731 412.333333333 731 403 c 0
 731 381.666666667 726.666666667 363.833333333 718 349.5 c 128
 709.333333333 335.166666667 693.333333333 325.333333333 670 320 c 0
 666 320 666 320 657 320 c 256
 651 320 644.5 319.833333333 637.5 319.5 c 128
 630.5 319.166666667 624 319 618 319 c 256
 609 319 609 319 605 319 c 0
 555 319 510 326.666666667 470 342 c 128
 430 357.333333333 390 380 350 410 c 0
 330 424.666666667 313.166666667 438.166666667 299.5 450.5 c 128
 285.833333333 462.833333333 272.166666667 473.5 258.5 482.5 c 128
 244.833333333 491.5 230.166666667 498.5 214.5 503.5 c 128
 198.833333333 508.5 179.666666667 511 157 511 c 256
 134.333333333 511 113.833333333 506.333333333 95.5 497 c 128
 77.1666666667 487.666666667 61.6666666667 475.333333333 49 460 c 128
 36.3333333333 444.666666667 26.5 427 19.5 407 c 128
 12.5 387 9 366.333333333 9 345 c 0
EndSplineSet
EndChar

StartChar: uniE08F
Encoding: 57487 57487 37
Width: 514
Flags: HW
LayerCount: 2
Fore
SplineSet
9 225 m 256
 9 193 14.8333333333 163.166666667 26.5 135.5 c 128
 38.1666666667 107.833333333 54 84 74 64 c 128
 94 44 117.833333333 28.1666666667 145.5 16.5 c 128
 173.166666667 4.83333333333 203 -1 235 -1 c 0
 269 -1 299.833333333 5 327.5 17 c 128
 355.166666667 29 378.833333333 45.3333333333 398.5 66 c 128
 418.166666667 86.6666666667 433.5 111.166666667 444.5 139.5 c 128
 455.5 167.833333333 461 198 461 230 c 0
 461 260 455.833333333 288.333333333 445.5 315 c 128
 435.166666667 341.666666667 420.833333333 365.333333333 402.5 386 c 128
 384.166666667 406.666666667 362 423.5 336 436.5 c 128
 310 449.5 281.333333333 457.333333333 250 460 c 1
 250 595 l 1
 400 595 l 1
 400 635 l 1
 245 635 l 1
 245 790 l 1
 205 790 l 1
 205 635 l 1
 50 635 l 1
 50 595 l 1
 200 595 l 1
 200 460 l 1
 171.333333333 450 145.333333333 438.166666667 122 424.5 c 128
 98.6666666667 410.833333333 78.6666666667 394.5 62 375.5 c 128
 45.3333333333 356.5 32.3333333333 334.666666667 23 310 c 128
 13.6666666667 285.333333333 9 257 9 225 c 256
39 225 m 0
 39 251.666666667 43.1666666667 277 51.5 301 c 128
 59.8333333333 325 72 345.833333333 88 363.5 c 128
 104 381.166666667 123.5 395.166666667 146.5 405.5 c 128
 169.5 415.833333333 195.666666667 421 225 421 c 0
 253 421 279.5 416.333333333 304.5 407 c 128
 329.5 397.666666667 351.333333333 384.5 370 367.5 c 128
 388.666666667 350.5 403.5 330 414.5 306 c 128
 425.5 282 431 255 431 225 c 0
 431 199 425.833333333 174.166666667 415.5 150.5 c 128
 405.166666667 126.833333333 391 106 373 88 c 128
 355 70 334.166666667 55.6666666667 310.5 45 c 128
 286.833333333 34.3333333333 261.666666667 29 235 29 c 0
 207.666666667 29 182 34.1666666667 158 44.5 c 128
 134 54.8333333333 113.166666667 68.8333333333 95.5 86.5 c 128
 77.8333333333 104.166666667 64 124.833333333 54 148.5 c 128
 44 172.166666667 39 197.666666667 39 225 c 0
EndSplineSet
EndChar

StartChar: uniE090
Encoding: 57488 57488 38
Width: 280
Flags: HW
LayerCount: 2
Fore
SplineSet
59 20 m 0
 59 6 66 -1 80 -1 c 0
 88.6666666667 -1 95.1666666667 2.33333333333 99.5 9 c 128
 103.833333333 15.6666666667 107.333333333 22.6666666667 110 30 c 2
 220 390 l 1
 220 424 l 2
 218.666666667 424 215.333333333 423.5 210 422.5 c 128
 204.666666667 421.5 201.333333333 420.666666667 200 420 c 0
 198 419.333333333 193 417 185 413 c 128
 177 409 168.5 404.833333333 159.5 400.5 c 128
 150.5 396.166666667 142.166666667 391.833333333 134.5 387.5 c 128
 126.833333333 383.166666667 122 380.666666667 120 380 c 2
 115 380 l 1
 110 380 l 1
 230 630 l 1
 230 645 l 1
 220.666666667 645 212.166666667 643.166666667 204.5 639.5 c 128
 196.833333333 635.833333333 189.333333333 631.833333333 182 627.5 c 128
 174.666666667 623.166666667 167.166666667 619.166666667 159.5 615.5 c 128
 151.833333333 611.833333333 143.666666667 610 135 610 c 2
 130 610 l 1
 134 624 139.333333333 637.833333333 146 651.5 c 128
 152.666666667 665.166666667 159.166666667 678.833333333 165.5 692.5 c 128
 171.833333333 706.166666667 177.5 719.833333333 182.5 733.5 c 128
 187.5 747.166666667 190 761 190 775 c 0
 190 781 188 785.166666667 184 787.5 c 128
 180 789.833333333 175.333333333 791 170 791 c 0
 162.666666667 791 156.166666667 787.833333333 150.5 781.5 c 128
 144.833333333 775.166666667 140 768 136 760 c 128
 132 752 128.666666667 744 126 736 c 128
 123.333333333 728 121.333333333 722.666666667 120 720 c 0
 114 706 106.5 687.833333333 97.5 665.5 c 128
 88.5 643.166666667 79.6666666667 621.333333333 71 600 c 128
 62.3333333333 578.666666667 55 560.166666667 49 544.5 c 128
 43 528.833333333 40 520.666666667 40 520 c 2
 40 496 l 1
 48.6666666667 496 56.8333333333 497.666666667 64.5 501 c 128
 72.1666666667 504.333333333 79.5 508.333333333 86.5 513 c 128
 93.5 517.666666667 100.666666667 522.5 108 527.5 c 128
 115.333333333 532.5 122.666666667 536.666666667 130 540 c 1
 127.333333333 534 123 524.666666667 117 512 c 128
 111 499.333333333 104.5 485.166666667 97.5 469.5 c 128
 90.5 453.833333333 83 437.333333333 75 420 c 128
 67 402.666666667 59.3333333333 386.166666667 52 370.5 c 128
 44.6666666667 354.833333333 38.1666666667 340.666666667 32.5 328 c 128
 26.8333333333 315.333333333 22.6666666667 306 20 300 c 0
 18.6666666667 298 16.8333333333 293.166666667 14.5 285.5 c 128
 12.1666666667 277.833333333 10.6666666667 272.666666667 10 270 c 0
 10 269.333333333 9.83333333333 267.5 9.5 264.5 c 128
 9.16666666667 261.5 9 259.333333333 9 258 c 1
 9.66666666667 258 11.5 258.166666667 14.5 258.5 c 128
 17.5 258.833333333 19.3333333333 259.333333333 20 260 c 0
 30 264 40 269.333333333 50 276 c 128
 60 282.666666667 70 289 80 295 c 128
 90 301 100 306.333333333 110 311 c 128
 120 315.666666667 130 318 140 318 c 1
 140 310 l 1
 60 30 l 2
 60 29.3333333333 59.8333333333 27.8333333333 59.5 25.5 c 128
 59.1666666667 23.1666666667 59 21.3333333333 59 20 c 0
EndSplineSet
EndChar

StartChar: uniE091
Encoding: 57489 57489 39
Width: 818
Flags: HW
LayerCount: 2
Fore
SplineSet
9 365 m 0
 9 318.333333333 16.8333333333 273 32.5 229 c 128
 48.1666666667 185 70.5 145.833333333 99.5 111.5 c 128
 128.5 77.1666666667 163.166666667 49.6666666667 203.5 29 c 128
 243.833333333 8.33333333333 289 -2 339 -2 c 0
 389.666666667 -2 440.166666667 4.66666666667 490.5 18 c 128
 540.833333333 31.3333333333 586 51.8333333333 626 79.5 c 128
 666 107.166666667 698.5 141.666666667 723.5 183 c 128
 748.5 224.333333333 761 273 761 329 c 0
 761 375 753.333333333 421.666666667 738 469 c 128
 722.666666667 516.333333333 700.666666667 559.5 672 598.5 c 128
 643.333333333 637.5 608.5 669.333333333 567.5 694 c 128
 526.5 718.666666667 480.666666667 731 430 731 c 0
 382 731 337.166666667 722 295.5 704 c 128
 253.833333333 686 217.833333333 661.666666667 187.5 631 c 128
 157.166666667 600.333333333 133.166666667 564.166666667 115.5 522.5 c 128
 97.8333333333 480.833333333 89 436.666666667 89 390 c 0
 89 346.666666667 94.6666666667 306.166666667 106 268.5 c 128
 117.333333333 230.833333333 134.166666667 198 156.5 170 c 128
 178.833333333 142 207 119.833333333 241 103.5 c 128
 275 87.1666666667 314.666666667 79 360 79 c 0
 398.666666667 79 437.833333333 84 477.5 94 c 128
 517.166666667 104 552.666666667 119.5 584 140.5 c 128
 615.333333333 161.5 641 188.166666667 661 220.5 c 128
 681 252.833333333 691 291 691 335 c 0
 691 374.333333333 683.5 412.833333333 668.5 450.5 c 128
 653.5 488.166666667 632.833333333 521.833333333 606.5 551.5 c 128
 580.166666667 581.166666667 549.333333333 605 514 623 c 128
 478.666666667 641 440.666666667 650 400 650 c 0
 367.333333333 650 337 643.333333333 309 630 c 128
 281 616.666666667 256.666666667 599 236 577 c 128
 215.333333333 555 199 529.666666667 187 501 c 128
 175 472.333333333 169 442.666666667 169 412 c 0
 169 377.333333333 172.333333333 344.166666667 179 312.5 c 128
 185.666666667 280.833333333 197.166666667 253 213.5 229 c 128
 229.833333333 205 251.5 185.833333333 278.5 171.5 c 128
 305.5 157.166666667 339.333333333 150 380 150 c 0
 406 150 432.666666667 155 460 165 c 128
 487.333333333 175 512.166666667 188.666666667 534.5 206 c 128
 556.833333333 223.333333333 575.166666667 243.833333333 589.5 267.5 c 128
 603.833333333 291.166666667 611 316.666666667 611 344 c 0
 611 374 606.666666667 402.166666667 598 428.5 c 128
 589.333333333 454.833333333 576.666666667 477.833333333 560 497.5 c 128
 543.333333333 517.166666667 522.833333333 532.833333333 498.5 544.5 c 128
 474.166666667 556.166666667 446.333333333 562 415 562 c 0
 390.333333333 562 367.333333333 558.166666667 346 550.5 c 128
 324.666666667 542.833333333 306 532 290 518 c 128
 274 504 261.5 486.833333333 252.5 466.5 c 128
 243.5 446.166666667 239 423.333333333 239 398 c 0
 239 376 241.666666667 354.666666667 247 334 c 128
 252.333333333 313.333333333 260.833333333 295.333333333 272.5 280 c 128
 284.166666667 264.666666667 299 252.333333333 317 243 c 128
 335 233.666666667 356.666666667 229 382 229 c 0
 404 229 424.666666667 232 444 238 c 128
 463.333333333 244 480.166666667 253 494.5 265 c 128
 508.833333333 277 520.166666667 291.666666667 528.5 309 c 128
 536.833333333 326.333333333 541 346.666666667 541 370 c 0
 541 386.666666667 538.333333333 403 533 419 c 128
 527.666666667 435 520 449 510 461 c 128
 500 473 487.833333333 482.666666667 473.5 490 c 128
 459.166666667 497.333333333 443 501 425 501 c 0
 387.666666667 501 359 489.833333333 339 467.5 c 128
 319 445.166666667 309 416 309 380 c 0
 309 350 317 329 333 317 c 128
 349 305 371.333333333 299 400 299 c 0
 428 299 450.166666667 303.833333333 466.5 313.5 c 128
 482.833333333 323.166666667 491 343.666666667 491 375 c 0
 491 383 489.333333333 390.833333333 486 398.5 c 128
 482.666666667 406.166666667 478.333333333 413 473 419 c 128
 467.666666667 425 461.333333333 430 454 434 c 128
 446.666666667 438 438.666666667 440 430 440 c 0
 424 440 417.5 439 410.5 437 c 128
 403.5 435 397 432 391 428 c 128
 385 424 380 419.166666667 376 413.5 c 128
 372 407.833333333 370 401.666666667 370 395 c 2
 370 390 l 1
 372.666666667 378.666666667 375.833333333 369.166666667 379.5 361.5 c 128
 383.166666667 353.833333333 391.666666667 350 405 350 c 2
 410 350 l 2
 411.333333333 350.666666667 413.166666667 352.166666667 415.5 354.5 c 128
 417.833333333 356.833333333 419.333333333 358.666666667 420 360 c 2
 420 365 l 1
 420 370 l 1
 410 390 l 1
 410 395 l 2
 410 401 412 405.166666667 416 407.5 c 128
 420 409.833333333 424.666666667 411 430 411 c 0
 441.333333333 411 447.666666667 407.333333333 449 400 c 128
 450.333333333 392.666666667 451 384.333333333 451 375 c 0
 451 359 448.333333333 345.833333333 443 335.5 c 128
 437.666666667 325.166666667 425 320 405 320 c 0
 397.666666667 320 390.666666667 321.833333333 384 325.5 c 128
 377.333333333 329.166666667 371.5 333.666666667 366.5 339 c 128
 361.5 344.333333333 357.333333333 350.5 354 357.5 c 128
 350.666666667 364.5 349 371.333333333 349 378 c 0
 349 402.666666667 355.333333333 422.666666667 368 438 c 128
 380.666666667 453.333333333 399.666666667 461 425 461 c 0
 449.666666667 461 470.166666667 453 486.5 437 c 128
 502.833333333 421 511 400.333333333 511 375 c 0
 511 357.666666667 507.5 342.333333333 500.5 329 c 128
 493.5 315.666666667 484.333333333 304.5 473 295.5 c 128
 461.666666667 286.5 448.333333333 279.833333333 433 275.5 c 128
 417.666666667 271.166666667 401.666666667 269 385 269 c 0
 347 269 318.166666667 280.666666667 298.5 304 c 128
 278.833333333 327.333333333 269 358 269 396 c 0
 269 414 272.666666667 431.166666667 280 447.5 c 128
 287.333333333 463.833333333 297.333333333 478.166666667 310 490.5 c 128
 322.666666667 502.833333333 337.166666667 512.666666667 353.5 520 c 128
 369.833333333 527.333333333 387 531 405 531 c 0
 429 531 451.666666667 526.5 473 517.5 c 128
 494.333333333 508.5 513 496.166666667 529 480.5 c 128
 545 464.833333333 557.666666667 446.333333333 567 425 c 128
 576.333333333 403.666666667 581 380.666666667 581 356 c 0
 581 328.666666667 574.333333333 305 561 285 c 128
 547.666666667 265 530.833333333 248.666666667 510.5 236 c 128
 490.166666667 223.333333333 467.5 214 442.5 208 c 128
 417.5 202 393.333333333 199 370 199 c 0
 344 199 320.666666667 203.833333333 300 213.5 c 128
 279.333333333 223.166666667 261.5 236.333333333 246.5 253 c 128
 231.5 269.666666667 220 289.333333333 212 312 c 128
 204 334.666666667 200 359 200 385 c 0
 200 418.333333333 205.5 448.333333333 216.5 475 c 128
 227.5 501.666666667 242.666666667 524.333333333 262 543 c 128
 281.333333333 561.666666667 304.5 576 331.5 586 c 128
 358.5 596 388 601 420 601 c 0
 451.333333333 601 481.166666667 594.666666667 509.5 582 c 128
 537.833333333 569.333333333 562.5 552 583.5 530 c 128
 604.5 508 621.166666667 482.5 633.5 453.5 c 128
 645.833333333 424.5 652 393.666666667 652 361 c 0
 652 321.666666667 644.166666667 287.5 628.5 258.5 c 128
 612.833333333 229.5 592.166666667 205.333333333 566.5 186 c 128
 540.833333333 166.666666667 511.333333333 152.333333333 478 143 c 128
 444.666666667 133.666666667 410.333333333 129 375 129 c 0
 352.333333333 129 331.666666667 130.333333333 313 133 c 128
 294.333333333 135.666666667 276.833333333 140.5 260.5 147.5 c 128
 244.166666667 154.5 228.666666667 163.833333333 214 175.5 c 128
 199.333333333 187.166666667 184.666666667 202 170 220 c 0
 168.666666667 222 165.833333333 226.333333333 161.5 233 c 128
 157.166666667 239.666666667 152.666666667 247.166666667 148 255.5 c 128
 143.333333333 263.833333333 139.166666667 272 135.5 280 c 128
 131.833333333 288 130 294.666666667 130 300 c 2
 130 470 l 2
 130 500 140.5 528.5 161.5 555.5 c 128
 182.5 582.5 208.166666667 606 238.5 626 c 128
 268.833333333 646 300.833333333 661.833333333 334.5 673.5 c 128
 368.166666667 685.166666667 398 691 424 691 c 0
 467.333333333 691 507.166666667 680.166666667 543.5 658.5 c 128
 579.833333333 636.833333333 611.166666667 609 637.5 575 c 128
 663.833333333 541 684.333333333 503.166666667 699 461.5 c 128
 713.666666667 419.833333333 721 379.333333333 721 340 c 0
 721 277.333333333 707.333333333 225.833333333 680 185.5 c 128
 652.666666667 145.166666667 609.333333333 113.333333333 550 90 c 0
 539.333333333 86 524.5 81.1666666667 505.5 75.5 c 128
 486.5 69.8333333333 466.5 64.3333333333 445.5 59 c 128
 424.5 53.6666666667 404.333333333 49.1666666667 385 45.5 c 128
 365.666666667 41.8333333333 350.666666667 40 340 40 c 0
 293.333333333 40 251.166666667 51.3333333333 213.5 74 c 128
 175.833333333 96.6666666667 144.166666667 126 118.5 162 c 128
 92.8333333333 198 74 237.833333333 62 281.5 c 128
 50 325.166666667 46 368 50 410 c 0
 55.3333333333 462.666666667 69.1666666667 510.166666667 91.5 552.5 c 128
 113.833333333 594.833333333 142.333333333 631 177 661 c 128
 211.666666667 691 251.5 714.5 296.5 731.5 c 128
 341.5 748.5 389.333333333 758 440 760 c 0
 441.333333333 760.666666667 443.166666667 762.166666667 445.5 764.5 c 128
 447.833333333 766.833333333 449.333333333 768.666666667 450 770 c 2
 450 770 450 770 450.5 772 c 128
 450.833333333 773.333333333 451 774.333333333 451 775 c 0
 451 781 447.666666667 785.166666667 441 787.5 c 128
 434.333333333 789.833333333 427 791.166666667 419 791.5 c 128
 411 791.833333333 403.5 791.833333333 396.5 791.5 c 128
 386 791 386 791 386 791 c 1
 328.666666667 791 276.833333333 778.833333333 230.5 754.5 c 128
 184.166666667 730.166666667 144.666666667 698 112 658 c 128
 79.3333333333 618 54 572.5 36 521.5 c 128
 18 470.5 9 418.333333333 9 365 c 0
EndSplineSet
EndChar

StartChar: uniE092
Encoding: 57490 57490 40
Width: 858
Flags: HW
LayerCount: 2
Fore
SplineSet
9 392 m 0
 9 363.333333333 15.6666666667 340.333333333 29 323 c 128
 42.3333333333 305.666666667 59 292.166666667 79 282.5 c 128
 99 272.833333333 121.166666667 266.5 145.5 263.5 c 128
 169.833333333 260.5 193 259 215 259 c 0
 284.333333333 259 351.5 269 416.5 289 c 128
 481.5 309 546 332.666666667 610 360 c 1
 620 360 l 2
 620.666666667 360 625.666666667 358.166666667 635 354.5 c 128
 644.333333333 350.833333333 655.333333333 346.333333333 668 341 c 128
 680.666666667 335.666666667 693.666666667 330.166666667 707 324.5 c 128
 720.333333333 318.833333333 731.333333333 314 740 310 c 0
 752 304.666666667 761.833333333 299.5 769.5 294.5 c 128
 777.166666667 289.5 787.333333333 287 800 287 c 1
 800 320 l 1
 795.333333333 322 787.333333333 325.833333333 776 331.5 c 128
 759 340 759 340 740 349.5 c 128
 721 359 721 359 704 367.5 c 128
 692.666666667 373.166666667 684.666666667 377.333333333 680 380 c 0
 678.666666667 380.666666667 676.833333333 382.166666667 674.5 384.5 c 128
 672.166666667 386.833333333 670.666666667 388.666666667 670 390 c 0
 676 398.666666667 685.666666667 406.5 699 413.5 c 128
 712.333333333 420.5 725.833333333 427.666666667 739.5 435 c 128
 753.166666667 442.333333333 765 450.666666667 775 460 c 128
 785 469.333333333 790 481 790 495 c 2
 790 500 l 2
 789.333333333 501.333333333 787.833333333 503.166666667 785.5 505.5 c 128
 783.166666667 507.833333333 781.333333333 509.333333333 780 510 c 2
 780 510 780 510 778 510.5 c 128
 776.666666667 510.833333333 775.666666667 511 775 511 c 256
 774.333333333 511 773.333333333 510.833333333 772 510.5 c 128
 770 510 770 510 770 510 c 1
 630 420 l 1
 580 420 l 1
 544.666666667 432 511.166666667 442.833333333 479.5 452.5 c 128
 447.833333333 462.166666667 416.833333333 470.666666667 386.5 478 c 128
 356.166666667 485.333333333 325.166666667 491 293.5 495 c 128
 261.833333333 499 228.333333333 501 193 501 c 0
 175 501 155.333333333 499.833333333 134 497.5 c 128
 112.666666667 495.166666667 92.8333333333 490.166666667 74.5 482.5 c 128
 56.1666666667 474.833333333 40.6666666667 463.833333333 28 449.5 c 128
 15.3333333333 435.166666667 9 416 9 392 c 0
39 376 m 0
 39 393.333333333 44.5 407.333333333 55.5 418 c 128
 66.5 428.666666667 79.6666666667 436.833333333 95 442.5 c 128
 110.333333333 448.166666667 126.666666667 452 144 454 c 128
 161.333333333 456 176 457 188 457 c 0
 249.333333333 457 309 450 367 436 c 128
 425 422 482.666666667 405.333333333 540 386 c 0
 540 385.333333333 540.166666667 384.5 540.5 383.5 c 128
 540.833333333 382.5 541 381.666666667 541 381 c 0
 541 375 533.833333333 368.666666667 519.5 362 c 128
 505.166666667 355.333333333 486.833333333 348.833333333 464.5 342.5 c 128
 442.166666667 336.166666667 417.666666667 330.166666667 391 324.5 c 128
 364.333333333 318.833333333 338.666666667 313.833333333 314 309.5 c 128
 289.333333333 305.166666667 267.5 301.666666667 248.5 299 c 128
 229.5 296.333333333 216.666666667 295 210 295 c 0
 198.666666667 295 183.333333333 295.666666667 164 297 c 128
 144.666666667 298.333333333 125.833333333 301.833333333 107.5 307.5 c 128
 89.1666666667 313.166666667 73.1666666667 321.333333333 59.5 332 c 128
 45.8333333333 342.666666667 39 357.333333333 39 376 c 0
EndSplineSet
EndChar

StartChar: uniE093
Encoding: 57491 57491 41
Width: 858
Flags: HW
LayerCount: 2
Fore
SplineSet
380 100 m 1
 380 0 l 1
 440 0 l 1
 440 105 l 1
 550 105 l 1
 550 161 l 2
 548.666666667 161 547 160.833333333 545 160.5 c 128
 543 160.166666667 541.333333333 160 540 160 c 0
 538 160 533.666666667 159.333333333 527 158 c 128
 520.333333333 156.666666667 513 155.5 505 154.5 c 128
 497 153.5 489.666666667 152.5 483 151.5 c 128
 476.333333333 150.5 472 150 470 150 c 0
 465.333333333 150 459.166666667 151.333333333 451.5 154 c 128
 443.833333333 156.666666667 440 158.666666667 440 160 c 2
 440 220 l 1
 472.666666667 228.666666667 497 240.833333333 513 256.5 c 128
 529 272.166666667 541 288 549 304 c 128
 557 320 563.333333333 335.166666667 568 349.5 c 128
 572.666666667 363.833333333 580 374 590 380 c 0
 592 381.333333333 595.666666667 381.166666667 601 379.5 c 128
 606.333333333 377.833333333 612 375.833333333 618 373.5 c 128
 624 371.166666667 629.833333333 368.833333333 635.5 366.5 c 128
 641.166666667 364.166666667 645 363 647 363 c 1
 647 347.666666667 645.833333333 334.166666667 643.5 322.5 c 128
 641.166666667 310.833333333 640 298.333333333 640 285 c 0
 640 275.666666667 643.666666667 270.666666667 651 270 c 128
 658.333333333 269.333333333 664.666666667 269 670 269 c 0
 670.666666667 269 672.666666667 268.833333333 676 268.5 c 128
 679.333333333 268.166666667 682.833333333 268.333333333 686.5 269 c 128
 690.166666667 269.666666667 693.333333333 270.833333333 696 272.5 c 128
 698.666666667 274.166666667 700 276.666666667 700 280 c 2
 700 377 l 1
 708.666666667 377 717.333333333 377.5 726 378.5 c 128
 734.666666667 379.5 743.166666667 380.166666667 751.5 380.5 c 128
 759.833333333 380.833333333 768 380.333333333 776 379 c 128
 784 377.666666667 792 374.666666667 800 370 c 1
 800 440 l 1
 786.666666667 434.666666667 775.5 431.5 766.5 430.5 c 128
 757.5 429.5 746.666666667 429 734 429 c 0
 733.333333333 429 731.166666667 428.833333333 727.5 428.5 c 128
 723.833333333 428.166666667 720 428.333333333 716 429 c 128
 712 429.666666667 708.333333333 430.666666667 705 432 c 128
 701.666666667 433.333333333 700 436 700 440 c 2
 700 530 l 1
 650 530 l 1
 650 434 l 1
 644 434 637.666666667 433.166666667 631 431.5 c 128
 624.333333333 429.833333333 617.833333333 428.5 611.5 427.5 c 128
 605.166666667 426.5 599.166666667 426.833333333 593.5 428.5 c 128
 587.833333333 430.166666667 583.333333333 434 580 440 c 0
 579 442 579 442 574.5 451 c 128
 570 460 570 460 565 470 c 128
 560 480 560 480 555.5 489 c 128
 551 498 551 498 550 500 c 0
 546 506.666666667 537.5 514.333333333 524.5 523 c 128
 511.5 531.666666667 498 540 484 548 c 128
 470 556 457.5 563 446.5 569 c 128
 435.5 575 430 578.666666667 430 580 c 0
 430 582 430.166666667 585.333333333 430.5 590 c 128
 430.833333333 594.666666667 431.166666667 599.666666667 431.5 605 c 128
 431.833333333 610.333333333 432.333333333 615.333333333 433 620 c 128
 433.666666667 624.666666667 434 628 434 630 c 2
 530 630 l 1
 530 680 l 1
 431 680 l 1
 431 697.333333333 432.666666667 714 436 730 c 128
 439.333333333 746 441 762.666666667 441 780 c 1
 380 780 l 1
 380 683 l 1
 368 683 358.666666667 682.5 352 681.5 c 128
 345.333333333 680.5 339 680 333 680 c 0
 327.666666667 680 321.833333333 680.666666667 315.5 682 c 128
 309.166666667 683.333333333 300.666666667 686 290 690 c 1
 290 620 l 1
 300 625.333333333 309 628.5 317 629.5 c 128
 325 630.5 334.666666667 631 346 631 c 0
 362.666666667 631 372.666666667 628.833333333 376 624.5 c 128
 379.333333333 620.166666667 381 609.333333333 381 592 c 0
 381 582.666666667 375.333333333 572.5 364 561.5 c 128
 352.666666667 550.5 339.5 539 324.5 527 c 128
 309.5 515 294.833333333 502.5 280.5 489.5 c 128
 266.166666667 476.5 256 463.333333333 250 450 c 0
 249.333333333 448 248 444.666666667 246 440 c 128
 244 435.333333333 242 430.333333333 240 425 c 128
 238 419.666666667 236 414.666666667 234 410 c 128
 232 405.333333333 230.666666667 402 230 400 c 2
 140 400 l 1
 140 490 l 2
 140 496 136.5 499.333333333 129.5 500 c 128
 122.5 500.666666667 117.666666667 501 115 501 c 256
 112.333333333 501 107.5 500.666666667 100.5 500 c 128
 93.5 499.333333333 90 496 90 490 c 2
 90 410 l 2
 90 404 86.6666666667 400.666666667 80 400 c 128
 73.3333333333 399.333333333 68.6666666667 399 66 399 c 0
 56 399 46.5 401 37.5 405 c 128
 28.5 409 19.3333333333 411 10 411 c 1
 10 354 l 2
 12 354 15.8333333333 353.833333333 21.5 353.5 c 128
 27.1666666667 353.166666667 33.3333333333 352.833333333 40 352.5 c 128
 46.6666666667 352.166666667 52.8333333333 351.666666667 58.5 351 c 128
 64.1666666667 350.333333333 68 350 70 350 c 0
 72 349.333333333 75 347.833333333 79 345.5 c 128
 83 343.166666667 85 341.333333333 85 340 c 2
 85 260 l 1
 135 260 l 1
 135 340 l 2
 135 342.666666667 138.5 344.833333333 145.5 346.5 c 128
 152.5 348.166666667 160.333333333 349.333333333 169 350 c 128
 177.666666667 350.666666667 185.666666667 351 193 351 c 256
 204 351 204 351 205 351 c 0
 207.666666667 351 213.5 350.833333333 222.5 350.5 c 128
 231.5 350.166666667 237.333333333 350 240 350 c 0
 240.666666667 347.333333333 242.333333333 343.166666667 245 337.5 c 128
 247.666666667 331.833333333 250.666666667 325.833333333 254 319.5 c 128
 257.333333333 313.166666667 260.5 307.166666667 263.5 301.5 c 128
 266.5 295.833333333 268.666666667 292 270 290 c 0
 274 284 282 276.666666667 294 268 c 128
 306 259.333333333 318.333333333 251 331 243 c 128
 343.666666667 235 355 228 365 222 c 128
 375 216 380 212 380 210 c 256
 380 208 379.833333333 204.666666667 379.5 200 c 128
 379.166666667 195.333333333 378.833333333 190.333333333 378.5 185 c 128
 378.166666667 179.666666667 377.666666667 174.666666667 377 170 c 128
 376.333333333 165.333333333 376 162 376 160 c 2
 290 160 l 1
 290 100 l 1
 380 100 l 1
EndSplineSet
EndChar

